<?xml version="1.0" encoding="UTF-8" standalone="no"?>
<svg
   xmlns:dc="http://purl.org/dc/elements/1.1/"
   xmlns:cc="http://creativecommons.org/ns#"
   xmlns:rdf="http://www.w3.org/1999/02/22-rdf-syntax-ns#"
   xmlns:svg="http://www.w3.org/2000/svg"
   xmlns="http://www.w3.org/2000/svg"
   xmlns:sodipodi="http://sodipodi.sourceforge.net/DTD/sodipodi-0.dtd"
   xmlns:inkscape="http://www.inkscape.org/namespaces/inkscape"
   viewBox="0 0 180 302.36221"
   version="1.1"
   id="svg2490"
   sodipodi:docname="volcate_gonad_l1l2_a.svg"
   inkscape:version="1.0.2 (e86c8708, 2021-01-15)"
   width="47.625mm"
   height="80mm">
  <metadata
     id="metadata2494">
    <rdf:RDF>
      <cc:Work
         rdf:about="">
        <dc:format>image/svg+xml</dc:format>
        <dc:type
           rdf:resource="http://purl.org/dc/dcmitype/StillImage" />
        <dc:title></dc:title>
      </cc:Work>
    </rdf:RDF>
  </metadata>
  <sodipodi:namedview
     pagecolor="#ffffff"
     bordercolor="#666666"
     borderopacity="1"
     objecttolerance="10"
     gridtolerance="10"
     guidetolerance="10"
     inkscape:pageopacity="0"
     inkscape:pageshadow="2"
     inkscape:window-width="1671"
     inkscape:window-height="910"
     id="namedview2492"
     showgrid="false"
     inkscape:zoom="1.5"
     inkscape:cx="45.196581"
     inkscape:cy="156.48943"
     inkscape:window-x="9"
     inkscape:window-y="25"
     inkscape:window-maximized="0"
     inkscape:current-layer="layer6"
     inkscape:document-rotation="0"
     units="mm" />
  <defs
     id="defs4">
    <style
       type="text/css"
       id="style2"><![CDATA[
    line, polyline, polygon, path, rect, circle {
      fill: none;
      stroke: #000000;
      stroke-linecap: round;
      stroke-linejoin: round;
      stroke-miterlimit: 10.00;
    }
  ]]></style>
  </defs>
  <defs
     id="defs13">
    <clipPath
       id="cpMzUuNTF8MTc0LjUyfDI5Mi45NHwxMDEuODQ=">
      <rect
         x="35.509998"
         y="101.84"
         width="139.00999"
         height="191.11"
         id="rect10" />
    </clipPath>
  </defs>
  <defs
     id="defs2408">
    <clipPath
       id="cpMC4wMHwxODAuMDB8MzI0LjAwfDAuMDA=">
      <rect
         x="0"
         y="0"
         width="180"
         height="324"
         id="rect2405" />
    </clipPath>
  </defs>
  <g
     inkscape:groupmode="layer"
     id="layer6"
     inkscape:label="main">
    <rect
       x="35.509998"
       y="101.84"
       width="139.00999"
       height="191.11"
       style="fill:#ffffff;stroke:none;stroke-width:1.07"
       clip-path="url(#cpMzUuNTF8MTc0LjUyfDI5Mi45NHwxMDEuODQ=)"
       id="rect15"
       transform="translate(0,-22)" />
    <polyline
       points="35.51,254.19 174.52,254.19 "
       style="stroke:#ebebeb;stroke-width:0.53;stroke-linecap:butt"
       clip-path="url(#cpMzUuNTF8MTc0LjUyfDI5Mi45NHwxMDEuODQ=)"
       id="polyline17"
       transform="translate(0,-22)" />
    <polyline
       points="35.51,194.05 174.52,194.05 "
       style="stroke:#ebebeb;stroke-width:0.53;stroke-linecap:butt"
       clip-path="url(#cpMzUuNTF8MTc0LjUyfDI5Mi45NHwxMDEuODQ=)"
       id="polyline19"
       transform="translate(0,-22)" />
    <polyline
       points="35.51,133.91 174.52,133.91 "
       style="stroke:#ebebeb;stroke-width:0.53;stroke-linecap:butt"
       clip-path="url(#cpMzUuNTF8MTc0LjUyfDI5Mi45NHwxMDEuODQ=)"
       id="polyline21"
       transform="translate(0,-22)" />
    <polyline
       points="37.79,292.94 37.79,101.84 "
       style="stroke:#ebebeb;stroke-width:0.53;stroke-linecap:butt"
       clip-path="url(#cpMzUuNTF8MTc0LjUyfDI5Mi45NHwxMDEuODQ=)"
       id="polyline23"
       transform="translate(0,-22)" />
    <polyline
       points="78.96,292.94 78.96,101.84 "
       style="stroke:#ebebeb;stroke-width:0.53;stroke-linecap:butt"
       clip-path="url(#cpMzUuNTF8MTc0LjUyfDI5Mi45NHwxMDEuODQ=)"
       id="polyline25"
       transform="translate(0,-22)" />
    <polyline
       points="120.12,292.94 120.12,101.84 "
       style="stroke:#ebebeb;stroke-width:0.53;stroke-linecap:butt"
       clip-path="url(#cpMzUuNTF8MTc0LjUyfDI5Mi45NHwxMDEuODQ=)"
       id="polyline27"
       transform="translate(0,-22)" />
    <polyline
       points="161.29,292.94 161.29,101.84 "
       style="stroke:#ebebeb;stroke-width:0.53;stroke-linecap:butt"
       clip-path="url(#cpMzUuNTF8MTc0LjUyfDI5Mi45NHwxMDEuODQ=)"
       id="polyline29"
       transform="translate(0,-22)" />
    <polyline
       points="35.51,284.26 174.52,284.26 "
       style="stroke:#ebebeb;stroke-width:1.07;stroke-linecap:butt"
       clip-path="url(#cpMzUuNTF8MTc0LjUyfDI5Mi45NHwxMDEuODQ=)"
       id="polyline31"
       transform="translate(0,-22)" />
    <polyline
       points="35.51,224.12 174.52,224.12 "
       style="stroke:#ebebeb;stroke-width:1.07;stroke-linecap:butt"
       clip-path="url(#cpMzUuNTF8MTc0LjUyfDI5Mi45NHwxMDEuODQ=)"
       id="polyline33"
       transform="translate(0,-22)" />
    <polyline
       points="35.51,163.98 174.52,163.98 "
       style="stroke:#ebebeb;stroke-width:1.07;stroke-linecap:butt"
       clip-path="url(#cpMzUuNTF8MTc0LjUyfDI5Mi45NHwxMDEuODQ=)"
       id="polyline35"
       transform="translate(0,-22)" />
    <polyline
       points="35.51,103.84 174.52,103.84 "
       style="stroke:#ebebeb;stroke-width:1.07;stroke-linecap:butt"
       clip-path="url(#cpMzUuNTF8MTc0LjUyfDI5Mi45NHwxMDEuODQ=)"
       id="polyline37"
       transform="translate(0,-22)" />
    <polyline
       points="58.37,292.94 58.37,101.84 "
       style="stroke:#ebebeb;stroke-width:1.07;stroke-linecap:butt"
       clip-path="url(#cpMzUuNTF8MTc0LjUyfDI5Mi45NHwxMDEuODQ=)"
       id="polyline39"
       transform="translate(0,-22)" />
    <polyline
       points="99.54,292.94 99.54,101.84 "
       style="stroke:#ebebeb;stroke-width:1.07;stroke-linecap:butt"
       clip-path="url(#cpMzUuNTF8MTc0LjUyfDI5Mi45NHwxMDEuODQ=)"
       id="polyline41"
       transform="translate(0,-22)" />
    <polyline
       points="140.70,292.94 140.70,101.84 "
       style="stroke:#ebebeb;stroke-width:1.07;stroke-linecap:butt"
       clip-path="url(#cpMzUuNTF8MTc0LjUyfDI5Mi45NHwxMDEuODQ=)"
       id="polyline43"
       transform="translate(0,-22)" />
    <line
       x1="35.509998"
       y1="163.98"
       x2="174.52"
       y2="163.98"
       style="stroke:#bebebe;stroke-width:1.07;stroke-linecap:butt;stroke-dasharray:5.69, 5.69"
       clip-path="url(#cpMzUuNTF8MTc0LjUyfDI5Mi45NHwxMDEuODQ=)"
       id="line45"
       transform="translate(0,-22)" />
    <circle
       cx="158.86"
       cy="110.52"
       r="1.95"
       style="fill:#f46d43;fill-opacity:0.75;stroke:#f46d43;stroke-width:0.71;stroke-opacity:0.75"
       clip-path="url(#cpMzUuNTF8MTc0LjUyfDI5Mi45NHwxMDEuODQ=)"
       id="circle47"
       transform="translate(0,-22)" />
    <circle
       cx="97.029999"
       cy="110.52"
       r="1.95"
       style="fill:#74add1;fill-opacity:0.75;stroke:#74add1;stroke-width:0.71;stroke-opacity:0.75"
       clip-path="url(#cpMzUuNTF8MTc0LjUyfDI5Mi45NHwxMDEuODQ=)"
       id="circle49"
       transform="translate(0,-22)" />
    <circle
       cx="127.45"
       cy="110.52"
       r="1.95"
       style="fill:#f46d43;fill-opacity:0.75;stroke:#f46d43;stroke-width:0.71;stroke-opacity:0.75"
       clip-path="url(#cpMzUuNTF8MTc0LjUyfDI5Mi45NHwxMDEuODQ=)"
       id="circle51"
       transform="translate(0,-22)" />
    <circle
       cx="93.150002"
       cy="114.47"
       r="1.95"
       style="fill:#74add1;fill-opacity:0.75;stroke:#74add1;stroke-width:0.71;stroke-opacity:0.75"
       clip-path="url(#cpMzUuNTF8MTc0LjUyfDI5Mi45NHwxMDEuODQ=)"
       id="circle53"
       transform="translate(0,-22)" />
    <circle
       cx="164.7"
       cy="153.58"
       r="1.95"
       style="fill:#f46d43;fill-opacity:0.75;stroke:#f46d43;stroke-width:0.71;stroke-opacity:0.75"
       clip-path="url(#cpMzUuNTF8MTc0LjUyfDI5Mi45NHwxMDEuODQ=)"
       id="circle55"
       transform="translate(0,-22)" />
    <circle
       cx="97.099998"
       cy="154.00999"
       r="1.95"
       style="fill:#74add1;fill-opacity:0.75;stroke:#74add1;stroke-width:0.71;stroke-opacity:0.75"
       clip-path="url(#cpMzUuNTF8MTc0LjUyfDI5Mi45NHwxMDEuODQ=)"
       id="circle57"
       transform="translate(0,-22)" />
    <path
       style="fill:#999999;fill-opacity:0.75;stroke:#999999;stroke-width:0.71;stroke-opacity:0.75"
       clip-path="url(#cpMzUuNTF8MTc0LjUyfDI5Mi45NHwxMDEuODQ=)"
       d="m 48.080078,166.83984 a 1.95,1.95 0 0 0 -1.949219,1.94922 1.95,1.95 0 0 0 1.949219,1.95117 1.95,1.95 0 0 0 1.949219,-1.95117 1.95,1.95 0 0 0 -1.949219,-1.94922 z m 56.400392,0 a 1.95,1.95 0 0 0 -1.95117,1.94922 1.95,1.95 0 0 0 1.95117,1.95117 1.95,1.95 0 0 0 1.35547,-0.54882 1.95,1.95 0 0 0 1.35351,0.54882 1.95,1.95 0 0 0 1.95117,-1.95117 1.95,1.95 0 0 0 -1.95117,-1.94922 1.95,1.95 0 0 0 -1.35547,0.54883 1.95,1.95 0 0 0 -1.35351,-0.54883 z m -32.769532,20.44922 a 1.95,1.95 0 0 0 -1.951172,1.95117 1.95,1.95 0 0 0 1.951172,1.94922 1.95,1.95 0 0 0 1.949218,-1.94922 1.95,1.95 0 0 0 -1.949218,-1.95117 z m 29.558592,0 a 1.95,1.95 0 0 0 -1.949218,1.95117 1.95,1.95 0 0 0 1.949218,1.94922 1.95,1.95 0 0 0 1.48242,-0.68359 1.95,1.95 0 0 0 1.47852,0.68359 1.95,1.95 0 0 0 0.90625,-0.22265 1.95,1.95 0 0 0 0.90234,0.22265 1.95,1.95 0 0 0 1.95117,-1.94922 1.95,1.95 0 0 0 -1.95117,-1.95117 1.95,1.95 0 0 0 -0.90429,0.22461 1.95,1.95 0 0 0 -0.9043,-0.22461 1.95,1.95 0 0 0 -1.48242,0.6836 1.95,1.95 0 0 0 -1.47852,-0.6836 z m 22.06055,0 a 1.95,1.95 0 0 0 -1.94922,1.95117 1.95,1.95 0 0 0 1.94922,1.94922 1.95,1.95 0 0 0 1.94922,-1.94922 1.95,1.95 0 0 0 -1.94922,-1.95117 z m -31.041018,6.01172 a 1.95,1.95 0 0 0 -1.949218,1.94922 1.95,1.95 0 0 0 0.06445,0.49023 1.95,1.95 0 0 0 -0.333985,-0.0293 1.95,1.95 0 0 0 -1.951171,1.94922 1.95,1.95 0 0 0 1.951171,1.94922 1.95,1.95 0 0 0 1.949219,-1.94922 1.95,1.95 0 0 0 -0.06445,-0.49219 1.95,1.95 0 0 0 0.333984,0.0312 1.95,1.95 0 0 0 0.484376,-0.0625 1.95,1.95 0 0 0 1.826171,1.27344 1.95,1.95 0 0 0 1.951172,-1.94922 1.95,1.95 0 0 0 -1.951172,-1.95117 1.95,1.95 0 0 0 -0.482421,0.0625 1.95,1.95 0 0 0 -1.828126,-1.27149 z m 10.791018,0 a 1.95,1.95 0 0 0 -1.94922,1.94922 1.95,1.95 0 0 0 1.94922,1.94922 1.95,1.95 0 0 0 0.17383,-0.008 1.95,1.95 0 0 0 0.15625,0.008 1.95,1.95 0 0 0 0.14648,-0.004 1.95,1.95 0 0 0 0.0937,0.004 1.95,1.95 0 0 0 0.20703,-0.0117 1.95,1.95 0 0 0 0.21289,0.0117 1.95,1.95 0 0 0 1.4375,-0.63672 1.95,1.95 0 0 0 1.44141,0.63672 1.95,1.95 0 0 0 1.95117,-1.94922 1.95,1.95 0 0 0 -1.95117,-1.94922 1.95,1.95 0 0 0 -1.4375,0.63672 1.95,1.95 0 0 0 -1.44141,-0.63672 1.95,1.95 0 0 0 -0.20898,0.0117 1.95,1.95 0 0 0 -0.21094,-0.0117 1.95,1.95 0 0 0 -0.14453,0.004 1.95,1.95 0 0 0 -0.0957,-0.004 1.95,1.95 0 0 0 -0.17188,0.008 1.95,1.95 0 0 0 -0.1582,-0.008 z m 26.58984,0 a 1.95,1.95 0 0 0 -1.94922,1.94922 1.95,1.95 0 0 0 0.0566,0.46289 1.95,1.95 0 0 0 -1.86718,1.94727 1.95,1.95 0 0 0 1.94922,1.94922 1.95,1.95 0 0 0 1.95117,-1.94922 1.95,1.95 0 0 0 -0.0586,-0.46289 1.95,1.95 0 0 0 1.86719,-1.94727 1.95,1.95 0 0 0 -1.94922,-1.94922 z m 11.76953,0 a 1.95,1.95 0 0 0 -1.94922,1.94922 1.95,1.95 0 0 0 1.94922,1.94922 1.95,1.95 0 0 0 1.95117,-1.94922 1.95,1.95 0 0 0 -1.95117,-1.94922 z m -30.04883,2.41016 a 1.95,1.95 0 0 0 -1.95117,1.94922 1.95,1.95 0 0 0 1.95117,1.94922 1.95,1.95 0 0 0 1.94922,-1.94922 1.95,1.95 0 0 0 -1.94922,-1.94922 z m -15.060542,2.39844 a 1.95,1.95 0 0 0 -1.949219,1.95117 1.95,1.95 0 0 0 1.949219,1.94922 1.95,1.95 0 0 0 1.949219,-1.94922 1.95,1.95 0 0 0 -1.949219,-1.95117 z m 7.000002,0 a 1.95,1.95 0 0 0 -1.94922,1.95117 1.95,1.95 0 0 0 1.94922,1.94922 1.95,1.95 0 0 0 1.94922,-1.94922 1.95,1.95 0 0 0 -1.94922,-1.95117 z m -6.179689,6.02148 a 1.95,1.95 0 0 0 -1.951172,1.94922 1.95,1.95 0 0 0 1.951172,1.94922 1.95,1.95 0 0 0 1.949218,-1.94922 1.95,1.95 0 0 0 -1.949218,-1.94922 z m 6.999999,1.19922 a 1.95,1.95 0 0 0 -1.95117,1.94922 1.95,1.95 0 0 0 1.95117,1.95117 1.95,1.95 0 0 0 1.94922,-1.95117 1.95,1.95 0 0 0 -1.94922,-1.94922 z m -8.730468,12.0293 a 1.95,1.95 0 0 0 -1.949219,1.95117 1.95,1.95 0 0 0 1.949219,1.94922 1.95,1.95 0 0 0 0.785156,-0.16602 1.95,1.95 0 0 0 0.785156,0.16602 1.95,1.95 0 0 0 1.949219,-1.94922 1.95,1.95 0 0 0 -1.949219,-1.95117 1.95,1.95 0 0 0 -0.783203,0.16796 1.95,1.95 0 0 0 -0.787109,-0.16796 z m 6.589848,0 a 1.95,1.95 0 0 0 -1.94922,1.95117 1.95,1.95 0 0 0 0.004,0.10937 1.95,1.95 0 0 0 -0.333981,1.08985 1.95,1.95 0 0 0 1.949221,1.95117 1.95,1.95 0 0 0 1.95117,-1.95117 1.95,1.95 0 0 0 -0.004,-0.11133 1.95,1.95 0 0 0 0.33399,-1.08789 1.95,1.95 0 0 0 -1.95117,-1.95117 z m 4.85937,0 a 1.95,1.95 0 0 0 -1.94922,1.95117 1.95,1.95 0 0 0 1.94922,1.94922 1.95,1.95 0 0 0 1.95117,-1.94922 1.95,1.95 0 0 0 -1.95117,-1.95117 z m 13.41992,1.20117 a 1.95,1.95 0 0 0 -1.94922,1.94922 1.95,1.95 0 0 0 1.94922,1.95117 1.95,1.95 0 0 0 1.95117,-1.95117 1.95,1.95 0 0 0 -1.95117,-1.94922 z m -13.75,6.00976 a 1.95,1.95 0 0 0 -1.94922,1.94922 1.95,1.95 0 0 0 1.94922,1.95117 1.95,1.95 0 0 0 1.95117,-1.95117 1.95,1.95 0 0 0 -1.95117,-1.94922 z m 4.20117,0 a 1.95,1.95 0 0 0 -1.95117,1.94922 1.95,1.95 0 0 0 1.95117,1.95117 1.95,1.95 0 0 0 1.94922,-1.95117 1.95,1.95 0 0 0 -1.94922,-1.94922 z m -16.800777,6.01953 a 1.95,1.95 0 0 0 -1.949219,1.94922 1.95,1.95 0 0 0 1.949219,1.95117 1.95,1.95 0 0 0 1.851563,-1.33984 1.95,1.95 0 0 0 1.849609,1.33984 1.95,1.95 0 0 0 1.949219,-1.95117 1.95,1.95 0 0 0 -1.949219,-1.94922 1.95,1.95 0 0 0 -1.851563,1.33985 1.95,1.95 0 0 0 -1.849609,-1.33985 z m 9.710937,0 a 1.95,1.95 0 0 0 -1.95117,1.94922 1.95,1.95 0 0 0 1.95117,1.95117 1.95,1.95 0 0 0 0.19922,-0.0137 1.95,1.95 0 0 0 0.2207,0.0137 1.95,1.95 0 0 0 1.94922,-1.95117 1.95,1.95 0 0 0 -1.94922,-1.94922 1.95,1.95 0 0 0 -0.20117,0.0137 1.95,1.95 0 0 0 -0.21875,-0.0137 z m -0.90039,4.81055 a 1.95,1.95 0 0 0 -1.94922,1.94922 1.95,1.95 0 0 0 1.25195,1.82031 1.95,1.95 0 0 0 1.84766,1.33008 1.95,1.95 0 0 0 0.33008,-0.0293 1.95,1.95 0 0 1 0.002,0 1.95,1.95 0 0 0 0.32813,0.0293 1.95,1.95 0 0 0 1.94922,-1.94922 1.95,1.95 0 0 0 -1.94922,-1.95117 1.95,1.95 0 0 0 -0.0117,0 1.95,1.95 0 0 0 -1.79883,-1.19922 z m -6.089844,1.19922 a 1.95,1.95 0 0 0 -1.949218,1.95117 1.95,1.95 0 0 0 1.949218,1.94922 1.95,1.95 0 0 0 1.949219,-1.94922 1.95,1.95 0 0 0 -1.949219,-1.95117 z m 12.349614,0 a 1.95,1.95 0 0 0 -1.94922,1.95117 1.95,1.95 0 0 0 1.94922,1.94922 1.95,1.95 0 0 0 1.95117,-1.94922 1.95,1.95 0 0 0 -1.95117,-1.95117 z m -12.439458,4.81055 a 1.95,1.95 0 0 0 -1.951171,1.94922 1.95,1.95 0 0 0 0.609375,1.4121 1.95,1.95 0 0 0 -0.279297,0.99805 1.95,1.95 0 0 0 0.06641,0.49414 1.95,1.95 0 0 0 -0.666016,0.27735 1.95,1.95 0 0 0 -1.070312,-0.32032 1.95,1.95 0 0 0 -1.949219,1.94922 1.95,1.95 0 0 0 0.25,0.95117 1.95,1.95 0 0 0 -0.394531,0.47852 1.95,1.95 0 0 0 0.01367,-0.21875 1.95,1.95 0 0 0 -0.335938,-1.09375 1.95,1.95 0 0 0 0.0059,-0.11719 1.95,1.95 0 0 0 -1.949219,-1.94922 1.95,1.95 0 0 0 -1.820313,1.25391 1.95,1.95 0 0 0 -0.410156,-0.0449 1.95,1.95 0 0 0 -0.738281,0.14843 1.95,1.95 0 0 0 -0.740234,-0.14843 1.95,1.95 0 0 0 -1.951172,1.95117 1.95,1.95 0 0 0 1.951172,1.94922 1.95,1.95 0 0 0 0.738281,-0.14844 1.95,1.95 0 0 0 0.740234,0.14844 1.95,1.95 0 0 0 0.783203,-0.16797 1.95,1.95 0 0 0 0.458985,0.13867 1.95,1.95 0 0 0 -0.0625,0.47852 1.95,1.95 0 0 0 1.951171,1.95117 1.95,1.95 0 0 0 1.486329,-0.6875 1.95,1.95 0 0 0 1.482421,0.6875 1.95,1.95 0 0 0 0.449219,-0.0547 1.95,1.95 0 0 0 0.451172,0.0547 1.95,1.95 0 0 0 0.691406,-0.12695 1.95,1.95 0 0 0 -0.0918,0.58593 1.95,1.95 0 0 0 0.939454,1.66407 1.95,1.95 0 0 0 -1.123047,0.43945 1.95,1.95 0 0 0 -1.236328,-0.44336 1.95,1.95 0 0 0 -1.949219,1.95117 1.95,1.95 0 0 0 1.949219,1.94922 1.95,1.95 0 0 0 1.236328,-0.44336 1.95,1.95 0 0 0 1.035156,0.43359 1.95,1.95 0 0 0 -0.929687,1.66016 1.95,1.95 0 0 0 1.867187,1.94531 1.95,1.95 0 0 0 -0.05859,0.46485 1.95,1.95 0 0 0 0.181641,0.8164 1.95,1.95 0 0 0 -0.611328,0.69727 1.95,1.95 0 0 0 -1.414063,-1.02734 1.95,1.95 0 0 0 0.06445,-0.48633 1.95,1.95 0 0 0 -1.951172,-1.95117 1.95,1.95 0 0 0 -1.4375,0.63867 1.95,1.95 0 0 0 -1.441406,-0.63867 1.95,1.95 0 0 0 -1.949218,1.95117 1.95,1.95 0 0 0 1.949218,1.94922 1.95,1.95 0 0 0 1.439453,-0.63672 1.95,1.95 0 0 0 1.125,0.60937 1.95,1.95 0 0 0 -0.06445,0.48828 1.95,1.95 0 0 0 0.9375,1.66407 1.95,1.95 0 0 0 -0.228515,-0.0156 1.95,1.95 0 0 0 -1.949219,1.95117 1.95,1.95 0 0 0 0.335937,1.0918 1.95,1.95 0 0 0 -0.0059,0.11719 1.95,1.95 0 0 0 1.443359,1.88086 1.95,1.95 0 0 0 1.271485,1.18945 1.95,1.95 0 0 0 -0.07422,0.53125 1.95,1.95 0 0 0 0.335937,1.0918 1.95,1.95 0 0 0 -0.0059,0.11718 1.95,1.95 0 0 0 0.05469,0.45313 1.95,1.95 0 0 0 -0.402344,0.0586 1.95,1.95 0 0 0 -1.822266,-1.26172 1.95,1.95 0 0 0 -1.912109,1.56836 1.95,1.95 0 0 0 -1.138672,-0.36914 1.95,1.95 0 0 0 -1.519531,0.73047 1.95,1.95 0 0 0 -1.519531,-0.73047 1.95,1.95 0 0 0 -0.0059,0 1.95,1.95 0 0 0 0.05469,-0.44922 1.95,1.95 0 0 0 -1.949219,-1.94922 1.95,1.95 0 0 0 -1.951172,1.94922 1.95,1.95 0 0 0 1.951172,1.94922 1.95,1.95 0 0 0 0.0059,0 1.95,1.95 0 0 0 -0.05664,0.45117 1.95,1.95 0 0 0 1.951172,1.94922 1.95,1.95 0 0 0 1.519531,-0.73047 1.95,1.95 0 0 0 0.607422,0.50391 1.95,1.95 0 0 0 -0.126953,0.6875 1.95,1.95 0 0 0 0.138671,0.72656 1.95,1.95 0 0 0 -0.06055,0.47266 1.95,1.95 0 0 0 0.05859,0.46094 1.95,1.95 0 0 0 -0.06055,0.002 1.95,1.95 0 0 0 -0.02734,-0.002 1.95,1.95 0 0 0 -0.05273,0.002 1.95,1.95 0 0 0 -0.02734,-0.002 1.95,1.95 0 0 0 -0.05078,0.002 1.95,1.95 0 0 0 -0.0293,-0.002 1.95,1.95 0 0 0 -0.05078,0.002 1.95,1.95 0 0 0 -0.0293,-0.002 1.95,1.95 0 0 0 -0.04687,0.002 1.95,1.95 0 0 0 -0.0332,-0.002 1.95,1.95 0 0 0 -0.06445,0.002 1.95,1.95 0 0 0 -0.02539,-0.002 1.95,1.95 0 0 0 -0.05859,0.002 1.95,1.95 0 0 0 -0.02148,-0.002 1.95,1.95 0 0 0 -0.04297,0.002 1.95,1.95 0 0 0 -0.03711,-0.002 1.95,1.95 0 0 0 -0.04687,0.002 1.95,1.95 0 0 0 -0.0332,-0.002 1.95,1.95 0 0 0 -0.0625,0.002 1.95,1.95 0 0 0 -0.02734,-0.002 1.95,1.95 0 0 0 -0.05859,0.002 1.95,1.95 0 0 0 -0.02148,-0.002 1.95,1.95 0 0 0 -0.04297,0.002 1.95,1.95 0 0 0 -0.03711,-0.002 1.95,1.95 0 0 0 -0.05078,0.002 1.95,1.95 0 0 0 -0.0293,-0.002 1.95,1.95 0 0 0 -0.05273,0.002 1.95,1.95 0 0 0 -0.03711,-0.002 1.95,1.95 0 0 0 -0.05469,0.002 1.95,1.95 0 0 0 -0.02539,-0.002 1.95,1.95 0 0 0 -0.05273,0.002 1.95,1.95 0 0 0 -0.02734,-0.002 1.95,1.95 0 0 0 -0.05859,0.002 1.95,1.95 0 0 0 -0.02148,-0.002 1.95,1.95 0 0 0 -0.04297,0.002 1.95,1.95 0 0 0 -0.03711,-0.002 1.95,1.95 0 0 0 -0.06055,0.002 1.95,1.95 0 0 0 -0.0293,-0.002 1.95,1.95 0 0 0 -0.05859,0.002 1.95,1.95 0 0 0 -0.02148,-0.002 1.95,1.95 0 0 0 -0.04297,0.002 1.95,1.95 0 0 0 -0.03711,-0.002 1.95,1.95 0 0 0 -0.05078,0.002 1.95,1.95 0 0 0 -0.0293,-0.002 1.95,1.95 0 0 0 -0.05273,0.002 1.95,1.95 0 0 0 -0.03711,-0.002 1.95,1.95 0 0 0 -0.05664,0.002 1.95,1.95 0 0 0 -0.02344,-0.002 1.95,1.95 0 0 0 -0.05859,0.002 1.95,1.95 0 0 0 -0.02148,-0.002 1.95,1.95 0 0 0 -0.04297,0.002 1.95,1.95 0 0 0 -0.03516,-0.002 1.95,1.95 0 0 0 -0.05859,0.002 1.95,1.95 0 0 0 -0.0332,-0.002 1.95,1.95 0 0 0 -0.05078,0.002 1.95,1.95 0 0 0 -0.0293,-0.002 1.95,1.95 0 0 0 -0.05664,0.002 1.95,1.95 0 0 0 -0.02148,-0.002 1.95,1.95 0 0 0 -0.04492,0.002 1.95,1.95 0 0 0 -0.03516,-0.002 1.95,1.95 0 0 0 -0.05273,0.002 1.95,1.95 0 0 0 -0.03906,-0.002 1.95,1.95 0 0 0 -0.05273,0.002 1.95,1.95 0 0 0 -0.02539,-0.002 1.95,1.95 0 0 0 -0.05078,0.002 1.95,1.95 0 0 0 -0.0293,-0.002 1.95,1.95 0 0 0 -0.05859,0.002 1.95,1.95 0 0 0 -0.02148,-0.002 1.95,1.95 0 0 0 -0.04492,0.002 1.95,1.95 0 0 0 -0.03516,-0.002 1.95,1.95 0 0 0 -0.06055,0.002 1.95,1.95 0 0 0 -0.0293,-0.002 1.95,1.95 0 0 0 -0.05078,0.002 1.95,1.95 0 0 0 -0.0293,-0.002 1.95,1.95 0 0 0 -0.05859,0.002 1.95,1.95 0 0 0 -0.02148,-0.002 1.95,1.95 0 0 0 -0.04492,0.002 1.95,1.95 0 0 0 -0.03516,-0.002 1.95,1.95 0 0 0 -0.05273,0.002 1.95,1.95 0 0 0 -0.03711,-0.002 1.95,1.95 0 0 0 -0.05664,0.002 1.95,1.95 0 0 0 -0.02344,-0.002 1.95,1.95 0 0 0 -0.05078,0.002 1.95,1.95 0 0 0 -0.0293,-0.002 1.95,1.95 0 0 0 -0.04687,0.002 1.95,1.95 0 0 0 -0.0332,-0.002 1.95,1.95 0 0 0 -0.0625,0.002 1.95,1.95 0 0 0 -0.02734,-0.002 1.95,1.95 0 0 0 -0.05859,0.002 1.95,1.95 0 0 0 -0.02148,-0.002 1.95,1.95 0 0 0 -0.04297,0.002 1.95,1.95 0 0 0 -0.03711,-0.002 1.95,1.95 0 0 0 -0.05859,0.002 1.95,1.95 0 0 0 -0.02148,-0.002 1.95,1.95 0 0 0 -0.04492,0.002 1.95,1.95 0 0 0 -0.03516,-0.002 1.95,1.95 0 0 0 -0.05273,0.002 1.95,1.95 0 0 0 -0.03711,-0.002 1.95,1.95 0 0 0 -0.05664,0.002 1.95,1.95 0 0 0 -0.02344,-0.002 1.95,1.95 0 0 0 -0.05469,0.002 1.95,1.95 0 0 0 -0.02539,-0.002 1.95,1.95 0 0 0 -0.04687,0.002 1.95,1.95 0 0 0 -0.0332,-0.002 1.95,1.95 0 0 0 -0.0625,0.002 1.95,1.95 0 0 0 -0.02734,-0.002 1.95,1.95 0 0 0 -0.05859,0.002 1.95,1.95 0 0 0 -0.02148,-0.002 1.95,1.95 0 0 0 -0.04297,0.002 1.95,1.95 0 0 0 -0.03711,-0.002 1.95,1.95 0 0 0 -0.04687,0.002 1.95,1.95 0 0 0 -0.0332,-0.002 1.95,1.95 0 0 0 -0.05859,0.002 1.95,1.95 0 0 0 -0.03125,-0.002 1.95,1.95 0 0 0 -0.05078,0.002 1.95,1.95 0 0 0 -0.0293,-0.002 1.95,1.95 0 0 0 -0.05664,0.002 1.95,1.95 0 0 0 -0.02344,-0.002 1.95,1.95 0 0 0 -0.04102,0.002 1.95,1.95 0 0 0 -0.03906,-0.002 1.95,1.95 0 0 0 -0.04687,0.002 1.95,1.95 0 0 0 -0.0332,-0.002 1.95,1.95 0 0 0 -0.0625,0.002 1.95,1.95 0 0 0 -0.02734,-0.002 1.95,1.95 0 0 0 -0.05078,0.002 1.95,1.95 0 0 0 -0.0293,-0.002 1.95,1.95 0 0 0 -0.05664,0.002 1.95,1.95 0 0 0 -0.02344,-0.002 1.95,1.95 0 0 0 -0.04102,0.002 1.95,1.95 0 0 0 -0.03906,-0.002 1.95,1.95 0 0 0 -0.05664,0.002 1.95,1.95 0 0 0 -0.0332,-0.002 1.95,1.95 0 0 0 -0.05078,0.002 1.95,1.95 0 0 0 -0.0293,-0.002 1.95,1.95 0 0 0 -0.05664,0.002 1.95,1.95 0 0 0 -0.02344,-0.002 1.95,1.95 0 0 0 -0.04102,0.002 1.95,1.95 0 0 0 -0.03906,-0.002 1.95,1.95 0 0 0 -0.05664,0.002 1.95,1.95 0 0 0 -0.0332,-0.002 1.95,1.95 0 0 0 -0.107422,0.004 1.95,1.95 0 0 0 -0.05273,-0.004 1.95,1.95 0 0 0 -0.04687,0.002 1.95,1.95 0 0 0 -0.0332,-0.002 1.95,1.95 0 0 0 -0.0625,0.002 1.95,1.95 0 0 0 -0.02734,-0.002 1.95,1.95 0 0 0 -0.05859,0.002 1.95,1.95 0 0 0 -0.02148,-0.002 1.95,1.95 0 0 0 -0.04297,0.002 1.95,1.95 0 0 0 -0.03711,-0.002 1.95,1.95 0 0 0 -0.05078,0.002 1.95,1.95 0 0 0 -0.0293,-0.002 1.95,1.95 0 0 0 -0.05078,0.002 1.95,1.95 0 0 0 -0.0293,-0.002 1.95,1.95 0 0 0 -0.05664,0.002 1.95,1.95 0 0 0 -0.0332,-0.002 1.95,1.95 0 0 0 -0.05859,0.002 1.95,1.95 0 0 0 -0.02148,-0.002 1.95,1.95 0 0 0 -0.04297,0.002 1.95,1.95 0 0 0 -0.03711,-0.002 1.95,1.95 0 0 0 -0.04688,0.002 1.95,1.95 0 0 0 -0.0332,-0.002 1.95,1.95 0 0 0 -0.0625,0.002 1.95,1.95 0 0 0 -0.02734,-0.002 1.95,1.95 0 0 0 -0.05859,0.002 1.95,1.95 0 0 0 -0.02148,-0.002 1.95,1.95 0 0 0 -0.04297,0.002 1.95,1.95 0 0 0 -0.03711,-0.002 1.95,1.95 0 0 0 -0.04687,0.002 1.95,1.95 0 0 0 -0.0332,-0.002 1.95,1.95 0 0 0 -0.0625,0.002 1.95,1.95 0 0 0 -0.02734,-0.002 1.95,1.95 0 0 0 -0.05859,0.002 1.95,1.95 0 0 0 -0.02148,-0.002 1.95,1.95 0 0 0 -0.04297,0.002 1.95,1.95 0 0 0 -0.03711,-0.002 1.95,1.95 0 0 0 -0.05859,0.002 1.95,1.95 0 0 0 -0.02148,-0.002 1.95,1.95 0 0 0 -0.04297,0.002 1.95,1.95 0 0 0 -0.03711,-0.002 1.95,1.95 0 0 0 -0.05273,0.002 1.95,1.95 0 0 0 -0.03711,-0.002 1.95,1.95 0 0 0 -0.05469,0.002 1.95,1.95 0 0 0 -0.02539,-0.002 1.95,1.95 0 0 0 -0.05273,0.002 1.95,1.95 0 0 0 -0.02734,-0.002 1.95,1.95 0 0 0 -0.146484,0.006 1.95,1.95 0 0 0 -0.103516,-0.006 1.95,1.95 0 0 0 -0.05078,0.002 1.95,1.95 0 0 0 -0.0293,-0.002 1.95,1.95 0 0 0 -0.05078,0.002 1.95,1.95 0 0 0 -0.0293,-0.002 1.95,1.95 0 0 0 -0.05664,0.002 1.95,1.95 0 0 0 -0.0332,-0.002 1.95,1.95 0 0 0 -0.105469,0.004 1.95,1.95 0 0 0 -0.05469,-0.004 1.95,1.95 0 0 0 -0.05078,0.002 1.95,1.95 0 0 0 -0.0293,-0.002 1.95,1.95 0 0 0 -0.05664,0.002 1.95,1.95 0 0 0 -0.0332,-0.002 1.95,1.95 0 0 0 -0.105469,0.004 1.95,1.95 0 0 0 -0.05469,-0.004 1.95,1.95 0 0 0 -0.05078,0.002 1.95,1.95 0 0 0 -0.0293,-0.002 1.95,1.95 0 0 0 -0.04492,0.002 1.95,1.95 0 0 0 -0.0332,-0.002 1.95,1.95 0 0 0 -0.0625,0.002 1.95,1.95 0 0 0 -0.0293,-0.002 1.95,1.95 0 0 0 -0.05273,0.002 1.95,1.95 0 0 0 -0.02734,-0.002 1.95,1.95 0 0 0 -0.101562,0.002 1.95,1.95 0 0 0 -0.05664,-0.002 1.95,1.95 0 0 0 -0.05859,0.002 1.95,1.95 0 0 0 -0.0332,-0.002 1.95,1.95 0 0 0 -0.101562,0.002 1.95,1.95 0 0 0 -0.05664,-0.002 1.95,1.95 0 0 0 -0.04687,0.002 1.95,1.95 0 0 0 -0.0332,-0.002 1.95,1.95 0 0 0 -0.0625,0.002 1.95,1.95 0 0 0 -0.02734,-0.002 1.95,1.95 0 0 0 -0.05469,0.002 1.95,1.95 0 0 0 -0.02539,-0.002 1.95,1.95 0 0 0 -0.05078,0.002 1.95,1.95 0 0 0 -0.0293,-0.002 1.95,1.95 0 0 0 -0.05664,0.002 1.95,1.95 0 0 0 -0.02344,-0.002 1.95,1.95 0 0 0 -0.04102,0.002 1.95,1.95 0 0 0 -0.03906,-0.002 1.95,1.95 0 0 0 -0.05273,0.002 1.95,1.95 0 0 0 -0.03711,-0.002 1.95,1.95 0 0 0 -0.05664,0.002 1.95,1.95 0 0 0 -0.02344,-0.002 1.95,1.95 0 0 0 -0.05078,0.002 1.95,1.95 0 0 0 -0.0293,-0.002 1.95,1.95 0 0 0 -0.205078,0.0117 1.95,1.95 0 0 0 -0.205078,-0.0117 1.95,1.95 0 0 0 -0.05859,0.002 1.95,1.95 0 0 0 -0.03125,-0.002 1.95,1.95 0 0 0 -0.05859,0.002 1.95,1.95 0 0 0 -0.02148,-0.002 1.95,1.95 0 0 0 -0.04492,0.002 1.95,1.95 0 0 0 -0.03516,-0.002 1.95,1.95 0 0 0 -0.109375,0.004 1.95,1.95 0 0 0 -0.06055,-0.004 1.95,1.95 0 0 0 -0.103516,0.002 1.95,1.95 0 0 0 -0.05664,-0.002 1.95,1.95 0 0 0 -0.103516,0.002 1.95,1.95 0 0 0 -0.05664,-0.002 1.95,1.95 0 0 0 -0.207031,0.0117 1.95,1.95 0 0 0 -0.212891,-0.0117 1.95,1.95 0 0 0 -0.05078,0.002 1.95,1.95 0 0 0 -0.0293,-0.002 1.95,1.95 0 0 0 -0.203125,0.0117 1.95,1.95 0 0 0 -0.207031,-0.0117 1.95,1.95 0 0 0 -0.101562,0.002 1.95,1.95 0 0 0 -0.05859,-0.002 1.95,1.95 0 0 0 -0.296875,0.0234 1.95,1.95 0 0 0 -0.283203,-0.0234 1.95,1.95 0 0 0 -0.04687,0.002 1.95,1.95 0 0 0 -0.0332,-0.002 1.95,1.95 0 0 0 -0.0625,0.002 1.95,1.95 0 0 0 -0.02734,-0.002 1.95,1.95 0 0 0 -0.101563,0.002 1.95,1.95 0 0 0 -0.05859,-0.002 1.95,1.95 0 0 0 -0.05078,0.002 1.95,1.95 0 0 0 -0.0293,-0.002 1.95,1.95 0 0 0 -0.146485,0.006 1.95,1.95 0 0 0 -0.103515,-0.006 1.95,1.95 0 0 0 -0.248047,0.0176 1.95,1.95 0 0 0 -0.242188,-0.0176 1.95,1.95 0 0 0 -0.169922,0.008 1.95,1.95 0 0 0 -0.160156,-0.008 1.95,1.95 0 0 0 -0.107422,0.004 1.95,1.95 0 0 0 -0.0625,-0.004 1.95,1.95 0 0 0 -0.05078,0.002 1.95,1.95 0 0 0 -0.0293,-0.002 1.95,1.95 0 0 0 -0.169922,0.008 1.95,1.95 0 0 0 -0.160156,-0.008 1.95,1.95 0 0 0 -0.05078,0.002 1.95,1.95 0 0 0 -0.0293,-0.002 1.95,1.95 0 0 0 -0.169922,0.008 1.95,1.95 0 0 0 -0.160156,-0.008 1.95,1.95 0 0 0 -0.05078,0.002 1.95,1.95 0 0 0 -0.0293,-0.002 1.95,1.95 0 0 0 -0.107421,0.004 1.95,1.95 0 0 0 -0.0625,-0.004 1.95,1.95 0 0 0 -0.201172,0.0117 1.95,1.95 0 0 0 -0.207031,-0.0117 1.95,1.95 0 0 0 -0.203126,0.0117 1.95,1.95 0 0 0 -0.207031,-0.0117 1.95,1.95 0 0 0 -0.05078,0.002 1.95,1.95 0 0 0 -0.0293,-0.002 1.95,1.95 0 0 0 -0.148437,0.006 1.95,1.95 0 0 0 -0.101563,-0.006 1.95,1.95 0 0 0 -0.660156,0.11718 1.95,1.95 0 0 0 -0.660156,-0.11718 1.95,1.95 0 0 0 -0.171875,0.008 1.95,1.95 0 0 0 -0.158204,-0.008 1.95,1.95 0 0 0 -0.101562,0.002 1.95,1.95 0 0 0 -0.05859,-0.002 1.95,1.95 0 0 0 -0.04687,0.002 1.95,1.95 0 0 0 -0.0332,-0.002 1.95,1.95 0 0 0 -0.0625,0.002 1.95,1.95 0 0 0 -0.02734,-0.002 1.95,1.95 0 0 0 -0.101562,0.002 1.95,1.95 0 0 0 -0.05859,-0.002 1.95,1.95 0 0 0 -0.203125,0.0117 1.95,1.95 0 0 0 -0.207031,-0.0117 1.95,1.95 0 0 0 -0.498047,0.0645 1.95,1.95 0 0 0 -0.490234,-0.0645 1.95,1.95 0 0 0 0.05859,-0.46094 1.95,1.95 0 0 0 -1.951172,-1.94922 1.95,1.95 0 0 0 -1.949218,1.94922 1.95,1.95 0 0 0 0.107422,0.63281 1.95,1.95 0 0 0 -0.796875,-0.17187 1.95,1.95 0 0 0 -1.951172,1.94922 1.95,1.95 0 0 0 1.951172,1.95117 1.95,1.95 0 0 0 0.826171,-0.18555 1.95,1.95 0 0 0 0.824219,0.18555 1.95,1.95 0 0 0 0.404297,-0.0469 1.95,1.95 0 0 0 0.414063,0.0469 1.95,1.95 0 0 0 0.783203,-0.16797 1.95,1.95 0 0 0 0.787109,0.16797 1.95,1.95 0 0 0 0.158203,-0.008 1.95,1.95 0 0 0 0.16211,0.008 1.95,1.95 0 0 0 0.0918,-0.004 1.95,1.95 0 0 0 0.07813,0.004 1.95,1.95 0 0 0 0.496093,-0.0664 1.95,1.95 0 0 0 0.494141,0.0664 1.95,1.95 0 0 0 0.195312,-0.0137 1.95,1.95 0 0 0 0.214844,0.0137 1.95,1.95 0 0 0 0.08594,-0.004 1.95,1.95 0 0 0 0.07422,0.004 1.95,1.95 0 0 0 0.04883,-0.002 1.95,1.95 0 0 0 0.04102,0.002 1.95,1.95 0 0 0 0.04297,-0.002 1.95,1.95 0 0 0 0.03711,0.002 1.95,1.95 0 0 0 0.08594,-0.004 1.95,1.95 0 0 0 0.07422,0.004 1.95,1.95 0 0 0 0.158204,-0.008 1.95,1.95 0 0 0 0.171875,0.008 1.95,1.95 0 0 0 0.662109,-0.11719 1.95,1.95 0 0 0 0.658203,0.11719 1.95,1.95 0 0 0 0.134766,-0.006 1.95,1.95 0 0 1 0.002,0 1.95,1.95 0 0 0 0.113281,0.006 1.95,1.95 0 0 0 0.04297,-0.002 1.95,1.95 0 0 0 0.03711,0.002 1.95,1.95 0 0 0 0.19336,-0.0137 1.95,1.95 0 0 0 0.216797,0.0137 1.95,1.95 0 0 0 0.195312,-0.0137 1.95,1.95 0 0 0 0.212891,0.0137 1.95,1.95 0 0 0 0.0918,-0.004 1.95,1.95 0 0 0 0.07812,0.004 1.95,1.95 0 0 0 0.04297,-0.002 1.95,1.95 0 0 0 0.03711,0.002 1.95,1.95 0 0 0 0.160156,-0.008 1.95,1.95 0 0 0 0.169922,0.008 1.95,1.95 0 0 0 0.04297,-0.002 1.95,1.95 0 0 0 0.03711,0.002 1.95,1.95 0 0 0 0.160156,-0.008 1.95,1.95 0 0 0 0.169922,0.008 1.95,1.95 0 0 0 0.04297,-0.002 1.95,1.95 0 0 0 0.03711,0.002 1.95,1.95 0 0 0 0.0918,-0.004 1.95,1.95 0 0 0 0.07813,0.004 1.95,1.95 0 0 0 0.160156,-0.008 1.95,1.95 0 0 0 0.169922,0.008 1.95,1.95 0 0 0 0.240235,-0.0176 1.95,1.95 0 0 0 0.25,0.0176 1.95,1.95 0 0 0 0.134765,-0.006 1.95,1.95 0 0 0 0.115235,0.006 1.95,1.95 0 0 0 0.04297,-0.002 1.95,1.95 0 0 0 0.03711,0.002 1.95,1.95 0 0 0 0.08594,-0.004 1.95,1.95 0 0 0 0.07422,0.004 1.95,1.95 0 0 0 0.04883,-0.002 1.95,1.95 0 0 0 0.04102,0.002 1.95,1.95 0 0 0 0.04297,-0.002 1.95,1.95 0 0 0 0.03711,0.002 1.95,1.95 0 0 0 0.289062,-0.0234 1.95,1.95 0 0 0 0.291016,0.0234 1.95,1.95 0 0 0 0.08594,-0.004 1.95,1.95 0 0 0 0.07422,0.004 1.95,1.95 0 0 0 0.195313,-0.0137 1.95,1.95 0 0 0 0.214843,0.0137 1.95,1.95 0 0 0 0.04297,-0.002 1.95,1.95 0 0 0 0.03711,0.002 1.95,1.95 0 0 0 0.201172,-0.0137 1.95,1.95 0 0 0 0.21875,0.0137 1.95,1.95 0 0 0 0.08594,-0.004 1.95,1.95 0 0 0 0.07422,0.004 1.95,1.95 0 0 0 0.08398,-0.004 1.95,1.95 0 0 0 0.07617,0.004 1.95,1.95 0 0 0 0.0918,-0.004 1.95,1.95 0 0 0 0.07813,0.004 1.95,1.95 0 0 0 0.04102,-0.002 1.95,1.95 0 0 0 0.03906,0.002 1.95,1.95 0 0 0 0.04492,-0.002 1.95,1.95 0 0 0 0.03516,0.002 1.95,1.95 0 0 0 0.04883,-0.002 1.95,1.95 0 0 0 0.04102,0.002 1.95,1.95 0 0 0 0.195312,-0.0137 1.95,1.95 0 0 0 0.214844,0.0137 1.95,1.95 0 0 0 0.04297,-0.002 1.95,1.95 0 0 0 0.03711,0.002 1.95,1.95 0 0 0 0.04297,-0.002 1.95,1.95 0 0 0 0.03711,0.002 1.95,1.95 0 0 0 0.04883,-0.002 1.95,1.95 0 0 0 0.04102,0.002 1.95,1.95 0 0 0 0.04102,-0.002 1.95,1.95 0 0 0 0.03906,0.002 1.95,1.95 0 0 0 0.04297,-0.002 1.95,1.95 0 0 0 0.03711,0.002 1.95,1.95 0 0 0 0.04492,-0.002 1.95,1.95 0 0 0 0.03516,0.002 1.95,1.95 0 0 0 0.04297,-0.002 1.95,1.95 0 0 0 0.03711,0.002 1.95,1.95 0 0 0 0.04883,-0.002 1.95,1.95 0 0 0 0.04102,0.002 1.95,1.95 0 0 0 0.04297,-0.002 1.95,1.95 0 0 0 0.03711,0.002 1.95,1.95 0 0 0 0.08594,-0.004 1.95,1.95 0 0 0 0.07227,0.004 1.95,1.95 0 0 0 0.04883,-0.002 1.95,1.95 0 0 0 0.04297,0.002 1.95,1.95 0 0 0 0.08594,-0.004 1.95,1.95 0 0 0 0.07227,0.004 1.95,1.95 0 0 0 0.04297,-0.002 1.95,1.95 0 0 0 0.03711,0.002 1.95,1.95 0 0 0 0.05078,-0.002 1.95,1.95 0 0 0 0.04102,0.002 1.95,1.95 0 0 0 0.04297,-0.002 1.95,1.95 0 0 0 0.03516,0.002 1.95,1.95 0 0 0 0.04297,-0.002 1.95,1.95 0 0 0 0.03711,0.002 1.95,1.95 0 0 0 0.08398,-0.004 1.95,1.95 0 0 0 0.07617,0.004 1.95,1.95 0 0 0 0.05078,-0.002 1.95,1.95 0 0 0 0.03906,0.002 1.95,1.95 0 0 0 0.04297,-0.002 1.95,1.95 0 0 0 0.03711,0.002 1.95,1.95 0 0 0 0.08398,-0.004 1.95,1.95 0 0 0 0.07617,0.004 1.95,1.95 0 0 0 0.05078,-0.002 1.95,1.95 0 0 0 0.03906,0.002 1.95,1.95 0 0 0 0.04297,-0.002 1.95,1.95 0 0 0 0.03711,0.002 1.95,1.95 0 0 0 0.04297,-0.002 1.95,1.95 0 0 0 0.03711,0.002 1.95,1.95 0 0 0 0.130859,-0.006 1.95,1.95 0 0 0 0.119141,0.006 1.95,1.95 0 0 0 0.04297,-0.002 1.95,1.95 0 0 0 0.03711,0.002 1.95,1.95 0 0 0 0.04297,-0.002 1.95,1.95 0 0 0 0.03711,0.002 1.95,1.95 0 0 0 0.04883,-0.002 1.95,1.95 0 0 0 0.04102,0.002 1.95,1.95 0 0 0 0.04297,-0.002 1.95,1.95 0 0 0 0.03711,0.002 1.95,1.95 0 0 0 0.04492,-0.002 1.95,1.95 0 0 0 0.03516,0.002 1.95,1.95 0 0 0 0.04297,-0.002 1.95,1.95 0 0 0 0.03711,0.002 1.95,1.95 0 0 0 0.04492,-0.002 1.95,1.95 0 0 0 0.03516,0.002 1.95,1.95 0 0 0 0.04883,-0.002 1.95,1.95 0 0 0 0.04102,0.002 1.95,1.95 0 0 0 0.04297,-0.002 1.95,1.95 0 0 0 0.03711,0.002 1.95,1.95 0 0 0 0.04102,-0.002 1.95,1.95 0 0 0 0.03906,0.002 1.95,1.95 0 0 0 0.04297,-0.002 1.95,1.95 0 0 0 0.03711,0.002 1.95,1.95 0 0 0 0.04883,-0.002 1.95,1.95 0 0 0 0.04102,0.002 1.95,1.95 0 0 0 0.04297,-0.002 1.95,1.95 0 0 0 0.03711,0.002 1.95,1.95 0 0 0 0.04102,-0.002 1.95,1.95 0 0 0 0.03906,0.002 1.95,1.95 0 0 0 0.04297,-0.002 1.95,1.95 0 0 0 0.03711,0.002 1.95,1.95 0 0 0 0.04883,-0.002 1.95,1.95 0 0 0 0.04102,0.002 1.95,1.95 0 0 0 0.04297,-0.002 1.95,1.95 0 0 0 0.03711,0.002 1.95,1.95 0 0 0 0.04297,-0.002 1.95,1.95 0 0 0 0.03711,0.002 1.95,1.95 0 0 0 0.04102,-0.002 1.95,1.95 0 0 0 0.03906,0.002 1.95,1.95 0 0 0 0.04492,-0.002 1.95,1.95 0 0 0 0.03516,0.002 1.95,1.95 0 0 0 0.04883,-0.002 1.95,1.95 0 0 0 0.04102,0.002 1.95,1.95 0 0 0 0.04297,-0.002 1.95,1.95 0 0 0 0.03711,0.002 1.95,1.95 0 0 0 0.08594,-0.004 1.95,1.95 0 0 0 0.07422,0.004 1.95,1.95 0 0 0 0.05078,-0.002 1.95,1.95 0 0 0 0.03906,0.002 1.95,1.95 0 0 0 0.04102,-0.002 1.95,1.95 0 0 0 0.03906,0.002 1.95,1.95 0 0 0 0.04297,-0.002 1.95,1.95 0 0 0 0.03711,0.002 1.95,1.95 0 0 0 0.04687,-0.002 1.95,1.95 0 0 0 0.0332,0.002 1.95,1.95 0 0 0 0.04883,-0.002 1.95,1.95 0 0 0 0.04102,0.002 1.95,1.95 0 0 0 0.04102,-0.002 1.95,1.95 0 0 0 0.03906,0.002 1.95,1.95 0 0 0 0.04297,-0.002 1.95,1.95 0 0 0 0.03711,0.002 1.95,1.95 0 0 0 0.04687,-0.002 1.95,1.95 0 0 0 0.0332,0.002 1.95,1.95 0 0 0 0.04883,-0.002 1.95,1.95 0 0 0 0.04102,0.002 1.95,1.95 0 0 0 0.04297,-0.002 1.95,1.95 0 0 0 0.03711,0.002 1.95,1.95 0 0 0 0.04102,-0.002 1.95,1.95 0 0 0 0.03906,0.002 1.95,1.95 0 0 0 0.04297,-0.002 1.95,1.95 0 0 0 0.03711,0.002 1.95,1.95 0 0 0 0.04688,-0.002 1.95,1.95 0 0 0 0.0332,0.002 1.95,1.95 0 0 0 0.04883,-0.002 1.95,1.95 0 0 0 0.04102,0.002 1.95,1.95 0 0 0 0.04297,-0.002 1.95,1.95 0 0 0 0.03711,0.002 1.95,1.95 0 0 0 0.04297,-0.002 1.95,1.95 0 0 0 0.03711,0.002 1.95,1.95 0 0 0 0.04492,-0.002 1.95,1.95 0 0 0 0.03516,0.002 1.95,1.95 0 0 0 0.04883,-0.002 1.95,1.95 0 0 0 0.04102,0.002 1.95,1.95 0 0 0 0.04297,-0.002 1.95,1.95 0 0 0 0.03711,0.002 1.95,1.95 0 0 0 0.04297,-0.002 1.95,1.95 0 0 0 0.03711,0.002 1.95,1.95 0 0 0 0.04297,-0.002 1.95,1.95 0 0 0 0.03711,0.002 1.95,1.95 0 0 0 0.04883,-0.002 1.95,1.95 0 0 0 0.04102,0.002 1.95,1.95 0 0 0 0.04102,-0.002 1.95,1.95 0 0 0 0.03906,0.002 1.95,1.95 0 0 0 0.04492,-0.002 1.95,1.95 0 0 0 0.03516,0.002 1.95,1.95 0 0 0 0.04102,-0.002 1.95,1.95 0 0 0 0.03906,0.002 1.95,1.95 0 0 0 0.04492,-0.002 1.95,1.95 0 0 0 0.03516,0.002 1.95,1.95 0 0 0 0.04687,-0.002 1.95,1.95 0 0 0 0.04297,0.002 1.95,1.95 0 0 0 0.04297,-0.002 1.95,1.95 0 0 0 0.03711,0.002 1.95,1.95 0 0 0 0.04297,-0.002 1.95,1.95 0 0 0 0.03711,0.002 1.95,1.95 0 0 0 0.04297,-0.002 1.95,1.95 0 0 0 0.03711,0.002 1.95,1.95 0 0 0 0.04883,-0.002 1.95,1.95 0 0 0 0.04102,0.002 1.95,1.95 0 0 0 0.04102,-0.002 1.95,1.95 0 0 0 0.03906,0.002 1.95,1.95 0 0 0 0.04492,-0.002 1.95,1.95 0 0 0 0.03516,0.002 1.95,1.95 0 0 0 0.04297,-0.002 1.95,1.95 0 0 0 0.03711,0.002 1.95,1.95 0 0 0 0.04883,-0.002 1.95,1.95 0 0 0 0.04102,0.002 1.95,1.95 0 0 0 0.04297,-0.002 1.95,1.95 0 0 0 0.03711,0.002 1.95,1.95 0 0 0 0.04492,-0.002 1.95,1.95 0 0 0 0.03516,0.002 1.95,1.95 0 0 0 0.04102,-0.002 1.95,1.95 0 0 0 0.03906,0.002 1.95,1.95 0 0 0 0.04297,-0.002 1.95,1.95 0 0 0 0.03516,0.002 1.95,1.95 0 0 0 0.04883,-0.002 1.95,1.95 0 0 0 0.04297,0.002 1.95,1.95 0 0 0 0.04102,-0.002 1.95,1.95 0 0 0 0.03906,0.002 1.95,1.95 0 0 0 0.04297,-0.002 1.95,1.95 0 0 0 0.03516,0.002 1.95,1.95 0 0 0 0.04297,-0.002 1.95,1.95 0 0 0 0.03711,0.002 1.95,1.95 0 0 0 0.04883,-0.002 1.95,1.95 0 0 0 0.04297,0.002 1.95,1.95 0 0 0 0.04102,-0.002 1.95,1.95 0 0 0 0.03711,0.002 1.95,1.95 0 0 0 0.04492,-0.002 1.95,1.95 0 0 0 0.03516,0.002 1.95,1.95 0 0 0 0.04297,-0.002 1.95,1.95 0 0 0 0.03711,0.002 1.95,1.95 0 0 0 0.04883,-0.002 1.95,1.95 0 0 0 0.04102,0.002 1.95,1.95 0 0 0 0.04492,-0.002 1.95,1.95 0 0 0 0.03516,0.002 1.95,1.95 0 0 0 0.04297,-0.002 1.95,1.95 0 0 0 0.03711,0.002 1.95,1.95 0 0 0 0.04492,-0.002 1.95,1.95 0 0 0 0.03516,0.002 1.95,1.95 0 0 0 0.04883,-0.002 1.95,1.95 0 0 0 0.04102,0.002 1.95,1.95 0 0 0 0.04297,-0.002 1.95,1.95 0 0 0 0.03711,0.002 1.95,1.95 0 0 0 0.04492,-0.002 1.95,1.95 0 0 0 0.03516,0.002 1.95,1.95 0 0 0 0.04297,-0.002 1.95,1.95 0 0 0 0.03711,0.002 1.95,1.95 0 0 0 0.04297,-0.002 1.95,1.95 0 0 0 0.03711,0.002 1.95,1.95 0 0 0 0.04883,-0.002 1.95,1.95 0 0 0 0.04102,0.002 1.95,1.95 0 0 0 0.04297,-0.002 1.95,1.95 0 0 0 0.03711,0.002 1.95,1.95 0 0 0 0.04297,-0.002 1.95,1.95 0 0 0 0.03711,0.002 1.95,1.95 0 0 0 0.04492,-0.002 1.95,1.95 0 0 0 0.03516,0.002 1.95,1.95 0 0 0 0.04883,-0.002 1.95,1.95 0 0 0 0.04102,0.002 1.95,1.95 0 0 0 0.04297,-0.002 1.95,1.95 0 0 0 0.03711,0.002 1.95,1.95 0 0 0 0.04297,-0.002 1.95,1.95 0 0 0 0.03711,0.002 1.95,1.95 0 0 0 0.04492,-0.002 1.95,1.95 0 0 0 0.03516,0.002 1.95,1.95 0 0 0 0.04883,-0.002 1.95,1.95 0 0 0 0.04102,0.002 1.95,1.95 0 0 0 0.04297,-0.002 1.95,1.95 0 0 0 0.03711,0.002 1.95,1.95 0 0 0 0.04492,-0.002 1.95,1.95 0 0 0 0.03516,0.002 1.95,1.95 0 0 0 0.04102,-0.002 1.95,1.95 0 0 0 0.03906,0.002 1.95,1.95 0 0 0 0.04297,-0.002 1.95,1.95 0 0 0 0.03711,0.002 1.95,1.95 0 0 0 0.04883,-0.002 1.95,1.95 0 0 0 0.04102,0.002 1.95,1.95 0 0 0 0.04297,-0.002 1.95,1.95 0 0 0 0.03711,0.002 1.95,1.95 0 0 0 0.04102,-0.002 1.95,1.95 0 0 0 0.03906,0.002 1.95,1.95 0 0 0 0.04492,-0.002 1.95,1.95 0 0 0 0.03516,0.002 1.95,1.95 0 0 0 0.04883,-0.002 1.95,1.95 0 0 0 0.04102,0.002 1.95,1.95 0 0 0 0.04297,-0.002 1.95,1.95 0 0 0 0.03711,0.002 1.95,1.95 0 0 0 0.04492,-0.002 1.95,1.95 0 0 0 0.03516,0.002 1.95,1.95 0 0 0 0.04297,-0.002 1.95,1.95 0 0 0 0.03711,0.002 1.95,1.95 0 0 0 0.04883,-0.002 1.95,1.95 0 0 0 0.04102,0.002 1.95,1.95 0 0 0 0.04492,-0.002 1.95,1.95 0 0 0 0.03516,0.002 1.95,1.95 0 0 0 0.04102,-0.002 1.95,1.95 0 0 0 0.03906,0.002 1.95,1.95 0 0 0 0.04492,-0.002 1.95,1.95 0 0 0 0.03516,0.002 1.95,1.95 0 0 0 0.05078,-0.002 1.95,1.95 0 0 0 0.03906,0.002 1.95,1.95 0 0 0 0.04102,-0.002 1.95,1.95 0 0 0 0.03906,0.002 1.95,1.95 0 0 0 0.04492,-0.002 1.95,1.95 0 0 0 0.03516,0.002 1.95,1.95 0 0 0 0.04102,-0.002 1.95,1.95 0 0 0 0.03906,0.002 1.95,1.95 0 0 0 0.04492,-0.002 1.95,1.95 0 0 0 0.03516,0.002 1.95,1.95 0 0 0 0.04883,-0.002 1.95,1.95 0 0 0 0.04102,0.002 1.95,1.95 0 0 0 0.04297,-0.002 1.95,1.95 0 0 0 0.03711,0.002 1.95,1.95 0 0 0 0.04492,-0.002 1.95,1.95 0 0 0 0.03516,0.002 1.95,1.95 0 0 0 0.04297,-0.002 1.95,1.95 0 0 0 0.03711,0.002 1.95,1.95 0 0 0 0.04883,-0.002 1.95,1.95 0 0 0 0.04102,0.002 1.95,1.95 0 0 0 0.04492,-0.002 1.95,1.95 0 0 0 0.03516,0.002 1.95,1.95 0 0 0 0.04297,-0.002 1.95,1.95 0 0 0 0.03711,0.002 1.95,1.95 0 0 0 0.04297,-0.002 1.95,1.95 0 0 0 0.03711,0.002 1.95,1.95 0 0 0 0.04883,-0.002 1.95,1.95 0 0 0 0.04102,0.002 1.95,1.95 0 0 0 0.04297,-0.002 1.95,1.95 0 0 0 0.03711,0.002 1.95,1.95 0 0 0 0.04297,-0.002 1.95,1.95 0 0 0 0.03711,0.002 1.95,1.95 0 0 0 0.04492,-0.002 1.95,1.95 0 0 0 0.03516,0.002 1.95,1.95 0 0 0 0.04297,-0.002 1.95,1.95 0 0 0 0.03711,0.002 1.95,1.95 0 0 0 0.04883,-0.002 1.95,1.95 0 0 0 0.04102,0.002 1.95,1.95 0 0 0 0.04102,-0.002 1.95,1.95 0 0 0 0.03906,0.002 1.95,1.95 0 0 0 0.04492,-0.002 1.95,1.95 0 0 0 0.03516,0.002 1.95,1.95 0 0 0 0.04297,-0.002 1.95,1.95 0 0 0 0.03711,0.002 1.95,1.95 0 0 0 0.04883,-0.002 1.95,1.95 0 0 0 0.04102,0.002 1.95,1.95 0 0 0 0.04102,-0.002 1.95,1.95 0 0 0 0.03906,0.002 1.95,1.95 0 0 0 0.04492,-0.002 1.95,1.95 0 0 0 0.03516,0.002 1.95,1.95 0 0 0 0.04297,-0.002 1.95,1.95 0 0 0 0.03711,0.002 1.95,1.95 0 0 0 0.04687,-0.002 1.95,1.95 0 0 0 0.04297,0.002 1.95,1.95 0 0 0 0.04297,-0.002 1.95,1.95 0 0 0 0.03711,0.002 1.95,1.95 0 0 0 0.04102,-0.002 1.95,1.95 0 0 0 0.03906,0.002 1.95,1.95 0 0 0 0.04492,-0.002 1.95,1.95 0 0 0 0.03516,0.002 1.95,1.95 0 0 0 0.04883,-0.002 1.95,1.95 0 0 0 0.04102,0.002 1.95,1.95 0 0 0 0.04297,-0.002 1.95,1.95 0 0 0 0.03711,0.002 1.95,1.95 0 0 0 0.04492,-0.002 1.95,1.95 0 0 0 0.03516,0.002 1.95,1.95 0 0 0 0.04102,-0.002 1.95,1.95 0 0 0 0.03906,0.002 1.95,1.95 0 0 0 0.04492,-0.002 1.95,1.95 0 0 0 0.03516,0.002 1.95,1.95 0 0 0 0.04883,-0.002 1.95,1.95 0 0 0 0.04102,0.002 1.95,1.95 0 0 0 0.04297,-0.002 1.95,1.95 0 0 0 0.03711,0.002 1.95,1.95 0 0 0 0.04492,-0.002 1.95,1.95 0 0 0 0.03516,0.002 1.95,1.95 0 0 0 0.04297,-0.002 1.95,1.95 0 0 0 0.03711,0.002 1.95,1.95 0 0 0 0.04883,-0.002 1.95,1.95 0 0 0 0.04102,0.002 1.95,1.95 0 0 0 0.04297,-0.002 1.95,1.95 0 0 0 0.03711,0.002 1.95,1.95 0 0 0 0.04297,-0.002 1.95,1.95 0 0 0 0.03711,0.002 1.95,1.95 0 0 0 0.04297,-0.002 1.95,1.95 0 0 0 0.03516,0.002 1.95,1.95 0 0 0 0.05078,-0.002 1.95,1.95 0 0 0 0.04102,0.002 1.95,1.95 0 0 0 0.04102,-0.002 1.95,1.95 0 0 0 0.03906,0.002 1.95,1.95 0 0 0 0.04297,-0.002 1.95,1.95 0 0 0 0.03516,0.002 1.95,1.95 0 0 0 0.04297,-0.002 1.95,1.95 0 0 0 0.03711,0.002 1.95,1.95 0 0 0 0.04297,-0.002 1.95,1.95 0 0 0 0.03711,0.002 1.95,1.95 0 0 0 0.04883,-0.002 1.95,1.95 0 0 0 0.04102,0.002 1.95,1.95 0 0 0 0.04492,-0.002 1.95,1.95 0 0 0 0.03516,0.002 1.95,1.95 0 0 0 0.04102,-0.002 1.95,1.95 0 0 0 0.03906,0.002 1.95,1.95 0 0 0 0.04297,-0.002 1.95,1.95 0 0 0 0.03711,0.002 1.95,1.95 0 0 0 0.04883,-0.002 1.95,1.95 0 0 0 0.04102,0.002 1.95,1.95 0 0 0 0.04297,-0.002 1.95,1.95 0 0 0 0.03711,0.002 1.95,1.95 0 0 0 0.04102,-0.002 1.95,1.95 0 0 0 0.03906,0.002 1.95,1.95 0 0 0 0.04297,-0.002 1.95,1.95 0 0 0 0.03711,0.002 1.95,1.95 0 0 0 0.04883,-0.002 1.95,1.95 0 0 0 0.04102,0.002 1.95,1.95 0 0 0 0.04297,-0.002 1.95,1.95 0 0 0 0.03711,0.002 1.95,1.95 0 0 0 0.04297,-0.002 1.95,1.95 0 0 0 0.03711,0.002 1.95,1.95 0 0 0 0.04297,-0.002 1.95,1.95 0 0 0 0.03711,0.002 1.95,1.95 0 0 0 0.04883,-0.002 1.95,1.95 0 0 0 0.04102,0.002 1.95,1.95 0 0 0 0.04297,-0.002 1.95,1.95 0 0 0 0.03711,0.002 1.95,1.95 0 0 0 0.04297,-0.002 1.95,1.95 0 0 0 0.03711,0.002 1.95,1.95 0 0 0 0.04687,-0.002 1.95,1.95 0 0 0 0.0332,0.002 1.95,1.95 0 0 0 0.04297,-0.002 1.95,1.95 0 0 0 0.03711,0.002 1.95,1.95 0 0 0 0.04883,-0.002 1.95,1.95 0 0 0 0.04102,0.002 1.95,1.95 0 0 0 0.04492,-0.002 1.95,1.95 0 0 0 0.03516,0.002 1.95,1.95 0 0 0 0.04102,-0.002 1.95,1.95 0 0 0 0.03906,0.002 1.95,1.95 0 0 0 0.04297,-0.002 1.95,1.95 0 0 0 0.03711,0.002 1.95,1.95 0 0 0 0.04883,-0.002 1.95,1.95 0 0 0 0.04102,0.002 1.95,1.95 0 0 0 0.04492,-0.002 1.95,1.95 0 0 0 0.03516,0.002 1.95,1.95 0 0 0 0.04102,-0.002 1.95,1.95 0 0 0 0.03906,0.002 1.95,1.95 0 0 0 0.04492,-0.002 1.95,1.95 0 0 0 0.03516,0.002 1.95,1.95 0 0 0 0.04883,-0.002 1.95,1.95 0 0 0 0.04102,0.002 1.95,1.95 0 0 0 0.04297,-0.002 1.95,1.95 0 0 0 0.03711,0.002 1.95,1.95 0 0 0 0.04102,-0.002 1.95,1.95 0 0 0 0.03906,0.002 1.95,1.95 0 0 0 0.04492,-0.002 1.95,1.95 0 0 0 0.03516,0.002 1.95,1.95 0 0 0 0.04297,-0.002 1.95,1.95 0 0 0 0.03711,0.002 1.95,1.95 0 0 0 0.04883,-0.002 1.95,1.95 0 0 0 0.04102,0.002 1.95,1.95 0 0 0 0.04102,-0.002 1.95,1.95 0 0 0 0.03906,0.002 1.95,1.95 0 0 0 0.04492,-0.002 1.95,1.95 0 0 0 0.03516,0.002 1.95,1.95 0 0 0 0.04297,-0.002 1.95,1.95 0 0 0 0.03711,0.002 1.95,1.95 0 0 0 0.04883,-0.002 1.95,1.95 0 0 0 0.04102,0.002 1.95,1.95 0 0 0 0.04297,-0.002 1.95,1.95 0 0 0 0.03711,0.002 1.95,1.95 0 0 0 0.04297,-0.002 1.95,1.95 0 0 0 0.03711,0.002 1.95,1.95 0 0 0 0.04297,-0.002 1.95,1.95 0 0 0 0.03711,0.002 1.95,1.95 0 0 0 0.04883,-0.002 1.95,1.95 0 0 0 0.04102,0.002 1.95,1.95 0 0 0 0.04297,-0.002 1.95,1.95 0 0 0 0.03711,0.002 1.95,1.95 0 0 0 0.04102,-0.002 1.95,1.95 0 0 0 0.03906,0.002 1.95,1.95 0 0 0 0.04492,-0.002 1.95,1.95 0 0 0 0.03516,0.002 1.95,1.95 0 0 0 0.04297,-0.002 1.95,1.95 0 0 0 0.03711,0.002 1.95,1.95 0 0 0 0.04883,-0.002 1.95,1.95 0 0 0 0.04102,0.002 1.95,1.95 0 0 0 0.04297,-0.002 1.95,1.95 0 0 0 0.03711,0.002 1.95,1.95 0 0 0 0.04102,-0.002 1.95,1.95 0 0 0 0.03906,0.002 1.95,1.95 0 0 0 0.04492,-0.002 1.95,1.95 0 0 0 0.03516,0.002 1.95,1.95 0 0 0 0.04688,-0.002 1.95,1.95 0 0 0 0.04297,0.002 1.95,1.95 0 0 0 0.04297,-0.002 1.95,1.95 0 0 0 0.03711,0.002 1.95,1.95 0 0 0 0.04102,-0.002 1.95,1.95 0 0 0 0.03906,0.002 1.95,1.95 0 0 0 0.04492,-0.002 1.95,1.95 0 0 0 0.03516,0.002 1.95,1.95 0 0 0 0.04883,-0.002 1.95,1.95 0 0 0 0.04102,0.002 1.95,1.95 0 0 0 0.04297,-0.002 1.95,1.95 0 0 0 0.03711,0.002 1.95,1.95 0 0 0 0.04102,-0.002 1.95,1.95 0 0 0 0.03906,0.002 1.95,1.95 0 0 0 0.04297,-0.002 1.95,1.95 0 0 0 0.03711,0.002 1.95,1.95 0 0 0 0.04883,-0.002 1.95,1.95 0 0 0 0.04102,0.002 1.95,1.95 0 0 0 0.04102,-0.002 1.95,1.95 0 0 0 0.03906,0.002 1.95,1.95 0 0 0 0.04297,-0.002 1.95,1.95 0 0 0 0.03711,0.002 1.95,1.95 0 0 0 0.04492,-0.002 1.95,1.95 0 0 0 0.03516,0.002 1.95,1.95 0 0 0 0.04297,-0.002 1.95,1.95 0 0 0 0.03711,0.002 1.95,1.95 0 0 0 0.04883,-0.002 1.95,1.95 0 0 0 0.04102,0.002 1.95,1.95 0 0 0 0.04297,-0.002 1.95,1.95 0 0 0 0.03711,0.002 1.95,1.95 0 0 0 0.04297,-0.002 1.95,1.95 0 0 0 0.03711,0.002 1.95,1.95 0 0 0 0.04297,-0.002 1.95,1.95 0 0 0 0.03711,0.002 1.95,1.95 0 0 0 0.04883,-0.002 1.95,1.95 0 0 0 0.04102,0.002 1.95,1.95 0 0 0 0.04297,-0.002 1.95,1.95 0 0 0 0.03711,0.002 1.95,1.95 0 0 0 0.04102,-0.002 1.95,1.95 0 0 0 0.03906,0.002 1.95,1.95 0 0 0 0.04492,-0.002 1.95,1.95 0 0 0 0.03516,0.002 1.95,1.95 0 0 0 0.04883,-0.002 1.95,1.95 0 0 0 0.04102,0.002 1.95,1.95 0 0 0 0.04102,-0.002 1.95,1.95 0 0 0 0.03906,0.002 1.95,1.95 0 0 0 0.04297,-0.002 1.95,1.95 0 0 0 0.03711,0.002 1.95,1.95 0 0 0 0.04102,-0.002 1.95,1.95 0 0 0 0.03906,0.002 1.95,1.95 0 0 0 0.04492,-0.002 1.95,1.95 0 0 0 0.03516,0.002 1.95,1.95 0 0 0 0.04687,-0.002 1.95,1.95 0 0 0 0.04297,0.002 1.95,1.95 0 0 0 0.04297,-0.002 1.95,1.95 0 0 0 0.03711,0.002 1.95,1.95 0 0 0 0.04297,-0.002 1.95,1.95 0 0 0 0.03711,0.002 1.95,1.95 0 0 0 0.04297,-0.002 1.95,1.95 0 0 0 0.03516,0.002 1.95,1.95 0 0 0 0.04883,-0.002 1.95,1.95 0 0 0 0.04297,0.002 1.95,1.95 0 0 0 0.04297,-0.002 1.95,1.95 0 0 0 0.03711,0.002 1.95,1.95 0 0 0 0.04297,-0.002 1.95,1.95 0 0 0 0.03516,0.002 1.95,1.95 0 0 0 0.04297,-0.002 1.95,1.95 0 0 0 0.03711,0.002 1.95,1.95 0 0 0 0.04883,-0.002 1.95,1.95 0 0 0 0.04297,0.002 1.95,1.95 0 0 0 0.04297,-0.002 1.95,1.95 0 0 0 0.03516,0.002 1.95,1.95 0 0 0 0.04297,-0.002 1.95,1.95 0 0 0 0.03711,0.002 1.95,1.95 0 0 0 0.04297,-0.002 1.95,1.95 0 0 0 0.03711,0.002 1.95,1.95 0 0 0 0.04883,-0.002 1.95,1.95 0 0 0 0.04102,0.002 1.95,1.95 0 0 0 0.04297,-0.002 1.95,1.95 0 0 0 0.03711,0.002 1.95,1.95 0 0 0 0.04297,-0.002 1.95,1.95 0 0 0 0.03711,0.002 1.95,1.95 0 0 0 0.04297,-0.002 1.95,1.95 0 0 0 0.03711,0.002 1.95,1.95 0 0 0 0.043,-0.002 1.95,1.95 0 0 0 0.0371,0.002 1.95,1.95 0 0 0 0.0488,-0.002 1.95,1.95 0 0 0 0.041,0.002 1.95,1.95 0 0 0 0.043,-0.002 1.95,1.95 0 0 0 0.0371,0.002 1.95,1.95 0 0 0 0.0449,-0.002 1.95,1.95 0 0 0 0.0352,0.002 1.95,1.95 0 0 0 0.043,-0.002 1.95,1.95 0 0 0 0.0371,0.002 1.95,1.95 0 0 0 0.0488,-0.002 1.95,1.95 0 0 0 0.041,0.002 1.95,1.95 0 0 0 0.043,-0.002 1.95,1.95 0 0 0 0.0371,0.002 1.95,1.95 0 0 0 0.0449,-0.002 1.95,1.95 0 0 0 0.0351,0.002 1.95,1.95 0 0 0 0.043,-0.002 1.95,1.95 0 0 0 0.0371,0.002 1.95,1.95 0 0 0 0.0469,-0.002 1.95,1.95 0 0 0 0.043,0.002 1.95,1.95 0 0 0 0.043,-0.002 1.95,1.95 0 0 0 0.0371,0.002 1.95,1.95 0 0 0 0.0449,-0.002 1.95,1.95 0 0 0 0.0352,0.002 1.95,1.95 0 0 0 0.043,-0.002 1.95,1.95 0 0 0 0.0371,0.002 1.95,1.95 0 0 0 0.043,-0.002 1.95,1.95 0 0 0 0.0371,0.002 1.95,1.95 0 0 0 0.0488,-0.002 1.95,1.95 0 0 0 0.041,0.002 1.95,1.95 0 0 0 0.043,-0.002 1.95,1.95 0 0 0 0.0371,0.002 1.95,1.95 0 0 0 0.043,-0.002 1.95,1.95 0 0 0 0.0371,0.002 1.95,1.95 0 0 0 0.043,-0.002 1.95,1.95 0 0 0 0.0371,0.002 1.95,1.95 0 0 0 0.0488,-0.002 1.95,1.95 0 0 0 0.041,0.002 1.95,1.95 0 0 0 0.043,-0.002 1.95,1.95 0 0 0 0.0371,0.002 1.95,1.95 0 0 0 0.041,-0.002 1.95,1.95 0 0 0 0.0391,0.002 1.95,1.95 0 0 0 0.043,-0.002 1.95,1.95 0 0 0 0.0371,0.002 1.95,1.95 0 0 0 0.0508,-0.002 1.95,1.95 0 0 0 0.0391,0.002 1.95,1.95 0 0 0 0.043,-0.002 1.95,1.95 0 0 0 0.0371,0.002 1.95,1.95 0 0 0 0.043,-0.002 1.95,1.95 0 0 0 0.0371,0.002 1.95,1.95 0 0 0 0.043,-0.002 1.95,1.95 0 0 0 0.0371,0.002 1.95,1.95 0 0 0 0.0488,-0.002 1.95,1.95 0 0 0 0.041,0.002 1.95,1.95 0 0 0 0.043,-0.002 1.95,1.95 0 0 0 0.0371,0.002 1.95,1.95 0 0 0 0.0449,-0.002 1.95,1.95 0 0 0 0.0352,0.002 1.95,1.95 0 0 0 0.043,-0.002 1.95,1.95 0 0 0 0.0371,0.002 1.95,1.95 0 0 0 0.043,-0.002 1.95,1.95 0 0 0 0.0371,0.002 1.95,1.95 0 0 0 0.0488,-0.002 1.95,1.95 0 0 0 0.041,0.002 1.95,1.95 0 0 0 0.043,-0.002 1.95,1.95 0 0 0 0.0371,0.002 1.95,1.95 0 0 0 0.043,-0.002 1.95,1.95 0 0 0 0.0371,0.002 1.95,1.95 0 0 0 0.0469,-0.002 1.95,1.95 0 0 0 0.0332,0.002 1.95,1.95 0 0 0 0.0488,-0.002 1.95,1.95 0 0 0 0.041,0.002 1.95,1.95 0 0 0 0.043,-0.002 1.95,1.95 0 0 0 0.0371,0.002 1.95,1.95 0 0 0 0.0449,-0.002 1.95,1.95 0 0 0 0.0352,0.002 1.95,1.95 0 0 0 0.043,-0.002 1.95,1.95 0 0 0 0.0371,0.002 1.95,1.95 0 0 0 0.0488,-0.002 1.95,1.95 0 0 0 0.041,0.002 1.95,1.95 0 0 0 0.041,-0.002 1.95,1.95 0 0 0 0.0391,0.002 1.95,1.95 0 0 0 0.0449,-0.002 1.95,1.95 0 0 0 0.0352,0.002 1.95,1.95 0 0 0 0.041,-0.002 1.95,1.95 0 0 0 0.0391,0.002 1.95,1.95 0 0 0 0.043,-0.002 1.95,1.95 0 0 0 0.0371,0.002 1.95,1.95 0 0 0 0.0488,-0.002 1.95,1.95 0 0 0 0.041,0.002 1.95,1.95 0 0 0 0.043,-0.002 1.95,1.95 0 0 0 0.0371,0.002 1.95,1.95 0 0 0 0.043,-0.002 1.95,1.95 0 0 0 0.0371,0.002 1.95,1.95 0 0 0 0.0449,-0.002 1.95,1.95 0 0 0 0.0352,0.002 1.95,1.95 0 0 0 0.0488,-0.002 1.95,1.95 0 0 0 0.041,0.002 1.95,1.95 0 0 0 0.043,-0.002 1.95,1.95 0 0 0 0.0371,0.002 1.95,1.95 0 0 0 0.043,-0.002 1.95,1.95 0 0 0 0.0371,0.002 1.95,1.95 0 0 0 0.043,-0.002 1.95,1.95 0 0 0 0.0371,0.002 1.95,1.95 0 0 0 0.0488,-0.002 1.95,1.95 0 0 0 0.041,0.002 1.95,1.95 0 0 0 0.043,-0.002 1.95,1.95 0 0 0 0.0371,0.002 1.95,1.95 0 0 0 0.041,-0.002 1.95,1.95 0 0 0 0.0391,0.002 1.95,1.95 0 0 0 0.043,-0.002 1.95,1.95 0 0 0 0.0371,0.002 1.95,1.95 0 0 0 0.0449,-0.002 1.95,1.95 0 0 0 0.0351,0.002 1.95,1.95 0 0 0 0.0488,-0.002 1.95,1.95 0 0 0 0.041,0.002 1.95,1.95 0 0 0 0.043,-0.002 1.95,1.95 0 0 0 0.0371,0.002 1.95,1.95 0 0 0 0.041,-0.002 1.95,1.95 0 0 0 0.0391,0.002 1.95,1.95 0 0 0 0.0449,-0.002 1.95,1.95 0 0 0 0.0352,0.002 1.95,1.95 0 0 0 0.0469,-0.002 1.95,1.95 0 0 0 0.043,0.002 1.95,1.95 0 0 0 0.043,-0.002 1.95,1.95 0 0 0 0.0371,0.002 1.95,1.95 0 0 0 0.043,-0.002 1.95,1.95 0 0 0 0.0371,0.002 1.95,1.95 0 0 0 0.043,-0.002 1.95,1.95 0 0 0 0.0371,0.002 1.95,1.95 0 0 0 0.0469,-0.002 1.95,1.95 0 0 0 0.043,0.002 1.95,1.95 0 0 0 0.043,-0.002 1.95,1.95 0 0 0 0.0371,0.002 1.95,1.95 0 0 0 0.0449,-0.002 1.95,1.95 0 0 0 0.0352,0.002 1.95,1.95 0 0 0 0.043,-0.002 1.95,1.95 0 0 0 0.0371,0.002 1.95,1.95 0 0 0 0.0488,-0.002 1.95,1.95 0 0 0 0.041,0.002 1.95,1.95 0 0 0 0.043,-0.002 1.95,1.95 0 0 0 0.0371,0.002 1.95,1.95 0 0 0 0.041,-0.002 1.95,1.95 0 0 0 0.0391,0.002 1.95,1.95 0 0 0 0.041,-0.002 1.95,1.95 0 0 0 0.0371,0.002 1.95,1.95 0 0 0 0.043,-0.002 1.95,1.95 0 0 0 0.0371,0.002 1.95,1.95 0 0 0 0.0488,-0.002 1.95,1.95 0 0 0 0.043,0.002 1.95,1.95 0 0 0 0.041,-0.002 1.95,1.95 0 0 0 0.0371,0.002 1.95,1.95 0 0 0 0.0449,-0.002 1.95,1.95 0 0 0 0.0352,0.002 1.95,1.95 0 0 0 0.043,-0.002 1.95,1.95 0 0 0 0.0371,0.002 1.95,1.95 0 0 0 0.0488,-0.002 1.95,1.95 0 0 0 0.041,0.002 1.95,1.95 0 0 0 0.043,-0.002 1.95,1.95 0 0 0 0.0371,0.002 1.95,1.95 0 0 0 0.041,-0.002 1.95,1.95 0 0 0 0.0391,0.002 1.95,1.95 0 0 0 0.043,-0.002 1.95,1.95 0 0 0 0.0371,0.002 1.95,1.95 0 0 0 0.0488,-0.002 1.95,1.95 0 0 0 0.041,0.002 1.95,1.95 0 0 0 0.043,-0.002 1.95,1.95 0 0 0 0.0371,0.002 1.95,1.95 0 0 0 0.043,-0.002 1.95,1.95 0 0 0 0.0371,0.002 1.95,1.95 0 0 0 0.0469,-0.002 1.95,1.95 0 0 0 0.0332,0.002 1.95,1.95 0 0 0 0.043,-0.002 1.95,1.95 0 0 0 0.0371,0.002 1.95,1.95 0 0 0 0.0488,-0.002 1.95,1.95 0 0 0 0.041,0.002 1.95,1.95 0 0 0 0.043,-0.002 1.95,1.95 0 0 0 0.0371,0.002 1.95,1.95 0 0 0 0.041,-0.002 1.95,1.95 0 0 0 0.0391,0.002 1.95,1.95 0 0 0 0.043,-0.002 1.95,1.95 0 0 0 0.0371,0.002 1.95,1.95 0 0 0 0.0488,-0.002 1.95,1.95 0 0 0 0.041,0.002 1.95,1.95 0 0 0 0.043,-0.002 1.95,1.95 0 0 0 0.0371,0.002 1.95,1.95 0 0 0 0.043,-0.002 1.95,1.95 0 0 0 0.0371,0.002 1.95,1.95 0 0 0 0.0449,-0.002 1.95,1.95 0 0 0 0.0352,0.002 1.95,1.95 0 0 0 0.0488,-0.002 1.95,1.95 0 0 0 0.041,0.002 1.95,1.95 0 0 0 0.043,-0.002 1.95,1.95 0 0 0 0.0371,0.002 1.95,1.95 0 0 0 0.041,-0.002 1.95,1.95 0 0 0 0.0391,0.002 1.95,1.95 0 0 0 0.043,-0.002 1.95,1.95 0 0 0 0.0371,0.002 1.95,1.95 0 0 0 0.0508,-0.002 1.95,1.95 0 0 0 0.0391,0.002 1.95,1.95 0 0 0 0.043,-0.002 1.95,1.95 0 0 0 0.0371,0.002 1.95,1.95 0 0 0 0.0449,-0.002 1.95,1.95 0 0 0 0.0352,0.002 1.95,1.95 0 0 0 0.041,-0.002 1.95,1.95 0 0 0 0.0391,0.002 1.95,1.95 0 0 0 0.0449,-0.002 1.95,1.95 0 0 0 0.0352,0.002 1.95,1.95 0 0 0 0.0508,-0.002 1.95,1.95 0 0 0 0.0391,0.002 1.95,1.95 0 0 0 0.043,-0.002 1.95,1.95 0 0 0 0.0371,0.002 1.95,1.95 0 0 0 0.043,-0.002 1.95,1.95 0 0 0 0.0371,0.002 1.95,1.95 0 0 0 0.0469,-0.002 1.95,1.95 0 0 0 0.0332,0.002 1.95,1.95 0 0 0 0.0488,-0.002 1.95,1.95 0 0 0 0.041,0.002 1.95,1.95 0 0 0 0.043,-0.002 1.95,1.95 0 0 0 0.0371,0.002 1.95,1.95 0 0 0 0.041,-0.002 1.95,1.95 0 0 0 0.0391,0.002 1.95,1.95 0 0 0 0.043,-0.002 1.95,1.95 0 0 0 0.0371,0.002 1.95,1.95 0 0 0 0.0488,-0.002 1.95,1.95 0 0 0 0.041,0.002 1.95,1.95 0 0 0 0.041,-0.002 1.95,1.95 0 0 0 0.0391,0.002 1.95,1.95 0 0 0 0.043,-0.002 1.95,1.95 0 0 0 0.0371,0.002 1.95,1.95 0 0 0 0.043,-0.002 1.95,1.95 0 0 0 0.0371,0.002 1.95,1.95 0 0 0 0.043,-0.002 1.95,1.95 0 0 0 0.0371,0.002 1.95,1.95 0 0 0 0.0488,-0.002 1.95,1.95 0 0 0 0.041,0.002 1.95,1.95 0 0 0 0.043,-0.002 1.95,1.95 0 0 0 0.0371,0.002 1.95,1.95 0 0 0 0.043,-0.002 1.95,1.95 0 0 0 0.0371,0.002 1.95,1.95 0 0 0 0.0469,-0.002 1.95,1.95 0 0 0 0.0332,0.002 1.95,1.95 0 0 0 0.0488,-0.002 1.95,1.95 0 0 0 0.041,0.002 1.95,1.95 0 0 0 0.043,-0.002 1.95,1.95 0 0 0 0.0371,0.002 1.95,1.95 0 0 0 0.0449,-0.002 1.95,1.95 0 0 0 0.0352,0.002 1.95,1.95 0 0 0 0.043,-0.002 1.95,1.95 0 0 0 0.0371,0.002 1.95,1.95 0 0 0 0.0488,-0.002 1.95,1.95 0 0 0 0.041,0.002 1.95,1.95 0 0 0 0.043,-0.002 1.95,1.95 0 0 0 0.0371,0.002 1.95,1.95 0 0 0 0.043,-0.002 1.95,1.95 0 0 0 0.0371,0.002 1.95,1.95 0 0 0 0.043,-0.002 1.95,1.95 0 0 0 0.0371,0.002 1.95,1.95 0 0 0 0.0488,-0.002 1.95,1.95 0 0 0 0.041,0.002 1.95,1.95 0 0 0 0.041,-0.002 1.95,1.95 0 0 0 0.0391,0.002 1.95,1.95 0 0 0 0.0449,-0.002 1.95,1.95 0 0 0 0.0352,0.002 1.95,1.95 0 0 0 0.041,-0.002 1.95,1.95 0 0 0 0.0391,0.002 1.95,1.95 0 0 0 0.0449,-0.002 1.95,1.95 0 0 0 0.0352,0.002 1.95,1.95 0 0 0 0.0488,-0.002 1.95,1.95 0 0 0 0.041,0.002 1.95,1.95 0 0 0 0.041,-0.002 1.95,1.95 0 0 0 0.0391,0.002 1.95,1.95 0 0 0 0.041,-0.002 1.95,1.95 0 0 0 0.0391,0.002 1.95,1.95 0 0 0 0.0449,-0.002 1.95,1.95 0 0 0 0.0352,0.002 1.95,1.95 0 0 0 0.0488,-0.002 1.95,1.95 0 0 0 0.041,0.002 1.95,1.95 0 0 0 0.041,-0.002 1.95,1.95 0 0 0 0.0391,0.002 1.95,1.95 0 0 0 0.041,-0.002 1.95,1.95 0 0 0 0.0391,0.002 1.95,1.95 0 0 0 0.0449,-0.002 1.95,1.95 0 0 0 0.0351,0.002 1.95,1.95 0 0 0 0.0488,-0.002 1.95,1.95 0 0 0 0.041,0.002 1.95,1.95 0 0 0 0.041,-0.002 1.95,1.95 0 0 0 0.0391,0.002 1.95,1.95 0 0 0 0.043,-0.002 1.95,1.95 0 0 0 0.0371,0.002 1.95,1.95 0 0 0 0.043,-0.002 1.95,1.95 0 0 0 0.0371,0.002 1.95,1.95 0 0 0 0.043,-0.002 1.95,1.95 0 0 0 0.0371,0.002 1.95,1.95 0 0 0 0.0488,-0.002 1.95,1.95 0 0 0 0.041,0.002 1.95,1.95 0 0 0 0.043,-0.002 1.95,1.95 0 0 0 0.0371,0.002 1.95,1.95 0 0 0 0.043,-0.002 1.95,1.95 0 0 0 0.0371,0.002 1.95,1.95 0 0 0 0.043,-0.002 1.95,1.95 0 0 0 0.0371,0.002 1.95,1.95 0 0 0 0.0488,-0.002 1.95,1.95 0 0 0 0.041,0.002 1.95,1.95 0 0 0 0.041,-0.002 1.95,1.95 0 0 0 0.0391,0.002 1.95,1.95 0 0 0 0.043,-0.002 1.95,1.95 0 0 0 0.0371,0.002 1.95,1.95 0 0 0 0.0449,-0.002 1.95,1.95 0 0 0 0.0332,0.002 1.95,1.95 0 0 0 0.0508,-0.002 1.95,1.95 0 0 0 0.041,0.002 1.95,1.95 0 0 0 0.043,-0.002 1.95,1.95 0 0 0 0.0371,0.002 1.95,1.95 0 0 0 0.041,-0.002 1.95,1.95 0 0 0 0.0371,0.002 1.95,1.95 0 0 0 0.043,-0.002 1.95,1.95 0 0 0 0.0371,0.002 1.95,1.95 0 0 0 0.0469,-0.002 1.95,1.95 0 0 0 0.0332,0.002 1.95,1.95 0 0 0 0.0488,-0.002 1.95,1.95 0 0 0 0.041,0.002 1.95,1.95 0 0 0 0.043,-0.002 1.95,1.95 0 0 0 0.0371,0.002 1.95,1.95 0 0 0 0.043,-0.002 1.95,1.95 0 0 0 0.0371,0.002 1.95,1.95 0 0 0 0.043,-0.002 1.95,1.95 0 0 0 0.0371,0.002 1.95,1.95 0 0 0 0.0488,-0.002 1.95,1.95 0 0 0 0.041,0.002 1.95,1.95 0 0 0 0.041,-0.002 1.95,1.95 0 0 0 0.0391,0.002 1.95,1.95 0 0 0 0.043,-0.002 1.95,1.95 0 0 0 0.0371,0.002 1.95,1.95 0 0 0 0.0449,-0.002 1.95,1.95 0 0 0 0.0352,0.002 1.95,1.95 0 0 0 0.0488,-0.002 1.95,1.95 0 0 0 0.041,0.002 1.95,1.95 0 0 0 0.043,-0.002 1.95,1.95 0 0 0 0.0371,0.002 1.95,1.95 0 0 0 0.043,-0.002 1.95,1.95 0 0 0 0.0371,0.002 1.95,1.95 0 0 0 0.043,-0.002 1.95,1.95 0 0 0 0.0371,0.002 1.95,1.95 0 0 0 0.0488,-0.002 1.95,1.95 0 0 0 0.041,0.002 1.95,1.95 0 0 0 0.043,-0.002 1.95,1.95 0 0 0 0.0371,0.002 1.95,1.95 0 0 0 0.043,-0.002 1.95,1.95 0 0 0 0.0371,0.002 1.95,1.95 0 0 0 0.0449,-0.002 1.95,1.95 0 0 0 0.0352,0.002 1.95,1.95 0 0 0 0.043,-0.002 1.95,1.95 0 0 0 0.0371,0.002 1.95,1.95 0 0 0 0.0469,-0.002 1.95,1.95 0 0 0 0.043,0.002 1.95,1.95 0 0 0 0.043,-0.002 1.95,1.95 0 0 0 0.0371,0.002 1.95,1.95 0 0 0 0.0449,-0.002 1.95,1.95 0 0 0 0.0352,0.002 1.95,1.95 0 0 0 0.043,-0.002 1.95,1.95 0 0 0 0.0371,0.002 1.95,1.95 0 0 0 0.0488,-0.002 1.95,1.95 0 0 0 0.041,0.002 1.95,1.95 0 0 0 0.0449,-0.002 1.95,1.95 0 0 0 0.0352,0.002 1.95,1.95 0 0 0 0.043,-0.002 1.95,1.95 0 0 0 0.0371,0.002 1.95,1.95 0 0 0 0.043,-0.002 1.95,1.95 0 0 0 0.0371,0.002 1.95,1.95 0 0 0 0.0488,-0.002 1.95,1.95 0 0 0 0.041,0.002 1.95,1.95 0 0 0 0.0449,-0.002 1.95,1.95 0 0 0 0.0352,0.002 1.95,1.95 0 0 0 0.043,-0.002 1.95,1.95 0 0 0 0.0371,0.002 1.95,1.95 0 0 0 0.043,-0.002 1.95,1.95 0 0 0 0.0371,0.002 1.95,1.95 0 0 0 0.043,-0.002 1.95,1.95 0 0 0 0.0371,0.002 1.95,1.95 0 0 0 0.0488,-0.002 1.95,1.95 0 0 0 0.041,0.002 1.95,1.95 0 0 0 0.0449,-0.002 1.95,1.95 0 0 0 0.0352,0.002 1.95,1.95 0 0 0 0.043,-0.002 1.95,1.95 0 0 0 0.0371,0.002 1.95,1.95 0 0 0 0.043,-0.002 1.95,1.95 0 0 0 0.0371,0.002 1.95,1.95 0 0 0 0.0488,-0.002 1.95,1.95 0 0 0 0.041,0.002 1.95,1.95 0 0 0 0.041,-0.002 1.95,1.95 0 0 0 0.0391,0.002 1.95,1.95 0 0 0 0.0449,-0.002 1.95,1.95 0 0 0 0.0352,0.002 1.95,1.95 0 0 0 0.043,-0.002 1.95,1.95 0 0 0 0.0371,0.002 1.95,1.95 0 0 0 0.0488,-0.002 1.95,1.95 0 0 0 0.041,0.002 1.95,1.95 0 0 0 0.043,-0.002 1.95,1.95 0 0 0 0.0371,0.002 1.95,1.95 0 0 0 0.041,-0.002 1.95,1.95 0 0 0 0.0391,0.002 1.95,1.95 0 0 0 0.043,-0.002 1.95,1.95 0 0 0 0.0371,0.002 1.95,1.95 0 0 0 0.0488,-0.002 1.95,1.95 0 0 0 0.041,0.002 1.95,1.95 0 0 0 0.043,-0.002 1.95,1.95 0 0 0 0.0371,0.002 1.95,1.95 0 0 0 0.041,-0.002 1.95,1.95 0 0 0 0.0391,0.002 1.95,1.95 0 0 0 0.041,-0.002 1.95,1.95 0 0 0 0.0391,0.002 1.95,1.95 0 0 0 0.0449,-0.002 1.95,1.95 0 0 0 0.0352,0.002 1.95,1.95 0 0 0 0.0488,-0.002 1.95,1.95 0 0 0 0.041,0.002 1.95,1.95 0 0 0 0.043,-0.002 1.95,1.95 0 0 0 0.0371,0.002 1.95,1.95 0 0 0 0.0449,-0.002 1.95,1.95 0 0 0 0.0352,0.002 1.95,1.95 0 0 0 0.043,-0.002 1.95,1.95 0 0 0 0.0371,0.002 1.95,1.95 0 0 0 0.0488,-0.002 1.95,1.95 0 0 0 0.041,0.002 1.95,1.95 0 0 0 0.043,-0.002 1.95,1.95 0 0 0 0.0371,0.002 1.95,1.95 0 0 0 0.0449,-0.002 1.95,1.95 0 0 0 0.0352,0.002 1.95,1.95 0 0 0 0.043,-0.002 1.95,1.95 0 0 0 0.0371,0.002 1.95,1.95 0 0 0 0.12891,-0.006 1.95,1.95 0 0 0 0.12109,0.006 1.95,1.95 0 0 0 0.041,-0.002 1.95,1.95 0 0 0 0.0391,0.002 1.95,1.95 0 0 0 0.0449,-0.002 1.95,1.95 0 0 0 0.0352,0.002 1.95,1.95 0 0 0 0.0488,-0.002 1.95,1.95 0 0 0 0.041,0.002 1.95,1.95 0 0 0 0.043,-0.002 1.95,1.95 0 0 0 0.0371,0.002 1.95,1.95 0 0 0 0.0449,-0.002 1.95,1.95 0 0 0 0.0352,0.002 1.95,1.95 0 0 0 0.041,-0.002 1.95,1.95 0 0 0 0.0391,0.002 1.95,1.95 0 0 0 0.0488,-0.002 1.95,1.95 0 0 0 0.041,0.002 1.95,1.95 0 0 0 0.043,-0.002 1.95,1.95 0 0 0 0.0371,0.002 1.95,1.95 0 0 0 0.0449,-0.002 1.95,1.95 0 0 0 0.0351,0.002 1.95,1.95 0 0 0 0.13477,-0.006 1.95,1.95 0 0 1 0.002,0 1.95,1.95 0 0 0 0.11328,0.006 1.95,1.95 0 0 0 0.041,-0.002 1.95,1.95 0 0 0 0.0391,0.002 1.95,1.95 0 0 0 0.0449,-0.002 1.95,1.95 0 0 0 0.0352,0.002 1.95,1.95 0 0 0 0.0488,-0.002 1.95,1.95 0 0 0 0.041,0.002 1.95,1.95 0 0 0 0.043,-0.002 1.95,1.95 0 0 0 0.0371,0.002 1.95,1.95 0 0 0 0.084,-0.004 1.95,1.95 0 0 0 0.0762,0.004 1.95,1.95 0 0 0 0.0449,-0.002 1.95,1.95 0 0 0 0.0332,0.002 1.95,1.95 0 0 0 0.0508,-0.002 1.95,1.95 0 0 0 0.041,0.002 1.95,1.95 0 0 0 0.043,-0.002 1.95,1.95 0 0 0 0.0371,0.002 1.95,1.95 0 0 0 0.043,-0.002 1.95,1.95 0 0 0 0.0352,0.002 1.95,1.95 0 0 0 0.043,-0.002 1.95,1.95 0 0 0 0.0371,0.002 1.95,1.95 0 0 0 0.0488,-0.002 1.95,1.95 0 0 0 0.043,0.002 1.95,1.95 0 0 0 0.0859,-0.004 1.95,1.95 0 0 0 0.0723,0.004 1.95,1.95 0 0 0 0.043,-0.002 1.95,1.95 0 0 0 0.0371,0.002 1.95,1.95 0 0 0 0.0488,-0.002 1.95,1.95 0 0 0 0.041,0.002 1.95,1.95 0 0 0 0.084,-0.004 1.95,1.95 0 0 0 0.0762,0.004 1.95,1.95 0 0 0 0.043,-0.002 1.95,1.95 0 0 0 0.0371,0.002 1.95,1.95 0 0 0 0.0449,-0.002 1.95,1.95 0 0 0 0.0352,0.002 1.95,1.95 0 0 0 0.0488,-0.002 1.95,1.95 0 0 0 0.041,0.002 1.95,1.95 0 0 0 0.043,-0.002 1.95,1.95 0 0 0 0.0371,0.002 1.95,1.95 0 0 0 0.0449,-0.002 1.95,1.95 0 0 0 0.0352,0.002 1.95,1.95 0 0 0 0.043,-0.002 1.95,1.95 0 0 0 0.0371,0.002 1.95,1.95 0 0 0 0.0488,-0.002 1.95,1.95 0 0 0 0.041,0.002 1.95,1.95 0 0 0 0.0879,-0.004 1.95,1.95 0 0 0 0.0723,0.004 1.95,1.95 0 0 0 0.043,-0.002 1.95,1.95 0 0 0 0.0371,0.002 1.95,1.95 0 0 0 0.0918,-0.004 1.95,1.95 0 0 0 0.0781,0.004 1.95,1.95 0 0 0 0.043,-0.002 1.95,1.95 0 0 0 0.0371,0.002 1.95,1.95 0 0 0 0.0937,-0.004 1.95,1.95 0 0 0 0.0762,0.004 1.95,1.95 0 0 0 0.043,-0.002 1.95,1.95 0 0 0 0.0371,0.002 1.95,1.95 0 0 0 0.043,-0.002 1.95,1.95 0 0 0 0.0371,0.002 1.95,1.95 0 0 0 0.13086,-0.006 1.95,1.95 0 0 0 0.11914,0.006 1.95,1.95 0 0 0 0.043,-0.002 1.95,1.95 0 0 0 0.0371,0.002 1.95,1.95 0 0 0 0.043,-0.002 1.95,1.95 0 0 0 0.0371,0.002 1.95,1.95 0 0 0 0.16015,-0.008 1.95,1.95 0 0 0 0.16992,0.008 1.95,1.95 0 0 0 0.043,-0.002 1.95,1.95 0 0 0 0.0371,0.002 1.95,1.95 0 0 0 0.0918,-0.004 1.95,1.95 0 0 0 0.0781,0.004 1.95,1.95 0 0 0 0.084,-0.004 1.95,1.95 0 0 0 0.0762,0.004 1.95,1.95 0 0 0 0.043,-0.002 1.95,1.95 0 0 0 0.0371,0.002 1.95,1.95 0 0 0 0.0488,-0.002 1.95,1.95 0 0 0 0.041,0.002 1.95,1.95 0 0 0 0.043,-0.002 1.95,1.95 0 0 0 0.0371,0.002 1.95,1.95 0 0 0 0.13477,-0.006 1.95,1.95 0 0 0 0.11523,0.006 1.95,1.95 0 0 0 0.16016,-0.008 1.95,1.95 0 0 0 0.16992,0.008 1.95,1.95 0 0 0 0.19531,-0.0137 1.95,1.95 0 0 0 0.21484,0.0137 1.95,1.95 0 0 0 0.041,-0.002 1.95,1.95 0 0 0 0.0391,0.002 1.95,1.95 0 0 0 0.0449,-0.002 1.95,1.95 0 0 0 0.0352,0.002 1.95,1.95 0 0 0 0.19531,-0.0137 1.95,1.95 0 0 0 0.21485,0.0137 1.95,1.95 0 0 0 0.13476,-0.006 1.95,1.95 0 0 1 0.002,0 1.95,1.95 0 0 0 0.11328,0.006 1.95,1.95 0 0 0 0.043,-0.002 1.95,1.95 0 0 0 0.0371,0.002 1.95,1.95 0 0 0 0.0938,-0.004 1.95,1.95 0 0 0 0.0762,0.004 1.95,1.95 0 0 0 0.19531,-0.0137 1.95,1.95 0 0 0 0.21484,0.0137 1.95,1.95 0 0 0 0.13477,-0.006 1.95,1.95 0 0 1 0.002,0 1.95,1.95 0 0 0 0.11328,0.006 1.95,1.95 0 0 0 0.0859,-0.004 1.95,1.95 0 0 0 0.0742,0.004 1.95,1.95 0 0 0 0.19336,-0.0137 1.95,1.95 0 0 0 0.21484,0.0137 1.95,1.95 0 0 0 0.043,-0.002 1.95,1.95 0 0 0 0.0371,0.002 1.95,1.95 0 0 0 0.13672,-0.006 1.95,1.95 0 0 1 0.002,0 1.95,1.95 0 0 0 0.11133,0.006 1.95,1.95 0 0 0 0.043,-0.002 1.95,1.95 0 0 0 0.0371,0.002 1.95,1.95 0 0 0 0.13086,-0.006 1.95,1.95 0 0 0 0.11914,0.006 1.95,1.95 0 0 0 0.043,-0.002 1.95,1.95 0 0 0 0.0371,0.002 1.95,1.95 0 0 0 0.0488,-0.002 1.95,1.95 0 0 0 0.041,0.002 1.95,1.95 0 0 0 0.0449,-0.002 1.95,1.95 0 0 0 0.0352,0.002 1.95,1.95 0 0 0 0.0859,-0.004 1.95,1.95 0 0 0 0.0742,0.004 1.95,1.95 0 0 0 0.0508,-0.002 1.95,1.95 0 0 0 0.0391,0.002 1.95,1.95 0 0 0 0.13086,-0.006 1.95,1.95 0 0 0 0.10937,0.006 1.95,1.95 0 0 0 0.043,-0.002 1.95,1.95 0 0 0 0.0371,0.002 1.95,1.95 0 0 0 0.0937,-0.004 1.95,1.95 0 0 0 0.0762,0.004 1.95,1.95 0 0 0 0.40625,-0.0469 1.95,1.95 0 0 0 0.41407,0.0469 1.95,1.95 0 0 0 0.16015,-0.008 1.95,1.95 0 0 0 0.16992,0.008 1.95,1.95 0 0 0 0.2461,-0.0195 1.95,1.95 0 0 0 0.2539,0.0195 1.95,1.95 0 0 0 0.16016,-0.008 1.95,1.95 0 0 0 0.16992,0.008 1.95,1.95 0 0 0 0.65625,-0.11524 1.95,1.95 0 0 0 0.6543,0.11524 1.95,1.95 0 0 0 1.94922,-1.95117 1.95,1.95 0 0 0 -1.39844,-1.86915 1.95,1.95 0 0 0 1.06836,-1.74023 1.95,1.95 0 0 0 -1.94922,-1.95117 1.95,1.95 0 0 0 -1.95117,1.95117 1.95,1.95 0 0 0 0.93359,1.66211 1.95,1.95 0 0 0 -0.13476,0.006 1.95,1.95 0 0 0 -0.15821,-0.008 1.95,1.95 0 0 0 -0.25195,0.0176 1.95,1.95 0 0 0 -0.24805,-0.0176 1.95,1.95 0 0 0 -0.17187,0.008 1.95,1.95 0 0 0 -0.1582,-0.008 1.95,1.95 0 0 0 -0.40821,0.0449 1.95,1.95 0 0 0 -0.41211,-0.0449 1.95,1.95 0 0 0 -0.10742,0.004 1.95,1.95 0 0 0 -0.0625,-0.004 1.95,1.95 0 0 0 -0.0527,0.002 1.95,1.95 0 0 0 -0.0274,-0.002 1.95,1.95 0 0 0 -0.14453,0.004 1.95,1.95 0 0 0 -0.0957,-0.004 1.95,1.95 0 0 0 -0.0566,0.002 1.95,1.95 0 0 0 -0.0332,-0.002 1.95,1.95 0 0 0 -0.10547,0.004 1.95,1.95 0 0 0 -0.0547,-0.004 1.95,1.95 0 0 0 -0.0508,0.002 1.95,1.95 0 0 0 -0.0293,-0.002 1.95,1.95 0 0 0 -0.0527,0.002 1.95,1.95 0 0 0 -0.0371,-0.002 1.95,1.95 0 0 0 -0.0566,0.002 1.95,1.95 0 0 0 -0.0234,-0.002 1.95,1.95 0 0 0 -0.14649,0.006 1.95,1.95 0 0 0 -0.10351,-0.006 1.95,1.95 0 0 0 -0.0508,0.002 1.95,1.95 0 0 0 -0.0293,-0.002 1.95,1.95 0 0 0 -0.14648,0.006 1.95,1.95 0 0 0 -0.0664,-0.004 1.95,1.95 0 0 0 0.93359,-1.66211 1.95,1.95 0 0 0 -1.94922,-1.95117 1.95,1.95 0 0 0 -1.95117,1.95117 1.95,1.95 0 0 0 0.94532,1.66797 1.95,1.95 0 0 0 -0.0273,0.004 1.95,1.95 0 0 0 -0.20703,-0.0117 1.95,1.95 0 0 0 -0.0586,0.002 1.95,1.95 0 0 0 -0.0215,-0.002 1.95,1.95 0 0 0 -0.043,0.002 1.95,1.95 0 0 0 -0.0371,-0.002 1.95,1.95 0 0 0 -0.20312,0.0117 1.95,1.95 0 0 0 -0.20703,-0.0117 1.95,1.95 0 0 0 -0.17188,0.008 1.95,1.95 0 0 0 -0.1582,-0.008 1.95,1.95 0 0 0 -0.14844,0.006 1.95,1.95 0 0 0 -0.10156,-0.006 1.95,1.95 0 0 0 -0.0469,0.002 1.95,1.95 0 0 0 -0.0332,-0.002 1.95,1.95 0 0 0 -0.0625,0.002 1.95,1.95 0 0 0 -0.0273,-0.002 1.95,1.95 0 0 0 -0.0508,0.002 1.95,1.95 0 0 0 -0.0293,-0.002 1.95,1.95 0 0 0 -0.10156,0.002 1.95,1.95 0 0 0 -0.0586,-0.002 1.95,1.95 0 0 0 -0.10742,0.004 1.95,1.95 0 0 0 -0.0625,-0.004 1.95,1.95 0 0 0 -0.0508,0.002 1.95,1.95 0 0 0 -0.0293,-0.002 1.95,1.95 0 0 0 -0.17187,0.008 1.95,1.95 0 0 0 -0.1582,-0.008 1.95,1.95 0 0 0 -0.0508,0.002 1.95,1.95 0 0 0 -0.0293,-0.002 1.95,1.95 0 0 0 -0.0508,0.002 1.95,1.95 0 0 0 -0.0293,-0.002 1.95,1.95 0 0 0 -0.14649,0.006 1.95,1.95 0 0 0 -0.10351,-0.006 1.95,1.95 0 0 0 -0.0508,0.002 1.95,1.95 0 0 0 -0.0293,-0.002 1.95,1.95 0 0 0 -0.0508,0.002 1.95,1.95 0 0 0 -0.0293,-0.002 1.95,1.95 0 0 0 -0.10742,0.004 1.95,1.95 0 0 0 -0.0625,-0.004 1.95,1.95 0 0 0 -0.0527,0.002 1.95,1.95 0 0 0 -0.0274,-0.002 1.95,1.95 0 0 0 -0.10742,0.004 1.95,1.95 0 0 0 -0.0625,-0.004 1.95,1.95 0 0 0 -0.0508,0.002 1.95,1.95 0 0 0 -0.0293,-0.002 1.95,1.95 0 0 0 -0.10156,0.002 1.95,1.95 0 0 0 -0.0586,-0.002 1.95,1.95 0 0 0 -0.0527,0.002 1.95,1.95 0 0 0 -0.0371,-0.002 1.95,1.95 0 0 0 -0.0547,0.002 1.95,1.95 0 0 0 -0.0254,-0.002 1.95,1.95 0 0 0 -0.0508,0.002 1.95,1.95 0 0 0 -0.0293,-0.002 1.95,1.95 0 0 0 -0.0469,0.002 1.95,1.95 0 0 0 -0.0332,-0.002 1.95,1.95 0 0 0 -0.0644,0.002 1.95,1.95 0 0 0 -0.0254,-0.002 1.95,1.95 0 0 0 -0.0586,0.002 1.95,1.95 0 0 0 -0.0215,-0.002 1.95,1.95 0 0 0 -0.043,0.002 1.95,1.95 0 0 0 -0.0371,-0.002 1.95,1.95 0 0 0 -0.0508,0.002 1.95,1.95 0 0 0 0.93164,-1.66211 1.95,1.95 0 0 0 -0.0566,-0.46094 1.95,1.95 0 0 0 1.94726,-1.94922 1.95,1.95 0 0 0 -1.95117,-1.95117 1.95,1.95 0 0 0 -0.90625,0.22461 1.95,1.95 0 0 0 -0.57226,-0.19336 1.95,1.95 0 0 0 -1.81055,-1.23047 1.95,1.95 0 0 0 -0.043,0.002 1.95,1.95 0 0 0 -0.0371,-0.002 1.95,1.95 0 0 0 -1.87305,1.41211 1.95,1.95 0 0 1 -0.002,0 1.95,1.95 0 0 0 -0.91992,1.00196 1.95,1.95 0 0 0 -0.5,0.084 1.95,1.95 0 0 0 -0.57617,-0.0879 1.95,1.95 0 0 0 -0.15821,0.008 1.95,1.95 0 0 0 -0.17187,-0.008 1.95,1.95 0 0 0 -0.32422,0.0293 1.95,1.95 0 0 0 -0.83789,-0.97266 1.95,1.95 0 0 0 -0.0332,-0.11328 1.95,1.95 0 0 0 0.0957,-0.60352 1.95,1.95 0 0 0 -0.0937,-0.58789 1.95,1.95 0 0 0 1.25391,-1.82226 1.95,1.95 0 0 0 -0.125,-0.68555 1.95,1.95 0 0 0 0.88085,-0.98047 1.95,1.95 0 0 0 1.79493,-1.94336 1.95,1.95 0 0 0 -1.95117,-1.95117 1.95,1.95 0 0 0 -0.33008,0.0293 1.95,1.95 0 0 0 -1.8086,-1.22852 1.95,1.95 0 0 0 -0.25,0.0195 1.95,1.95 0 0 0 0.0586,-0.46875 1.95,1.95 0 0 0 -0.0937,-0.59375 1.95,1.95 0 0 1 0.002,0 1.95,1.95 0 0 0 0.48828,-0.27734 1.95,1.95 0 0 0 1.19336,0.41016 1.95,1.95 0 0 0 1.95117,-1.94922 1.95,1.95 0 0 0 -0.96289,-1.67969 1.95,1.95 0 0 0 1.60938,-1.33984 1.95,1.95 0 0 0 0.77343,0.1582 1.95,1.95 0 0 0 1.94922,-1.94922 1.95,1.95 0 0 0 -1.94922,-1.94922 1.95,1.95 0 0 0 -1.85937,1.35938 1.95,1.95 0 0 0 -0.77148,-0.16016 1.95,1.95 0 0 0 -1.94922,1.94922 1.95,1.95 0 0 0 0.96093,1.67969 1.95,1.95 0 0 0 -0.94726,0.39257 1.95,1.95 0 0 0 -0.87891,-0.38476 1.95,1.95 0 0 0 0.0645,-0.48633 1.95,1.95 0 0 0 -1.6211,-1.92187 1.95,1.95 0 0 0 0.0625,-0.47852 1.95,1.95 0 0 0 -1.95117,-1.94922 1.95,1.95 0 0 0 -0.63086,0.10547 1.95,1.95 0 0 0 -0.82422,-1.01758 1.95,1.95 0 0 0 0.0547,0.002 1.95,1.95 0 0 0 1.95117,-1.95117 1.95,1.95 0 0 0 -0.0606,-0.46679 1.95,1.95 0 0 0 0.16993,0.008 1.95,1.95 0 0 0 0.70312,-0.13086 1.95,1.95 0 0 0 0.69727,0.13086 1.95,1.95 0 0 0 1.02929,-0.29688 1.95,1.95 0 0 0 1.03125,0.29688 1.95,1.95 0 0 0 0.0859,-0.004 1.95,1.95 0 0 0 0.0742,0.004 1.95,1.95 0 0 0 0.51367,-0.0703 1.95,1.95 0 0 0 -0.0742,0.52929 1.95,1.95 0 0 0 1.94922,1.95117 1.95,1.95 0 0 0 1.95117,-1.95117 1.95,1.95 0 0 0 -0.41992,-1.20507 1.95,1.95 0 0 0 0.3418,-0.66407 1.95,1.95 0 0 1 0.002,-0.002 1.95,1.95 0 0 0 0.93359,-1.03516 1.95,1.95 0 0 0 1.35352,-1.08984 1.95,1.95 0 0 0 1.32813,1.08398 1.95,1.95 0 0 0 -1.01954,1.71289 1.95,1.95 0 0 0 1.94922,1.94922 1.95,1.95 0 0 0 1.95117,-1.94922 1.95,1.95 0 0 0 -1.51171,-1.89843 1.95,1.95 0 0 0 1.02148,-1.71094 1.95,1.95 0 0 0 -1.95117,-1.95117 1.95,1.95 0 0 0 -1.76953,1.13867 1.95,1.95 0 0 0 -1.76953,-1.13867 1.95,1.95 0 0 0 -1.81446,1.24023 1.95,1.95 0 0 0 -0.80273,-0.95312 1.95,1.95 0 0 0 1.84765,-1.94727 1.95,1.95 0 0 0 -1.95117,-1.94922 1.95,1.95 0 0 0 -1.94922,1.94922 1.95,1.95 0 0 0 0.93946,1.66406 1.95,1.95 0 0 0 -1.72071,1.25782 1.95,1.95 0 0 0 -0.0605,-0.0156 1.95,1.95 0 0 1 0,-0.002 1.95,1.95 0 0 0 -1.81836,-1.24414 1.95,1.95 0 0 0 -0.36328,0.0371 1.95,1.95 0 0 0 0.99414,-1.69727 1.95,1.95 0 0 0 -1.95117,-1.94922 1.95,1.95 0 0 0 -0.2461,0.0176 1.95,1.95 0 0 0 -0.24414,-0.0176 1.95,1.95 0 0 0 -1.36133,0.55469 1.95,1.95 0 0 0 -1.35742,-0.55469 1.95,1.95 0 0 0 -0.41016,0.0449 1.95,1.95 0 0 0 -0.41015,-0.0449 1.95,1.95 0 0 0 -0.25391,0.0176 1.95,1.95 0 0 0 -0.24609,-0.0176 1.95,1.95 0 0 0 -0.74024,0.14649 1.95,1.95 0 0 0 -0.74023,-0.14649 1.95,1.95 0 0 0 -0.14648,0.004 1.95,1.95 0 0 0 -0.0937,-0.004 1.95,1.95 0 0 0 -1.94922,1.94922 1.95,1.95 0 0 0 0.93554,1.66406 1.95,1.95 0 0 0 -0.0664,-0.004 1.95,1.95 0 0 0 -1.642533,0.90625 1.95,1.95 0 0 0 -0.873047,-0.74414 1.95,1.95 0 0 0 1.25586,-1.82227 1.95,1.95 0 0 0 -1.472656,-1.88867 1.95,1.95 0 0 0 0.07227,-0.52148 1.95,1.95 0 0 0 -1.949219,-1.94922 z m 28.900388,2.41015 a 1.95,1.95 0 0 0 -1.95117,1.94922 1.95,1.95 0 0 0 1.95117,1.95117 1.95,1.95 0 0 0 1.94922,-1.95117 1.95,1.95 0 0 0 -1.94922,-1.94922 z m -48.160153,2.40039 a 1.95,1.95 0 0 0 -1.951172,1.94922 1.95,1.95 0 0 0 1.951172,1.94922 1.95,1.95 0 0 0 0.169922,-0.008 1.95,1.95 0 0 0 -0.06055,0.46875 1.95,1.95 0 0 0 1.949219,1.94922 1.95,1.95 0 0 0 1.951171,-1.94922 1.95,1.95 0 0 0 -1.951171,-1.94922 1.95,1.95 0 0 0 -0.167969,0.008 1.95,1.95 0 0 0 0.05859,-0.46875 1.95,1.95 0 0 0 -1.949219,-1.94922 z m 53.099613,1.20899 a 1.95,1.95 0 0 0 -1.94922,1.95117 1.95,1.95 0 0 0 1.94922,1.94922 1.95,1.95 0 0 0 1.94922,-1.94922 1.95,1.95 0 0 0 -1.94922,-1.95117 z m 8.15039,0 a 1.95,1.95 0 0 0 -1.95117,1.95117 1.95,1.95 0 0 0 1.95117,1.94922 1.95,1.95 0 0 0 1.94922,-1.94922 1.95,1.95 0 0 0 -1.94922,-1.95117 z m -39.027347,2.99609 a 1.95,1.95 0 0 0 0.730467,0.67383 1.95,1.95 0 0 0 -0.12305,0.67969 1.95,1.95 0 0 0 0.33594,1.09375 1.95,1.95 0 0 0 -0.006,0.11718 1.95,1.95 0 0 0 1.94922,1.94922 1.95,1.95 0 0 0 1.10742,-0.34765 1.95,1.95 0 0 0 1.11328,0.34765 1.95,1.95 0 0 0 0.25391,-0.0176 1.95,1.95 0 0 0 0.79297,0.92968 1.95,1.95 0 0 0 -0.0566,-0.002 1.95,1.95 0 0 0 -0.043,0.002 1.95,1.95 0 0 0 -0.0371,-0.002 1.95,1.95 0 0 0 -0.41211,0.0469 1.95,1.95 0 0 0 -0.41797,-0.0469 1.95,1.95 0 0 0 -0.49218,0.0664 1.95,1.95 0 0 0 -0.48829,-0.0664 1.95,1.95 0 0 0 -1.80078,1.20117 1.95,1.95 0 0 0 -0.01,0 1.95,1.95 0 0 0 -1.949221,1.94922 1.95,1.95 0 0 0 0.414061,1.20312 1.95,1.95 0 0 0 -0.414061,1.19727 1.95,1.95 0 0 0 0.712891,1.50586 1.95,1.95 0 0 0 -0.22266,0.9043 1.95,1.95 0 0 0 0.14063,0.72656 1.95,1.95 0 0 0 -0.002,0.006 1.95,1.95 0 0 0 -0.958989,1.67773 1.95,1.95 0 0 0 1.246089,1.81641 1.95,1.95 0 0 0 -1.166011,1.7832 1.95,1.95 0 0 0 0.09766,0.60157 1.95,1.95 0 0 0 -0.0957,0.57812 1.95,1.95 0 0 0 -0.462891,-0.41016 1.95,1.95 0 0 0 0.160157,-0.76953 1.95,1.95 0 0 0 -0.140626,-0.72461 1.95,1.95 0 0 0 0.06055,-0.47656 1.95,1.95 0 0 0 -0.457031,-1.25 1.95,1.95 0 0 0 0.376953,-1.14844 1.95,1.95 0 0 0 -0.18164,-0.8164 1.95,1.95 0 0 0 0.832031,-1.59375 1.95,1.95 0 0 0 -1.869141,-1.94727 1.95,1.95 0 0 0 0.05859,-0.46289 1.95,1.95 0 0 0 -0.07422,-0.5332 1.95,1.95 0 0 0 1.390625,-1.77149 1.95,1.95 0 0 0 0.494141,-1.29492 1.95,1.95 0 0 0 -1.949219,-1.95117 1.95,1.95 0 0 0 -0.984375,0.26953 1.95,1.95 0 0 0 -0.146484,-0.0762 1.95,1.95 0 0 0 1.246094,-1.22852 1.95,1.95 0 0 0 1.263671,-1.82422 1.95,1.95 0 0 0 -0.410156,-1.19726 1.95,1.95 0 0 0 0,-0.0137 1.95,1.95 0 0 0 -0.0957,-0.59571 1.95,1.95 0 0 0 0.0332,-0.125 1.95,1.95 0 0 0 0.65625,-0.63281 z m -31.523437,1.81445 a 1.95,1.95 0 0 0 -1.949219,1.94922 1.95,1.95 0 0 0 1.949219,1.95117 1.95,1.95 0 0 0 1.951172,-1.95117 1.95,1.95 0 0 0 -1.951172,-1.94922 z m -3.628907,3.60938 a 1.95,1.95 0 0 0 -1.951171,1.95117 1.95,1.95 0 0 0 1.951171,1.94922 1.95,1.95 0 0 0 1.949219,-1.94922 1.95,1.95 0 0 0 -1.949219,-1.95117 z m 65.699221,0 a 1.95,1.95 0 0 0 -1.94922,1.95117 1.95,1.95 0 0 0 1.94922,1.94922 1.95,1.95 0 0 0 1.94922,-1.94922 1.95,1.95 0 0 0 -1.94922,-1.95117 z m -60.099611,1.20117 A 1.95,1.95 0 0 0 68.029297,259 1.95,1.95 0 0 0 69.980469,260.94922 1.95,1.95 0 0 0 71.929688,259 1.95,1.95 0 0 0 69.980469,257.05078 Z m 18.859375,0 a 1.95,1.95 0 0 0 -1.830078,1.2832 1.95,1.95 0 0 0 -0.560547,-0.084 1.95,1.95 0 0 0 -1.949219,1.94922 1.95,1.95 0 0 0 1.949219,1.95117 1.95,1.95 0 0 0 1.830078,-1.2832 1.95,1.95 0 0 0 0.560547,0.082 A 1.95,1.95 0 0 0 90.789062,259 1.95,1.95 0 0 0 88.839844,257.05078 Z m -14.990235,7.21875 a 1.95,1.95 0 0 0 -1.949218,1.95117 1.95,1.95 0 0 0 1.949218,1.94922 1.95,1.95 0 0 0 1.951172,-1.94922 1.95,1.95 0 0 0 -1.951172,-1.95117 z m 6.179688,0 a 1.95,1.95 0 0 0 -1.949219,1.95117 1.95,1.95 0 0 0 1.949219,1.94922 1.95,1.95 0 0 0 1.951172,-1.94922 1.95,1.95 0 0 0 -1.951172,-1.95117 z m 5.431641,0 a 1.95,1.95 0 0 0 -1.951172,1.95117 1.95,1.95 0 0 0 1.951172,1.94922 1.95,1.95 0 0 0 1.949218,-1.94922 1.95,1.95 0 0 0 -1.949218,-1.95117 z m 20.716792,1.39453 a 1.95,1.95 0 0 0 0.125,0.0352 1.95,1.95 0 0 0 -0.0586,0.29492 1.95,1.95 0 0 0 -0.0664,-0.33008 z m 0.0684,0.78125 a 1.95,1.95 0 0 0 0.90039,1.42578 1.95,1.95 0 0 0 -0.0371,-0.002 1.95,1.95 0 0 0 -0.4043,0.0469 1.95,1.95 0 0 0 -0.41602,-0.0469 1.95,1.95 0 0 0 -0.1582,0.008 1.95,1.95 0 0 0 -0.16992,-0.008 1.95,1.95 0 0 0 -0.043,0.002 1.95,1.95 0 0 0 -0.0371,-0.002 1.95,1.95 0 0 0 -0.0449,0.002 1.95,1.95 0 0 0 -0.0352,-0.002 1.95,1.95 0 0 0 -0.0918,0.004 1.95,1.95 0 0 0 -0.0781,-0.004 1.95,1.95 0 0 0 -0.19727,0.0137 1.95,1.95 0 0 0 -0.0937,-0.008 1.95,1.95 0 0 0 0.90625,-1.42969 z m -40.707028,0.22461 a 1.95,1.95 0 0 0 -1.949218,1.94922 1.95,1.95 0 0 0 1.949218,1.95117 1.95,1.95 0 0 0 1.951172,-1.95117 1.95,1.95 0 0 0 -1.951172,-1.94922 z m 16.050782,1.19922 a 1.95,1.95 0 0 0 -1.949219,1.95117 1.95,1.95 0 0 0 1.949219,1.94922 1.95,1.95 0 0 0 1.949218,-1.94922 1.95,1.95 0 0 0 -1.949218,-1.95117 z m 40.339846,1.21094 a 1.95,1.95 0 0 0 -1.94922,1.94922 1.95,1.95 0 0 0 1.94922,1.95117 1.95,1.95 0 0 0 1.95117,-1.95117 1.95,1.95 0 0 0 -1.95117,-1.94922 z m -11.41797,2.61133 a 1.95,1.95 0 0 0 0.30664,0.0605 1.95,1.95 0 0 0 -0.16406,0.10938 1.95,1.95 0 0 0 -0.16407,-0.10938 1.95,1.95 0 0 0 0.0215,-0.0605 z m 17.01758,0.98828 a 1.95,1.95 0 0 0 -1.83985,1.3164 1.95,1.95 0 0 0 -0.6289,-0.10547 1.95,1.95 0 0 0 -1.95117,1.94922 1.95,1.95 0 0 0 1.95117,1.94922 1.95,1.95 0 0 0 1.84179,-1.31445 1.95,1.95 0 0 0 0.62696,0.10547 1.95,1.95 0 0 0 1.95117,-1.94922 1.95,1.95 0 0 0 -1.95117,-1.95117 z m -27.783206,1.85742 a 1.95,1.95 0 0 0 0.433596,0.44922 1.95,1.95 0 0 0 -0.199221,0.85351 1.95,1.95 0 0 0 0.175781,0.80274 1.95,1.95 0 0 0 -0.576172,0.6289 1.95,1.95 0 0 0 -0.0039,-0.008 1.95,1.95 0 0 0 0.01367,-0.22461 1.95,1.95 0 0 0 -1.015625,-1.71094 1.95,1.95 0 0 0 1.171875,-0.79101 z m 45.654296,0.55273 a 1.95,1.95 0 0 0 -1.95117,1.94922 1.95,1.95 0 0 0 1.95117,1.95117 1.95,1.95 0 0 0 1.94922,-1.95117 1.95,1.95 0 0 0 -1.94922,-1.94922 z m 22.79883,0 a 1.95,1.95 0 0 0 -1.94922,1.94922 1.95,1.95 0 0 0 1.94922,1.95117 1.95,1.95 0 0 0 1.95117,-1.95117 1.95,1.95 0 0 0 -1.95117,-1.94922 z m -94.839845,1.19922 a 1.95,1.95 0 0 0 -1.949219,1.95117 1.95,1.95 0 0 0 1.949219,1.94922 1.95,1.95 0 0 0 1.951172,-1.94922 1.95,1.95 0 0 0 -1.951172,-1.95117 z M 77.310547,277.5 a 1.95,1.95 0 0 0 -1.951172,1.94922 1.95,1.95 0 0 0 1.951172,1.95117 1.95,1.95 0 0 0 1.949219,-1.95117 A 1.95,1.95 0 0 0 77.310547,277.5 Z m 59.439453,0 a 1.95,1.95 0 0 0 -1.94922,1.94922 1.95,1.95 0 0 0 1.94922,1.95117 1.95,1.95 0 0 0 1.94922,-1.95117 A 1.95,1.95 0 0 0 136.75,277.5 Z m -19.17969,3.87305 a 1.95,1.95 0 0 0 0.79297,0.9375 1.95,1.95 0 0 0 -0.0312,0.002 1.95,1.95 0 0 0 -0.0215,-0.002 1.95,1.95 0 0 0 -0.0449,0.002 1.95,1.95 0 0 0 -0.0352,-0.002 1.95,1.95 0 0 0 -0.0605,0.002 1.95,1.95 0 0 0 -0.0293,-0.002 1.95,1.95 0 0 0 -0.0586,0.002 1.95,1.95 0 0 0 -0.0215,-0.002 1.95,1.95 0 0 0 -0.0449,0.002 1.95,1.95 0 0 0 -0.0352,-0.002 1.95,1.95 0 0 0 -0.14844,0.006 1.95,1.95 0 0 0 -0.10156,-0.006 1.95,1.95 0 0 0 -0.0508,0.002 1.95,1.95 0 0 0 -0.0293,-0.002 1.95,1.95 0 0 0 -0.0586,0.002 1.95,1.95 0 0 0 -0.0215,-0.002 1.95,1.95 0 0 0 -0.043,0.002 1.95,1.95 0 0 0 -0.0371,-0.002 1.95,1.95 0 0 0 -0.0605,0.002 1.95,1.95 0 0 0 -0.0293,-0.002 1.95,1.95 0 0 0 -0.0508,0.002 1.95,1.95 0 0 0 -0.0293,-0.002 1.95,1.95 0 0 0 -0.0586,0.002 1.95,1.95 0 0 0 -0.0215,-0.002 1.95,1.95 0 0 0 -0.043,0.002 1.95,1.95 0 0 0 -0.0371,-0.002 1.95,1.95 0 0 0 -0.0606,0.002 1.95,1.95 0 0 0 -0.0293,-0.002 1.95,1.95 0 0 0 -0.0586,0.002 1.95,1.95 0 0 0 -0.0215,-0.002 1.95,1.95 0 0 0 -0.043,0.002 1.95,1.95 0 0 0 -0.0371,-0.002 1.95,1.95 0 0 0 -0.0508,0.002 1.95,1.95 0 0 0 -0.0293,-0.002 1.95,1.95 0 0 0 -0.0469,0.002 1.95,1.95 0 0 0 -0.006,0 1.95,1.95 0 0 0 0.79297,-0.93945 z m -75.749998,0.9375 a 1.95,1.95 0 0 0 -1.951171,1.94922 1.95,1.95 0 0 0 1.951171,1.95117 1.95,1.95 0 0 0 0.0918,-0.004 1.95,1.95 0 0 0 0.07813,0.004 1.95,1.95 0 0 0 1.949219,-1.95117 1.95,1.95 0 0 0 -1.949219,-1.94922 1.95,1.95 0 0 0 -0.109375,0.004 1.95,1.95 0 0 0 -0.06055,-0.004 z m 11.039063,0 a 1.95,1.95 0 0 0 -1.949219,1.94922 1.95,1.95 0 0 0 1.949219,1.95117 1.95,1.95 0 0 0 0.779297,-0.16602 1.95,1.95 0 0 0 0.78125,0.16602 1.95,1.95 0 0 0 0.826172,-0.18555 1.95,1.95 0 0 0 0.824218,0.18555 1.95,1.95 0 0 0 1.949219,-1.95117 1.95,1.95 0 0 0 -1.949219,-1.94922 1.95,1.95 0 0 0 -0.826171,0.18554 1.95,1.95 0 0 0 -0.824219,-0.18554 1.95,1.95 0 0 0 -0.779297,0.16406 1.95,1.95 0 0 0 -0.78125,-0.16406 z m 83.150395,0 a 1.95,1.95 0 0 0 -1.94922,1.94922 1.95,1.95 0 0 0 1.94922,1.95117 1.95,1.95 0 0 0 0.16015,-0.008 1.95,1.95 0 0 0 0.16992,0.008 1.95,1.95 0 0 0 0.0859,-0.004 1.95,1.95 0 0 0 0.0742,0.004 1.95,1.95 0 0 0 0.0508,-0.002 1.95,1.95 0 0 0 0.0391,0.002 1.95,1.95 0 0 0 1.94922,-1.95117 1.95,1.95 0 0 0 -1.94922,-1.94922 1.95,1.95 0 0 0 -0.0566,0.002 1.95,1.95 0 0 0 -0.0332,-0.002 1.95,1.95 0 0 0 -0.10742,0.004 1.95,1.95 0 0 0 -0.0527,-0.004 1.95,1.95 0 0 0 -0.17187,0.008 1.95,1.95 0 0 0 -0.1582,-0.008 z m 15.9707,0 a 1.95,1.95 0 0 0 -1.95117,1.94922 1.95,1.95 0 0 0 1.95117,1.95117 1.95,1.95 0 0 0 1.94922,-1.95117 1.95,1.95 0 0 0 -1.94922,-1.94922 z"
       id="circle59"
       transform="translate(0,-22)" />
    <rect
       x="35.509998"
       y="101.84"
       width="139.00999"
       height="191.11"
       style="stroke:#333333;stroke-width:1.07"
       clip-path="url(#cpMzUuNTF8MTc0LjUyfDI5Mi45NHwxMDEuODQ=)"
       id="rect2403"
       transform="translate(0,-22)" />
    <text
       id="text2410"
       style="font-size:9.33333333px;font-family:Helvetica;fill:#4d4d4d;-inkscape-font-specification:'Helvetica, Normal';font-weight:normal;font-style:normal;font-stretch:normal;font-variant:normal;font-variant-ligatures:normal;font-variant-caps:normal;font-variant-numeric:normal;font-variant-east-asian:normal;"
       y="265.35001"
       x="18.059999">0.0</text>
    <text
       id="text2414"
       style="font-size:9.33333333px;font-family:Helvetica;fill:#4d4d4d;-inkscape-font-specification:'Helvetica, Normal';font-weight:normal;font-style:normal;font-stretch:normal;font-variant:normal;font-variant-ligatures:normal;font-variant-caps:normal;font-variant-numeric:normal;font-variant-east-asian:normal;"
       y="205.21001"
       x="18.059999">0.5</text>
    <text
       id="text2418"
       style="font-size:9.33333333px;font-family:Helvetica;fill:#4d4d4d;-inkscape-font-specification:'Helvetica, Normal';font-weight:normal;font-style:normal;font-stretch:normal;font-variant:normal;font-variant-ligatures:normal;font-variant-caps:normal;font-variant-numeric:normal;font-variant-east-asian:normal;"
       y="145.08"
       x="18.059999">1.0</text>
    <text
       id="text2422"
       style="font-size:9.33333333px;font-family:Helvetica;fill:#4d4d4d;-inkscape-font-specification:'Helvetica, Normal';font-weight:normal;font-style:normal;font-stretch:normal;font-variant:normal;font-variant-ligatures:normal;font-variant-caps:normal;font-variant-numeric:normal;font-variant-east-asian:normal;"
       y="84.940002"
       x="18.059999">1.5</text>
    <polyline
       points="32.77,284.26 35.51,284.26 "
       style="stroke:#333333;stroke-width:1.07;stroke-linecap:butt"
       clip-path="url(#cpMC4wMHwxODAuMDB8MzI0LjAwfDAuMDA=)"
       id="polyline2426"
       transform="translate(0,-22)" />
    <polyline
       points="32.77,224.12 35.51,224.12 "
       style="stroke:#333333;stroke-width:1.07;stroke-linecap:butt"
       clip-path="url(#cpMC4wMHwxODAuMDB8MzI0LjAwfDAuMDA=)"
       id="polyline2428"
       transform="translate(0,-22)" />
    <polyline
       points="32.77,163.98 35.51,163.98 "
       style="stroke:#333333;stroke-width:1.07;stroke-linecap:butt"
       clip-path="url(#cpMC4wMHwxODAuMDB8MzI0LjAwfDAuMDA=)"
       id="polyline2430"
       transform="translate(0,-22)" />
    <polyline
       points="32.77,103.84 35.51,103.84 "
       style="stroke:#333333;stroke-width:1.07;stroke-linecap:butt"
       clip-path="url(#cpMC4wMHwxODAuMDB8MzI0LjAwfDAuMDA=)"
       id="polyline2432"
       transform="translate(0,-22)" />
    <polyline
       points="58.37,295.68 58.37,292.94 "
       style="stroke:#333333;stroke-width:1.07;stroke-linecap:butt"
       clip-path="url(#cpMC4wMHwxODAuMDB8MzI0LjAwfDAuMDA=)"
       id="polyline2434"
       transform="translate(0,-22)" />
    <polyline
       points="99.54,295.68 99.54,292.94 "
       style="stroke:#333333;stroke-width:1.07;stroke-linecap:butt"
       clip-path="url(#cpMC4wMHwxODAuMDB8MzI0LjAwfDAuMDA=)"
       id="polyline2436"
       transform="translate(0,-22)" />
    <polyline
       points="140.70,295.68 140.70,292.94 "
       style="stroke:#333333;stroke-width:1.07;stroke-linecap:butt"
       clip-path="url(#cpMC4wMHwxODAuMDB8MzI0LjAwfDAuMDA=)"
       id="polyline2438"
       transform="translate(0,-22)" />
    <text
       id="text2440"
       style="font-size:9.33333333px;font-family:Helvetica;fill:#4d4d4d;-inkscape-font-specification:'Helvetica, Normal';font-weight:normal;font-style:normal;font-stretch:normal;font-variant:normal;font-variant-ligatures:normal;font-variant-caps:normal;font-variant-numeric:normal;font-variant-east-asian:normal;"
       y="282.06"
       x="54.369999">-5</text>
    <text
       id="text2444"
       style="font-size:9.33333333px;font-family:Helvetica;fill:#4d4d4d;-inkscape-font-specification:'Helvetica, Normal';font-weight:normal;font-style:normal;font-stretch:normal;font-variant:normal;font-variant-ligatures:normal;font-variant-caps:normal;font-variant-numeric:normal;font-variant-east-asian:normal;"
       y="282.06"
       x="97.040001">0</text>
    <text
       id="text2448"
       style="font-size:9.33333333px;font-family:Helvetica;fill:#4d4d4d;-inkscape-font-specification:'Helvetica, Normal';font-weight:normal;font-style:normal;font-stretch:normal;font-variant:normal;font-variant-ligatures:normal;font-variant-caps:normal;font-variant-numeric:normal;font-variant-east-asian:normal;"
       y="282.06"
       x="138.2">5</text>
    <text
       id="text2452"
       style="font-size:10.66666667px;font-family:Helvetica;-inkscape-font-specification:'Helvetica, Normal';font-weight:normal;font-style:normal;font-stretch:normal;font-variant:normal;font-variant-ligatures:normal;font-variant-caps:normal;font-variant-numeric:normal;font-variant-east-asian:normal;"
       y="294.23999"
       x="62.810001">Log2 fold change</text>
    <text
       id="text2456"
       style="font-size:10.66666667px;font-family:Helvetica;-inkscape-font-specification:'Helvetica, Normal';font-weight:normal;font-style:normal;font-stretch:normal;font-variant:normal;font-variant-ligatures:normal;font-variant-caps:normal;font-variant-numeric:normal;font-variant-east-asian:normal;"
       transform="rotate(-90)"
       x="-234.39999"
       y="13.04">-Log10 adjusted p-value</text>
    <rect
       x="40.990002"
       y="33.560001"
       width="17.280001"
       height="17.280001"
       style="fill:#ffffff;stroke:none;stroke-width:1.07"
       clip-path="url(#cpMC4wMHwxODAuMDB8MzI0LjAwfDAuMDA=)"
       id="rect2462"
       transform="translate(0,-12)" />
    <circle
       cx="49.630001"
       cy="42.200001"
       r="1.95"
       style="fill:#74add1;fill-opacity:0.75;stroke:#74add1;stroke-width:0.71;stroke-opacity:0.75"
       clip-path="url(#cpMC4wMHwxODAuMDB8MzI0LjAwfDAuMDA=)"
       id="circle2464"
       transform="translate(0,-12)" />
    <rect
       x="40.990002"
       y="50.84"
       width="17.280001"
       height="17.280001"
       style="fill:#ffffff;stroke:none;stroke-width:1.07"
       clip-path="url(#cpMC4wMHwxODAuMDB8MzI0LjAwfDAuMDA=)"
       id="rect2466"
       transform="translate(0,-12)" />
    <circle
       cx="49.630001"
       cy="59.48"
       r="1.95"
       style="fill:#f46d43;fill-opacity:0.75;stroke:#f46d43;stroke-width:0.71;stroke-opacity:0.75"
       clip-path="url(#cpMC4wMHwxODAuMDB8MzI0LjAwfDAuMDA=)"
       id="circle2468"
       transform="translate(0,-12)" />
    <rect
       x="40.990002"
       y="68.120003"
       width="17.280001"
       height="17.280001"
       style="fill:#ffffff;stroke:none;stroke-width:1.07"
       clip-path="url(#cpMC4wMHwxODAuMDB8MzI0LjAwfDAuMDA=)"
       id="rect2470"
       transform="translate(0,-12)" />
    <circle
       cx="49.630001"
       cy="76.760002"
       r="1.95"
       style="fill:#999999;fill-opacity:0.75;stroke:#999999;stroke-width:0.71;stroke-opacity:0.75"
       clip-path="url(#cpMC4wMHwxODAuMDB8MzI0LjAwfDAuMDA=)"
       id="circle2472"
       transform="translate(0,-12)" />
    <text
       id="text2474"
       style="font-size:10.66666667px;font-family:Helvetica;-inkscape-font-specification:'Helvetica, Normal';font-weight:normal;font-style:normal;font-stretch:normal;font-variant:normal;font-variant-ligatures:normal;font-variant-caps:normal;font-variant-numeric:normal;font-variant-east-asian:normal;"
       y="33.290001"
       x="63.740002">DEG (down): 3</text>
    <text
       id="text2478"
       style="font-size:10.66666667px;font-family:Helvetica;-inkscape-font-specification:'Helvetica, Normal';font-weight:normal;font-style:normal;font-stretch:normal;font-variant:normal;font-variant-ligatures:normal;font-variant-caps:normal;font-variant-numeric:normal;font-variant-east-asian:normal;"
       y="50.57"
       x="63.740002">DEG (up): 3</text>
    <text
       id="text2482"
       style="font-size:10.66666667px;font-family:Helvetica;-inkscape-font-specification:'Helvetica, Normal';font-weight:normal;font-style:normal;font-stretch:normal;font-variant:normal;font-variant-ligatures:normal;font-variant-caps:normal;font-variant-numeric:normal;font-variant-east-asian:normal;"
       y="67.849998"
       x="63.740002">Non-DEG: 51182</text>
    <text
       id="text2486"
       style="font-size:14.66670000000000051px;font-family:Helvetica;-inkscape-font-specification:'Helvetica, Normal';font-weight:normal;font-style:normal;font-stretch:normal;font-variant:normal;font-variant-ligatures:normal;font-variant-caps:normal;font-variant-numeric:normal;font-variant-east-asian:normal;"
       y="16.419998"
       x="35.509998">L2:L1</text>
  </g>
</svg>
