<?xml version="1.0" encoding="UTF-8" standalone="no"?>
<svg
   xmlns:dc="http://purl.org/dc/elements/1.1/"
   xmlns:cc="http://creativecommons.org/ns#"
   xmlns:rdf="http://www.w3.org/1999/02/22-rdf-syntax-ns#"
   xmlns:svg="http://www.w3.org/2000/svg"
   xmlns="http://www.w3.org/2000/svg"
   xmlns:sodipodi="http://sodipodi.sourceforge.net/DTD/sodipodi-0.dtd"
   xmlns:inkscape="http://www.inkscape.org/namespaces/inkscape"
   viewBox="0 0 180 302.36221"
   version="1.1"
   id="svg9276"
   sodipodi:docname="volcate_gonad_l1l3_a.svg"
   inkscape:version="1.0.2 (e86c8708, 2021-01-15)"
   width="47.625mm"
   height="80mm">
  <metadata
     id="metadata9280">
    <rdf:RDF>
      <cc:Work
         rdf:about="">
        <dc:format>image/svg+xml</dc:format>
        <dc:type
           rdf:resource="http://purl.org/dc/dcmitype/StillImage" />
        <dc:title></dc:title>
      </cc:Work>
    </rdf:RDF>
  </metadata>
  <sodipodi:namedview
     pagecolor="#ffffff"
     bordercolor="#666666"
     borderopacity="1"
     objecttolerance="10"
     gridtolerance="10"
     guidetolerance="10"
     inkscape:pageopacity="0"
     inkscape:pageshadow="2"
     inkscape:window-width="1472"
     inkscape:window-height="910"
     id="namedview9278"
     showgrid="false"
     inkscape:zoom="1.5"
     inkscape:cx="54"
     inkscape:cy="162"
     inkscape:window-x="275"
     inkscape:window-y="25"
     inkscape:window-maximized="0"
     inkscape:current-layer="svg9276"
     inkscape:document-rotation="0"
     units="mm" />
  <defs
     id="defs4">
    <style
       type="text/css"
       id="style2"><![CDATA[
    line, polyline, polygon, path, rect, circle {
      fill: none;
      stroke: #000000;
      stroke-linecap: round;
      stroke-linejoin: round;
      stroke-miterlimit: 10.00;
    }
  ]]></style>
  </defs>
  <defs
     id="defs13">
    <clipPath
       id="cpMjguMDB8MTc0LjUyfDI5Mi45NHwxMDEuODQ=">
      <rect
         x="28"
         y="101.84"
         width="146.52"
         height="191.11"
         id="rect10" />
    </clipPath>
  </defs>
  <rect
     x="28"
     y="101.84"
     width="146.52"
     height="191.11"
     style="fill:#ffffff;stroke:none;stroke-width:1.07"
     clip-path="url(#cpMjguMDB8MTc0LjUyfDI5Mi45NHwxMDEuODQ=)"
     id="rect15"
     transform="translate(0,-22)" />
  <polyline
     points="28.00,262.54 174.52,262.54 "
     style="stroke:#ebebeb;stroke-width:0.53;stroke-linecap:butt"
     clip-path="url(#cpMjguMDB8MTc0LjUyfDI5Mi45NHwxMDEuODQ=)"
     id="polyline17"
     transform="translate(0,-22)" />
  <polyline
     points="28.00,219.11 174.52,219.11 "
     style="stroke:#ebebeb;stroke-width:0.53;stroke-linecap:butt"
     clip-path="url(#cpMjguMDB8MTc0LjUyfDI5Mi45NHwxMDEuODQ=)"
     id="polyline19"
     transform="translate(0,-22)" />
  <polyline
     points="28.00,175.67 174.52,175.67 "
     style="stroke:#ebebeb;stroke-width:0.53;stroke-linecap:butt"
     clip-path="url(#cpMjguMDB8MTc0LjUyfDI5Mi45NHwxMDEuODQ=)"
     id="polyline21"
     transform="translate(0,-22)" />
  <polyline
     points="28.00,132.24 174.52,132.24 "
     style="stroke:#ebebeb;stroke-width:0.53;stroke-linecap:butt"
     clip-path="url(#cpMjguMDB8MTc0LjUyfDI5Mi45NHwxMDEuODQ=)"
     id="polyline23"
     transform="translate(0,-22)" />
  <polyline
     points="44.54,292.94 44.54,101.84 "
     style="stroke:#ebebeb;stroke-width:0.53;stroke-linecap:butt"
     clip-path="url(#cpMjguMDB8MTc0LjUyfDI5Mi45NHwxMDEuODQ=)"
     id="polyline25"
     transform="translate(0,-22)" />
  <polyline
     points="83.69,292.94 83.69,101.84 "
     style="stroke:#ebebeb;stroke-width:0.53;stroke-linecap:butt"
     clip-path="url(#cpMjguMDB8MTc0LjUyfDI5Mi45NHwxMDEuODQ=)"
     id="polyline27"
     transform="translate(0,-22)" />
  <polyline
     points="122.84,292.94 122.84,101.84 "
     style="stroke:#ebebeb;stroke-width:0.53;stroke-linecap:butt"
     clip-path="url(#cpMjguMDB8MTc0LjUyfDI5Mi45NHwxMDEuODQ=)"
     id="polyline29"
     transform="translate(0,-22)" />
  <polyline
     points="161.99,292.94 161.99,101.84 "
     style="stroke:#ebebeb;stroke-width:0.53;stroke-linecap:butt"
     clip-path="url(#cpMjguMDB8MTc0LjUyfDI5Mi45NHwxMDEuODQ=)"
     id="polyline31"
     transform="translate(0,-22)" />
  <polyline
     points="28.00,284.26 174.52,284.26 "
     style="stroke:#ebebeb;stroke-width:1.07;stroke-linecap:butt"
     clip-path="url(#cpMjguMDB8MTc0LjUyfDI5Mi45NHwxMDEuODQ=)"
     id="polyline33"
     transform="translate(0,-22)" />
  <polyline
     points="28.00,240.82 174.52,240.82 "
     style="stroke:#ebebeb;stroke-width:1.07;stroke-linecap:butt"
     clip-path="url(#cpMjguMDB8MTc0LjUyfDI5Mi45NHwxMDEuODQ=)"
     id="polyline35"
     transform="translate(0,-22)" />
  <polyline
     points="28.00,197.39 174.52,197.39 "
     style="stroke:#ebebeb;stroke-width:1.07;stroke-linecap:butt"
     clip-path="url(#cpMjguMDB8MTc0LjUyfDI5Mi45NHwxMDEuODQ=)"
     id="polyline37"
     transform="translate(0,-22)" />
  <polyline
     points="28.00,153.96 174.52,153.96 "
     style="stroke:#ebebeb;stroke-width:1.07;stroke-linecap:butt"
     clip-path="url(#cpMjguMDB8MTc0LjUyfDI5Mi45NHwxMDEuODQ=)"
     id="polyline39"
     transform="translate(0,-22)" />
  <polyline
     points="28.00,110.52 174.52,110.52 "
     style="stroke:#ebebeb;stroke-width:1.07;stroke-linecap:butt"
     clip-path="url(#cpMjguMDB8MTc0LjUyfDI5Mi45NHwxMDEuODQ=)"
     id="polyline41"
     transform="translate(0,-22)" />
  <polyline
     points="64.12,292.94 64.12,101.84 "
     style="stroke:#ebebeb;stroke-width:1.07;stroke-linecap:butt"
     clip-path="url(#cpMjguMDB8MTc0LjUyfDI5Mi45NHwxMDEuODQ=)"
     id="polyline43"
     transform="translate(0,-22)" />
  <polyline
     points="103.27,292.94 103.27,101.84 "
     style="stroke:#ebebeb;stroke-width:1.07;stroke-linecap:butt"
     clip-path="url(#cpMjguMDB8MTc0LjUyfDI5Mi45NHwxMDEuODQ=)"
     id="polyline45"
     transform="translate(0,-22)" />
  <polyline
     points="142.41,292.94 142.41,101.84 "
     style="stroke:#ebebeb;stroke-width:1.07;stroke-linecap:butt"
     clip-path="url(#cpMjguMDB8MTc0LjUyfDI5Mi45NHwxMDEuODQ=)"
     id="polyline47"
     transform="translate(0,-22)" />
  <line
     x1="28"
     y1="240.82001"
     x2="174.52"
     y2="240.82001"
     style="stroke:#bebebe;stroke-width:1.07;stroke-linecap:butt;stroke-dasharray:5.69, 5.69"
     clip-path="url(#cpMjguMDB8MTc0LjUyfDI5Mi45NHwxMDEuODQ=)"
     id="line49"
     transform="translate(0,-22)" />
  <circle
     cx="149.42"
     cy="110.52"
     r="1.95"
     style="fill:#f46d43;fill-opacity:0.75;stroke:#f46d43;stroke-width:0.71;stroke-opacity:0.75"
     clip-path="url(#cpMjguMDB8MTc0LjUyfDI5Mi45NHwxMDEuODQ=)"
     id="circle51"
     transform="translate(0,-22)" />
  <circle
     cx="38.07"
     cy="110.52"
     r="1.95"
     style="fill:#74add1;fill-opacity:0.75;stroke:#74add1;stroke-width:0.71;stroke-opacity:0.75"
     clip-path="url(#cpMjguMDB8MTc0LjUyfDI5Mi45NHwxMDEuODQ=)"
     id="circle53"
     transform="translate(0,-22)" />
  <circle
     cx="79.139999"
     cy="110.52"
     r="1.95"
     style="fill:#74add1;fill-opacity:0.75;stroke:#74add1;stroke-width:0.71;stroke-opacity:0.75"
     clip-path="url(#cpMjguMDB8MTc0LjUyfDI5Mi45NHwxMDEuODQ=)"
     id="circle55"
     transform="translate(0,-22)" />
  <circle
     cx="131.82001"
     cy="110.52"
     r="1.95"
     style="fill:#f46d43;fill-opacity:0.75;stroke:#f46d43;stroke-width:0.71;stroke-opacity:0.75"
     clip-path="url(#cpMjguMDB8MTc0LjUyfDI5Mi45NHwxMDEuODQ=)"
     id="circle57"
     transform="translate(0,-22)" />
  <circle
     cx="95.459999"
     cy="110.52"
     r="1.95"
     style="fill:#74add1;fill-opacity:0.75;stroke:#74add1;stroke-width:0.71;stroke-opacity:0.75"
     clip-path="url(#cpMjguMDB8MTc0LjUyfDI5Mi45NHwxMDEuODQ=)"
     id="circle59"
     transform="translate(0,-22)" />
  <circle
     cx="44.619999"
     cy="110.52"
     r="1.95"
     style="fill:#74add1;fill-opacity:0.75;stroke:#74add1;stroke-width:0.71;stroke-opacity:0.75"
     clip-path="url(#cpMjguMDB8MTc0LjUyfDI5Mi45NHwxMDEuODQ=)"
     id="circle61"
     transform="translate(0,-22)" />
  <circle
     cx="95.279999"
     cy="110.52"
     r="1.95"
     style="fill:#74add1;fill-opacity:0.75;stroke:#74add1;stroke-width:0.71;stroke-opacity:0.75"
     clip-path="url(#cpMjguMDB8MTc0LjUyfDI5Mi45NHwxMDEuODQ=)"
     id="circle63"
     transform="translate(0,-22)" />
  <circle
     cx="150.39"
     cy="131.33"
     r="1.95"
     style="fill:#f46d43;fill-opacity:0.75;stroke:#f46d43;stroke-width:0.71;stroke-opacity:0.75"
     clip-path="url(#cpMjguMDB8MTc0LjUyfDI5Mi45NHwxMDEuODQ=)"
     id="circle65"
     transform="translate(0,-22)" />
  <circle
     cx="89.589996"
     cy="131.33"
     r="1.95"
     style="fill:#74add1;fill-opacity:0.75;stroke:#74add1;stroke-width:0.71;stroke-opacity:0.75"
     clip-path="url(#cpMjguMDB8MTc0LjUyfDI5Mi45NHwxMDEuODQ=)"
     id="circle67"
     transform="translate(0,-22)" />
  <circle
     cx="109.43"
     cy="144.07001"
     r="1.95"
     style="fill:#f46d43;fill-opacity:0.75;stroke:#f46d43;stroke-width:0.71;stroke-opacity:0.75"
     clip-path="url(#cpMjguMDB8MTc0LjUyfDI5Mi45NHwxMDEuODQ=)"
     id="circle69"
     transform="translate(0,-22)" />
  <circle
     cx="96.379997"
     cy="159.42"
     r="1.95"
     style="fill:#74add1;fill-opacity:0.75;stroke:#74add1;stroke-width:0.71;stroke-opacity:0.75"
     clip-path="url(#cpMjguMDB8MTc0LjUyfDI5Mi45NHwxMDEuODQ=)"
     id="circle71"
     transform="translate(0,-22)" />
  <circle
     cx="100.12"
     cy="186.08"
     r="1.95"
     style="fill:#74add1;fill-opacity:0.75;stroke:#74add1;stroke-width:0.71;stroke-opacity:0.75"
     clip-path="url(#cpMjguMDB8MTc0LjUyfDI5Mi45NHwxMDEuODQ=)"
     id="circle73"
     transform="translate(0,-22)" />
  <circle
     cx="94.849998"
     cy="190.45"
     r="1.95"
     style="fill:#74add1;fill-opacity:0.75;stroke:#74add1;stroke-width:0.71;stroke-opacity:0.75"
     clip-path="url(#cpMjguMDB8MTc0LjUyfDI5Mi45NHwxMDEuODQ=)"
     id="circle75"
     transform="translate(0,-22)" />
  <circle
     cx="76.419998"
     cy="190.45"
     r="1.95"
     style="fill:#74add1;fill-opacity:0.75;stroke:#74add1;stroke-width:0.71;stroke-opacity:0.75"
     clip-path="url(#cpMjguMDB8MTc0LjUyfDI5Mi45NHwxMDEuODQ=)"
     id="circle77"
     transform="translate(0,-22)" />
  <circle
     cx="59.099998"
     cy="190.45"
     r="1.95"
     style="fill:#74add1;fill-opacity:0.75;stroke:#74add1;stroke-width:0.71;stroke-opacity:0.75"
     clip-path="url(#cpMjguMDB8MTc0LjUyfDI5Mi45NHwxMDEuODQ=)"
     id="circle79"
     transform="translate(0,-22)" />
  <circle
     cx="136.44"
     cy="192.75"
     r="1.95"
     style="fill:#f46d43;fill-opacity:0.75;stroke:#f46d43;stroke-width:0.71;stroke-opacity:0.75"
     clip-path="url(#cpMjguMDB8MTc0LjUyfDI5Mi45NHwxMDEuODQ=)"
     id="circle81"
     transform="translate(0,-22)" />
  <circle
     cx="63.799999"
     cy="193.99001"
     r="1.95"
     style="fill:#74add1;fill-opacity:0.75;stroke:#74add1;stroke-width:0.71;stroke-opacity:0.75"
     clip-path="url(#cpMjguMDB8MTc0LjUyfDI5Mi45NHwxMDEuODQ=)"
     id="circle83"
     transform="translate(0,-22)" />
  <circle
     cx="107.94"
     cy="197.28"
     r="1.95"
     style="fill:#f46d43;fill-opacity:0.75;stroke:#f46d43;stroke-width:0.71;stroke-opacity:0.75"
     clip-path="url(#cpMjguMDB8MTc0LjUyfDI5Mi45NHwxMDEuODQ=)"
     id="circle85"
     transform="translate(0,-22)" />
  <circle
     cx="94.949997"
     cy="197.82001"
     r="1.95"
     style="fill:#74add1;fill-opacity:0.75;stroke:#74add1;stroke-width:0.71;stroke-opacity:0.75"
     clip-path="url(#cpMjguMDB8MTc0LjUyfDI5Mi45NHwxMDEuODQ=)"
     id="circle87"
     transform="translate(0,-22)" />
  <circle
     cx="111.68"
     cy="198.25999"
     r="1.95"
     style="fill:#f46d43;fill-opacity:0.75;stroke:#f46d43;stroke-width:0.71;stroke-opacity:0.75"
     clip-path="url(#cpMjguMDB8MTc0LjUyfDI5Mi45NHwxMDEuODQ=)"
     id="circle89"
     transform="translate(0,-22)" />
  <circle
     cx="98.959999"
     cy="200.86"
     r="1.95"
     style="fill:#74add1;fill-opacity:0.75;stroke:#74add1;stroke-width:0.71;stroke-opacity:0.75"
     clip-path="url(#cpMjguMDB8MTc0LjUyfDI5Mi45NHwxMDEuODQ=)"
     id="circle91"
     transform="translate(0,-22)" />
  <circle
     cx="137.33"
     cy="202.60001"
     r="1.95"
     style="fill:#f46d43;fill-opacity:0.75;stroke:#f46d43;stroke-width:0.71;stroke-opacity:0.75"
     clip-path="url(#cpMjguMDB8MTc0LjUyfDI5Mi45NHwxMDEuODQ=)"
     id="circle93"
     transform="translate(0,-22)" />
  <circle
     cx="117.16"
     cy="202.60001"
     r="1.95"
     style="fill:#f46d43;fill-opacity:0.75;stroke:#f46d43;stroke-width:0.71;stroke-opacity:0.75"
     clip-path="url(#cpMjguMDB8MTc0LjUyfDI5Mi45NHwxMDEuODQ=)"
     id="circle95"
     transform="translate(0,-22)" />
  <circle
     cx="106.01"
     cy="208.67999"
     r="1.95"
     style="fill:#f46d43;fill-opacity:0.75;stroke:#f46d43;stroke-width:0.71;stroke-opacity:0.75"
     clip-path="url(#cpMjguMDB8MTc0LjUyfDI5Mi45NHwxMDEuODQ=)"
     id="circle97"
     transform="translate(0,-22)" />
  <circle
     cx="111.78"
     cy="208.67999"
     r="1.95"
     style="fill:#f46d43;fill-opacity:0.75;stroke:#f46d43;stroke-width:0.71;stroke-opacity:0.75"
     clip-path="url(#cpMjguMDB8MTc0LjUyfDI5Mi45NHwxMDEuODQ=)"
     id="circle99"
     transform="translate(0,-22)" />
  <circle
     cx="98.760002"
     cy="210.42"
     r="1.95"
     style="fill:#74add1;fill-opacity:0.75;stroke:#74add1;stroke-width:0.71;stroke-opacity:0.75"
     clip-path="url(#cpMjguMDB8MTc0LjUyfDI5Mi45NHwxMDEuODQ=)"
     id="circle101"
     transform="translate(0,-22)" />
  <circle
     cx="107.08"
     cy="210.42"
     r="1.95"
     style="fill:#f46d43;fill-opacity:0.75;stroke:#f46d43;stroke-width:0.71;stroke-opacity:0.75"
     clip-path="url(#cpMjguMDB8MTc0LjUyfDI5Mi45NHwxMDEuODQ=)"
     id="circle103"
     transform="translate(0,-22)" />
  <circle
     cx="151.42"
     cy="210.42"
     r="1.95"
     style="fill:#f46d43;fill-opacity:0.75;stroke:#f46d43;stroke-width:0.71;stroke-opacity:0.75"
     clip-path="url(#cpMjguMDB8MTc0LjUyfDI5Mi45NHwxMDEuODQ=)"
     id="circle105"
     transform="translate(0,-22)" />
  <circle
     cx="154.64999"
     cy="210.42"
     r="1.95"
     style="fill:#f46d43;fill-opacity:0.75;stroke:#f46d43;stroke-width:0.71;stroke-opacity:0.75"
     clip-path="url(#cpMjguMDB8MTc0LjUyfDI5Mi45NHwxMDEuODQ=)"
     id="circle107"
     transform="translate(0,-22)" />
  <circle
     cx="111.59"
     cy="210.42"
     r="1.95"
     style="fill:#f46d43;fill-opacity:0.75;stroke:#f46d43;stroke-width:0.71;stroke-opacity:0.75"
     clip-path="url(#cpMjguMDB8MTc0LjUyfDI5Mi45NHwxMDEuODQ=)"
     id="circle109"
     transform="translate(0,-22)" />
  <circle
     cx="127.34"
     cy="210.42"
     r="1.95"
     style="fill:#f46d43;fill-opacity:0.75;stroke:#f46d43;stroke-width:0.71;stroke-opacity:0.75"
     clip-path="url(#cpMjguMDB8MTc0LjUyfDI5Mi45NHwxMDEuODQ=)"
     id="circle111"
     transform="translate(0,-22)" />
  <circle
     cx="108.55"
     cy="213.89"
     r="1.95"
     style="fill:#f46d43;fill-opacity:0.75;stroke:#f46d43;stroke-width:0.71;stroke-opacity:0.75"
     clip-path="url(#cpMjguMDB8MTc0LjUyfDI5Mi45NHwxMDEuODQ=)"
     id="circle113"
     transform="translate(0,-22)" />
  <circle
     cx="93.480003"
     cy="214.33"
     r="1.95"
     style="fill:#74add1;fill-opacity:0.75;stroke:#74add1;stroke-width:0.71;stroke-opacity:0.75"
     clip-path="url(#cpMjguMDB8MTc0LjUyfDI5Mi45NHwxMDEuODQ=)"
     id="circle115"
     transform="translate(0,-22)" />
  <circle
     cx="112.17"
     cy="216.07001"
     r="1.95"
     style="fill:#f46d43;fill-opacity:0.75;stroke:#f46d43;stroke-width:0.71;stroke-opacity:0.75"
     clip-path="url(#cpMjguMDB8MTc0LjUyfDI5Mi45NHwxMDEuODQ=)"
     id="circle117"
     transform="translate(0,-22)" />
  <circle
     cx="70.580002"
     cy="216.07001"
     r="1.95"
     style="fill:#74add1;fill-opacity:0.75;stroke:#74add1;stroke-width:0.71;stroke-opacity:0.75"
     clip-path="url(#cpMjguMDB8MTc0LjUyfDI5Mi45NHwxMDEuODQ=)"
     id="circle119"
     transform="translate(0,-22)" />
  <circle
     cx="112.17"
     cy="216.92999"
     r="1.95"
     style="fill:#f46d43;fill-opacity:0.75;stroke:#f46d43;stroke-width:0.71;stroke-opacity:0.75"
     clip-path="url(#cpMjguMDB8MTc0LjUyfDI5Mi45NHwxMDEuODQ=)"
     id="circle121"
     transform="translate(0,-22)" />
  <circle
     cx="141.34"
     cy="216.92999"
     r="1.95"
     style="fill:#f46d43;fill-opacity:0.75;stroke:#f46d43;stroke-width:0.71;stroke-opacity:0.75"
     clip-path="url(#cpMjguMDB8MTc0LjUyfDI5Mi45NHwxMDEuODQ=)"
     id="circle123"
     transform="translate(0,-22)" />
  <circle
     cx="112.96"
     cy="216.92999"
     r="1.95"
     style="fill:#f46d43;fill-opacity:0.75;stroke:#f46d43;stroke-width:0.71;stroke-opacity:0.75"
     clip-path="url(#cpMjguMDB8MTc0LjUyfDI5Mi45NHwxMDEuODQ=)"
     id="circle125"
     transform="translate(0,-22)" />
  <circle
     cx="108.85"
     cy="216.92999"
     r="1.95"
     style="fill:#f46d43;fill-opacity:0.75;stroke:#f46d43;stroke-width:0.71;stroke-opacity:0.75"
     clip-path="url(#cpMjguMDB8MTc0LjUyfDI5Mi45NHwxMDEuODQ=)"
     id="circle127"
     transform="translate(0,-22)" />
  <circle
     cx="110.12"
     cy="217.37"
     r="1.95"
     style="fill:#f46d43;fill-opacity:0.75;stroke:#f46d43;stroke-width:0.71;stroke-opacity:0.75"
     clip-path="url(#cpMjguMDB8MTc0LjUyfDI5Mi45NHwxMDEuODQ=)"
     id="circle129"
     transform="translate(0,-22)" />
  <circle
     cx="98.279999"
     cy="217.37"
     r="1.95"
     style="fill:#74add1;fill-opacity:0.75;stroke:#74add1;stroke-width:0.71;stroke-opacity:0.75"
     clip-path="url(#cpMjguMDB8MTc0LjUyfDI5Mi45NHwxMDEuODQ=)"
     id="circle131"
     transform="translate(0,-22)" />
  <circle
     cx="121.76"
     cy="217.37"
     r="1.95"
     style="fill:#f46d43;fill-opacity:0.75;stroke:#f46d43;stroke-width:0.71;stroke-opacity:0.75"
     clip-path="url(#cpMjguMDB8MTc0LjUyfDI5Mi45NHwxMDEuODQ=)"
     id="circle133"
     transform="translate(0,-22)" />
  <circle
     cx="126.07"
     cy="217.37"
     r="1.95"
     style="fill:#f46d43;fill-opacity:0.75;stroke:#f46d43;stroke-width:0.71;stroke-opacity:0.75"
     clip-path="url(#cpMjguMDB8MTc0LjUyfDI5Mi45NHwxMDEuODQ=)"
     id="circle135"
     transform="translate(0,-22)" />
  <circle
     cx="111.39"
     cy="217.37"
     r="1.95"
     style="fill:#f46d43;fill-opacity:0.75;stroke:#f46d43;stroke-width:0.71;stroke-opacity:0.75"
     clip-path="url(#cpMjguMDB8MTc0LjUyfDI5Mi45NHwxMDEuODQ=)"
     id="circle137"
     transform="translate(0,-22)" />
  <circle
     cx="106.89"
     cy="217.37"
     r="1.95"
     style="fill:#f46d43;fill-opacity:0.75;stroke:#f46d43;stroke-width:0.71;stroke-opacity:0.75"
     clip-path="url(#cpMjguMDB8MTc0LjUyfDI5Mi45NHwxMDEuODQ=)"
     id="circle139"
     transform="translate(0,-22)" />
  <circle
     cx="62.259998"
     cy="217.37"
     r="1.95"
     style="fill:#74add1;fill-opacity:0.75;stroke:#74add1;stroke-width:0.71;stroke-opacity:0.75"
     clip-path="url(#cpMjguMDB8MTc0LjUyfDI5Mi45NHwxMDEuODQ=)"
     id="circle141"
     transform="translate(0,-22)" />
  <circle
     cx="114.42"
     cy="217.37"
     r="1.95"
     style="fill:#f46d43;fill-opacity:0.75;stroke:#f46d43;stroke-width:0.71;stroke-opacity:0.75"
     clip-path="url(#cpMjguMDB8MTc0LjUyfDI5Mi45NHwxMDEuODQ=)"
     id="circle143"
     transform="translate(0,-22)" />
  <circle
     cx="96.510002"
     cy="218.24001"
     r="1.95"
     style="fill:#74add1;fill-opacity:0.75;stroke:#74add1;stroke-width:0.71;stroke-opacity:0.75"
     clip-path="url(#cpMjguMDB8MTc0LjUyfDI5Mi45NHwxMDEuODQ=)"
     id="circle145"
     transform="translate(0,-22)" />
  <circle
     cx="107.18"
     cy="218.24001"
     r="1.95"
     style="fill:#f46d43;fill-opacity:0.75;stroke:#f46d43;stroke-width:0.71;stroke-opacity:0.75"
     clip-path="url(#cpMjguMDB8MTc0LjUyfDI5Mi45NHwxMDEuODQ=)"
     id="circle147"
     transform="translate(0,-22)" />
  <circle
     cx="130.38"
     cy="218.67"
     r="1.95"
     style="fill:#f46d43;fill-opacity:0.75;stroke:#f46d43;stroke-width:0.71;stroke-opacity:0.75"
     clip-path="url(#cpMjguMDB8MTc0LjUyfDI5Mi45NHwxMDEuODQ=)"
     id="circle149"
     transform="translate(0,-22)" />
  <circle
     cx="140.36"
     cy="219.11"
     r="1.95"
     style="fill:#f46d43;fill-opacity:0.75;stroke:#f46d43;stroke-width:0.71;stroke-opacity:0.75"
     clip-path="url(#cpMjguMDB8MTc0LjUyfDI5Mi45NHwxMDEuODQ=)"
     id="circle151"
     transform="translate(0,-22)" />
  <circle
     cx="93.580002"
     cy="219.11"
     r="1.95"
     style="fill:#74add1;fill-opacity:0.75;stroke:#74add1;stroke-width:0.71;stroke-opacity:0.75"
     clip-path="url(#cpMjguMDB8MTc0LjUyfDI5Mi45NHwxMDEuODQ=)"
     id="circle153"
     transform="translate(0,-22)" />
  <circle
     cx="109.14"
     cy="219.53999"
     r="1.95"
     style="fill:#f46d43;fill-opacity:0.75;stroke:#f46d43;stroke-width:0.71;stroke-opacity:0.75"
     clip-path="url(#cpMjguMDB8MTc0LjUyfDI5Mi45NHwxMDEuODQ=)"
     id="circle155"
     transform="translate(0,-22)" />
  <circle
     cx="111.29"
     cy="219.53999"
     r="1.95"
     style="fill:#f46d43;fill-opacity:0.75;stroke:#f46d43;stroke-width:0.71;stroke-opacity:0.75"
     clip-path="url(#cpMjguMDB8MTc0LjUyfDI5Mi45NHwxMDEuODQ=)"
     id="circle157"
     transform="translate(0,-22)" />
  <circle
     cx="95.730003"
     cy="219.53999"
     r="1.95"
     style="fill:#74add1;fill-opacity:0.75;stroke:#74add1;stroke-width:0.71;stroke-opacity:0.75"
     clip-path="url(#cpMjguMDB8MTc0LjUyfDI5Mi45NHwxMDEuODQ=)"
     id="circle159"
     transform="translate(0,-22)" />
  <circle
     cx="148.67999"
     cy="220.84"
     r="1.95"
     style="fill:#f46d43;fill-opacity:0.75;stroke:#f46d43;stroke-width:0.71;stroke-opacity:0.75"
     clip-path="url(#cpMjguMDB8MTc0LjUyfDI5Mi45NHwxMDEuODQ=)"
     id="circle161"
     transform="translate(0,-22)" />
  <circle
     cx="160.42"
     cy="223.45"
     r="1.95"
     style="fill:#f46d43;fill-opacity:0.75;stroke:#f46d43;stroke-width:0.71;stroke-opacity:0.75"
     clip-path="url(#cpMjguMDB8MTc0LjUyfDI5Mi45NHwxMDEuODQ=)"
     id="circle163"
     transform="translate(0,-22)" />
  <circle
     cx="126.95"
     cy="223.88"
     r="1.95"
     style="fill:#f46d43;fill-opacity:0.75;stroke:#f46d43;stroke-width:0.71;stroke-opacity:0.75"
     clip-path="url(#cpMjguMDB8MTc0LjUyfDI5Mi45NHwxMDEuODQ=)"
     id="circle165"
     transform="translate(0,-22)" />
  <circle
     cx="118.73"
     cy="223.88"
     r="1.95"
     style="fill:#f46d43;fill-opacity:0.75;stroke:#f46d43;stroke-width:0.71;stroke-opacity:0.75"
     clip-path="url(#cpMjguMDB8MTc0LjUyfDI5Mi45NHwxMDEuODQ=)"
     id="circle167"
     transform="translate(0,-22)" />
  <circle
     cx="107.18"
     cy="224.75"
     r="1.95"
     style="fill:#f46d43;fill-opacity:0.75;stroke:#f46d43;stroke-width:0.71;stroke-opacity:0.75"
     clip-path="url(#cpMjguMDB8MTc0LjUyfDI5Mi45NHwxMDEuODQ=)"
     id="circle169"
     transform="translate(0,-22)" />
  <circle
     cx="93.970001"
     cy="224.75"
     r="1.95"
     style="fill:#74add1;fill-opacity:0.75;stroke:#74add1;stroke-width:0.71;stroke-opacity:0.75"
     clip-path="url(#cpMjguMDB8MTc0LjUyfDI5Mi45NHwxMDEuODQ=)"
     id="circle171"
     transform="translate(0,-22)" />
  <circle
     cx="107.57"
     cy="224.75"
     r="1.95"
     style="fill:#f46d43;fill-opacity:0.75;stroke:#f46d43;stroke-width:0.71;stroke-opacity:0.75"
     clip-path="url(#cpMjguMDB8MTc0LjUyfDI5Mi45NHwxMDEuODQ=)"
     id="circle173"
     transform="translate(0,-22)" />
  <circle
     cx="112.27"
     cy="225.62"
     r="1.95"
     style="fill:#f46d43;fill-opacity:0.75;stroke:#f46d43;stroke-width:0.71;stroke-opacity:0.75"
     clip-path="url(#cpMjguMDB8MTc0LjUyfDI5Mi45NHwxMDEuODQ=)"
     id="circle175"
     transform="translate(0,-22)" />
  <circle
     cx="106.5"
     cy="225.62"
     r="1.95"
     style="fill:#f46d43;fill-opacity:0.75;stroke:#f46d43;stroke-width:0.71;stroke-opacity:0.75"
     clip-path="url(#cpMjguMDB8MTc0LjUyfDI5Mi45NHwxMDEuODQ=)"
     id="circle177"
     transform="translate(0,-22)" />
  <circle
     cx="106.99"
     cy="227.36"
     r="1.95"
     style="fill:#f46d43;fill-opacity:0.75;stroke:#f46d43;stroke-width:0.71;stroke-opacity:0.75"
     clip-path="url(#cpMjguMDB8MTc0LjUyfDI5Mi45NHwxMDEuODQ=)"
     id="circle179"
     transform="translate(0,-22)" />
  <circle
     cx="73.910004"
     cy="227.36"
     r="1.95"
     style="fill:#74add1;fill-opacity:0.75;stroke:#74add1;stroke-width:0.71;stroke-opacity:0.75"
     clip-path="url(#cpMjguMDB8MTc0LjUyfDI5Mi45NHwxMDEuODQ=)"
     id="circle181"
     transform="translate(0,-22)" />
  <circle
     cx="109.04"
     cy="228.23"
     r="1.95"
     style="fill:#f46d43;fill-opacity:0.75;stroke:#f46d43;stroke-width:0.71;stroke-opacity:0.75"
     clip-path="url(#cpMjguMDB8MTc0LjUyfDI5Mi45NHwxMDEuODQ=)"
     id="circle183"
     transform="translate(0,-22)" />
  <circle
     cx="106.3"
     cy="228.66"
     r="1.95"
     style="fill:#f46d43;fill-opacity:0.75;stroke:#f46d43;stroke-width:0.71;stroke-opacity:0.75"
     clip-path="url(#cpMjguMDB8MTc0LjUyfDI5Mi45NHwxMDEuODQ=)"
     id="circle185"
     transform="translate(0,-22)" />
  <circle
     cx="58.540001"
     cy="229.96001"
     r="1.95"
     style="fill:#74add1;fill-opacity:0.75;stroke:#74add1;stroke-width:0.71;stroke-opacity:0.75"
     clip-path="url(#cpMjguMDB8MTc0LjUyfDI5Mi45NHwxMDEuODQ=)"
     id="circle187"
     transform="translate(0,-22)" />
  <circle
     cx="118.63"
     cy="229.96001"
     r="1.95"
     style="fill:#f46d43;fill-opacity:0.75;stroke:#f46d43;stroke-width:0.71;stroke-opacity:0.75"
     clip-path="url(#cpMjguMDB8MTc0LjUyfDI5Mi45NHwxMDEuODQ=)"
     id="circle189"
     transform="translate(0,-22)" />
  <circle
     cx="111.68"
     cy="230.39999"
     r="1.95"
     style="fill:#f46d43;fill-opacity:0.75;stroke:#f46d43;stroke-width:0.71;stroke-opacity:0.75"
     clip-path="url(#cpMjguMDB8MTc0LjUyfDI5Mi45NHwxMDEuODQ=)"
     id="circle191"
     transform="translate(0,-22)" />
  <circle
     cx="107.18"
     cy="232.14"
     r="1.95"
     style="fill:#f46d43;fill-opacity:0.75;stroke:#f46d43;stroke-width:0.71;stroke-opacity:0.75"
     clip-path="url(#cpMjguMDB8MTc0LjUyfDI5Mi45NHwxMDEuODQ=)"
     id="circle193"
     transform="translate(0,-22)" />
  <circle
     cx="138.99001"
     cy="232.57001"
     r="1.95"
     style="fill:#f46d43;fill-opacity:0.75;stroke:#f46d43;stroke-width:0.71;stroke-opacity:0.75"
     clip-path="url(#cpMjguMDB8MTc0LjUyfDI5Mi45NHwxMDEuODQ=)"
     id="circle195"
     transform="translate(0,-22)" />
  <circle
     cx="111.19"
     cy="232.57001"
     r="1.95"
     style="fill:#f46d43;fill-opacity:0.75;stroke:#f46d43;stroke-width:0.71;stroke-opacity:0.75"
     clip-path="url(#cpMjguMDB8MTc0LjUyfDI5Mi45NHwxMDEuODQ=)"
     id="circle197"
     transform="translate(0,-22)" />
  <circle
     cx="131.25999"
     cy="232.57001"
     r="1.95"
     style="fill:#f46d43;fill-opacity:0.75;stroke:#f46d43;stroke-width:0.71;stroke-opacity:0.75"
     clip-path="url(#cpMjguMDB8MTc0LjUyfDI5Mi45NHwxMDEuODQ=)"
     id="circle199"
     transform="translate(0,-22)" />
  <circle
     cx="98.370003"
     cy="232.57001"
     r="1.95"
     style="fill:#74add1;fill-opacity:0.75;stroke:#74add1;stroke-width:0.71;stroke-opacity:0.75"
     clip-path="url(#cpMjguMDB8MTc0LjUyfDI5Mi45NHwxMDEuODQ=)"
     id="circle201"
     transform="translate(0,-22)" />
  <circle
     cx="101.31"
     cy="232.57001"
     r="1.95"
     style="fill:#74add1;fill-opacity:0.75;stroke:#74add1;stroke-width:0.71;stroke-opacity:0.75"
     clip-path="url(#cpMjguMDB8MTc0LjUyfDI5Mi45NHwxMDEuODQ=)"
     id="circle203"
     transform="translate(0,-22)" />
  <circle
     cx="98.669998"
     cy="236.05"
     r="1.95"
     style="fill:#74add1;fill-opacity:0.75;stroke:#74add1;stroke-width:0.71;stroke-opacity:0.75"
     clip-path="url(#cpMjguMDB8MTc0LjUyfDI5Mi45NHwxMDEuODQ=)"
     id="circle205"
     transform="translate(0,-22)" />
  <circle
     cx="108.06"
     cy="236.05"
     r="1.95"
     style="fill:#f46d43;fill-opacity:0.75;stroke:#f46d43;stroke-width:0.71;stroke-opacity:0.75"
     clip-path="url(#cpMjguMDB8MTc0LjUyfDI5Mi45NHwxMDEuODQ=)"
     id="circle207"
     transform="translate(0,-22)" />
  <circle
     cx="86.040001"
     cy="236.48"
     r="1.95"
     style="fill:#74add1;fill-opacity:0.75;stroke:#74add1;stroke-width:0.71;stroke-opacity:0.75"
     clip-path="url(#cpMjguMDB8MTc0LjUyfDI5Mi45NHwxMDEuODQ=)"
     id="circle209"
     transform="translate(0,-22)" />
  <circle
     cx="108.06"
     cy="236.91"
     r="1.95"
     style="fill:#f46d43;fill-opacity:0.75;stroke:#f46d43;stroke-width:0.71;stroke-opacity:0.75"
     clip-path="url(#cpMjguMDB8MTc0LjUyfDI5Mi45NHwxMDEuODQ=)"
     id="circle211"
     transform="translate(0,-22)" />
  <circle
     cx="99.739998"
     cy="236.91"
     r="1.95"
     style="fill:#74add1;fill-opacity:0.75;stroke:#74add1;stroke-width:0.71;stroke-opacity:0.75"
     clip-path="url(#cpMjguMDB8MTc0LjUyfDI5Mi45NHwxMDEuODQ=)"
     id="circle213"
     transform="translate(0,-22)" />
  <circle
     cx="91.82"
     cy="237.35001"
     r="1.95"
     style="fill:#74add1;fill-opacity:0.75;stroke:#74add1;stroke-width:0.71;stroke-opacity:0.75"
     clip-path="url(#cpMjguMDB8MTc0LjUyfDI5Mi45NHwxMDEuODQ=)"
     id="circle215"
     transform="translate(0,-22)" />
  <circle
     cx="108.26"
     cy="237.35001"
     r="1.95"
     style="fill:#f46d43;fill-opacity:0.75;stroke:#f46d43;stroke-width:0.71;stroke-opacity:0.75"
     clip-path="url(#cpMjguMDB8MTc0LjUyfDI5Mi45NHwxMDEuODQ=)"
     id="circle217"
     transform="translate(0,-22)" />
  <circle
     cx="108.94"
     cy="237.35001"
     r="1.95"
     style="fill:#f46d43;fill-opacity:0.75;stroke:#f46d43;stroke-width:0.71;stroke-opacity:0.75"
     clip-path="url(#cpMjguMDB8MTc0LjUyfDI5Mi45NHwxMDEuODQ=)"
     id="circle219"
     transform="translate(0,-22)" />
  <circle
     cx="117.07"
     cy="237.78"
     r="1.95"
     style="fill:#f46d43;fill-opacity:0.75;stroke:#f46d43;stroke-width:0.71;stroke-opacity:0.75"
     clip-path="url(#cpMjguMDB8MTc0LjUyfDI5Mi45NHwxMDEuODQ=)"
     id="circle221"
     transform="translate(0,-22)" />
  <circle
     cx="108.36"
     cy="238.22"
     r="1.95"
     style="fill:#f46d43;fill-opacity:0.75;stroke:#f46d43;stroke-width:0.71;stroke-opacity:0.75"
     clip-path="url(#cpMjguMDB8MTc0LjUyfDI5Mi45NHwxMDEuODQ=)"
     id="circle223"
     transform="translate(0,-22)" />
  <circle
     cx="62.259998"
     cy="238.22"
     r="1.95"
     style="fill:#74add1;fill-opacity:0.75;stroke:#74add1;stroke-width:0.71;stroke-opacity:0.75"
     clip-path="url(#cpMjguMDB8MTc0LjUyfDI5Mi45NHwxMDEuODQ=)"
     id="circle225"
     transform="translate(0,-22)" />
  <circle
     cx="107.87"
     cy="238.22"
     r="1.95"
     style="fill:#f46d43;fill-opacity:0.75;stroke:#f46d43;stroke-width:0.71;stroke-opacity:0.75"
     clip-path="url(#cpMjguMDB8MTc0LjUyfDI5Mi45NHwxMDEuODQ=)"
     id="circle227"
     transform="translate(0,-22)" />
  <circle
     cx="97.389999"
     cy="238.64999"
     r="1.95"
     style="fill:#74add1;fill-opacity:0.75;stroke:#74add1;stroke-width:0.71;stroke-opacity:0.75"
     clip-path="url(#cpMjguMDB8MTc0LjUyfDI5Mi45NHwxMDEuODQ=)"
     id="circle229"
     transform="translate(0,-22)" />
  <circle
     cx="78.019997"
     cy="238.64999"
     r="1.95"
     style="fill:#74add1;fill-opacity:0.75;stroke:#74add1;stroke-width:0.71;stroke-opacity:0.75"
     clip-path="url(#cpMjguMDB8MTc0LjUyfDI5Mi45NHwxMDEuODQ=)"
     id="circle231"
     transform="translate(0,-22)" />
  <circle
     cx="34.66"
     cy="238.64999"
     r="1.95"
     style="fill:#74add1;fill-opacity:0.75;stroke:#74add1;stroke-width:0.71;stroke-opacity:0.75"
     clip-path="url(#cpMjguMDB8MTc0LjUyfDI5Mi45NHwxMDEuODQ=)"
     id="circle233"
     transform="translate(0,-22)" />
  <circle
     cx="99.650002"
     cy="238.64999"
     r="1.95"
     style="fill:#74add1;fill-opacity:0.75;stroke:#74add1;stroke-width:0.71;stroke-opacity:0.75"
     clip-path="url(#cpMjguMDB8MTc0LjUyfDI5Mi45NHwxMDEuODQ=)"
     id="circle235"
     transform="translate(0,-22)" />
  <circle
     cx="155.33"
     cy="238.64999"
     r="1.95"
     style="fill:#f46d43;fill-opacity:0.75;stroke:#f46d43;stroke-width:0.71;stroke-opacity:0.75"
     clip-path="url(#cpMjguMDB8MTc0LjUyfDI5Mi45NHwxMDEuODQ=)"
     id="circle237"
     transform="translate(0,-22)" />
  <circle
     cx="108.45"
     cy="239.52"
     r="1.95"
     style="fill:#f46d43;fill-opacity:0.75;stroke:#f46d43;stroke-width:0.71;stroke-opacity:0.75"
     clip-path="url(#cpMjguMDB8MTc0LjUyfDI5Mi45NHwxMDEuODQ=)"
     id="circle239"
     transform="translate(0,-22)" />
  <circle
     cx="100.53"
     cy="240.39"
     r="1.95"
     style="fill:#74add1;fill-opacity:0.75;stroke:#74add1;stroke-width:0.71;stroke-opacity:0.75"
     clip-path="url(#cpMjguMDB8MTc0LjUyfDI5Mi45NHwxMDEuODQ=)"
     id="circle241"
     transform="translate(0,-22)" />
  <path
     style="fill:#999999;fill-opacity:0.75;stroke:#999999;stroke-width:0.71;stroke-opacity:0.75"
     clip-path="url(#cpMjguMDB8MTc0LjUyfDI5Mi45NHwxMDEuODQ=)"
     d="m 107.96094,238.86914 a 1.95,1.95 0 0 0 -1.95117,1.95117 1.95,1.95 0 0 0 0.40625,1.1875 1.95,1.95 0 0 0 -0.60547,-0.0977 1.95,1.95 0 0 0 -1.70899,1.01172 1.95,1.95 0 0 0 -1.2207,1.80859 1.95,1.95 0 0 0 1.94922,1.94922 1.95,1.95 0 0 0 1.70898,-1.01172 1.95,1.95 0 0 0 0.0586,-0.0273 1.95,1.95 0 0 0 -0.1875,0.82422 1.95,1.95 0 0 0 -0.75782,0.67188 1.95,1.95 0 0 0 -1.79296,1.94336 1.95,1.95 0 0 0 1.18164,1.79297 1.95,1.95 0 0 0 0.008,0.10547 1.95,1.95 0 0 0 -0.79883,1.57226 1.95,1.95 0 0 0 0.61133,1.41406 1.95,1.95 0 0 0 -0.41211,1.19532 1.95,1.95 0 0 0 0.0137,0.20703 1.95,1.95 0 0 0 -0.0137,0.22265 1.95,1.95 0 0 0 0.01,0.17578 1.95,1.95 0 0 0 -0.78906,1.56446 1.95,1.95 0 0 0 0.52539,1.33008 1.95,1.95 0 0 0 -0.0449,0.41015 1.95,1.95 0 0 0 0.0723,0.52539 1.95,1.95 0 0 0 -0.16211,0.77344 1.95,1.95 0 0 0 0.16015,0.77148 1.95,1.95 0 0 0 -0.25976,0.96876 1.95,1.95 0 0 0 0.0684,0.50976 1.95,1.95 0 0 0 -0.16211,0.63086 1.95,1.95 0 0 0 -0.29688,1.0293 1.95,1.95 0 0 0 0.29883,1.03711 1.95,1.95 0 0 0 0.21094,0.73242 1.95,1.95 0 0 0 -0.24024,0.1582 1.95,1.95 0 0 1 0,-0.002 1.95,1.95 0 0 0 0.01,-0.19531 1.95,1.95 0 0 0 -0.3125,-1.05665 1.95,1.95 0 0 0 -0.25391,-0.7832 1.95,1.95 0 0 0 -0.0879,-0.23828 1.95,1.95 0 0 0 0.24024,-0.73828 1.95,1.95 0 0 0 0.11523,-0.6543 1.95,1.95 0 0 0 -0.0371,-0.36718 1.95,1.95 0 0 0 0.23633,-0.93165 1.95,1.95 0 0 0 -0.19922,-0.85546 1.95,1.95 0 0 0 0,-0.0156 1.95,1.95 0 0 0 -0.20703,-0.87109 1.95,1.95 0 0 0 0.20703,-0.86719 1.95,1.95 0 0 0 -0.17187,-0.79102 1.95,1.95 0 0 0 0.0703,-0.50976 1.95,1.95 0 0 0 -0.60547,-1.41016 1.95,1.95 0 0 0 0.41602,-1.19922 1.95,1.95 0 0 0 -1.94922,-1.95117 1.95,1.95 0 0 0 -0.0547,0.002 1.95,1.95 0 0 0 -0.0449,-0.002 1.95,1.95 0 0 0 -0.11524,0.006 1.95,1.95 0 0 0 0.002,-0.0176 1.95,1.95 0 0 0 1.87304,-1.94726 1.95,1.95 0 0 0 -0.3164,-1.06446 1.95,1.95 0 0 0 0.0156,-0.23632 1.95,1.95 0 0 0 -0.0137,-0.21289 1.95,1.95 0 0 0 0.0137,-0.2168 1.95,1.95 0 0 0 -0.12304,-0.67578 1.95,1.95 0 0 0 0.71289,-1.50391 1.95,1.95 0 0 0 -1.21485,-1.80664 1.95,1.95 0 0 0 0.0352,-0.36328 1.95,1.95 0 0 0 -0.0508,-0.43555 1.95,1.95 0 0 0 0.0508,-0.43554 1.95,1.95 0 0 0 -0.11328,-0.6504 1.95,1.95 0 0 0 0.11328,-0.64843 1.95,1.95 0 0 0 -1.6836,-1.92969 1.95,1.95 0 0 0 -1.636714,-0.89063 1.95,1.95 0 0 0 -1.949219,1.94922 1.95,1.95 0 0 0 0.378906,1.15235 1.95,1.95 0 0 0 -0.478515,-0.0625 1.95,1.95 0 0 0 -1.951172,1.95117 1.95,1.95 0 0 0 0.599609,1.4043 1.95,1.95 0 0 0 -0.785156,1.00781 1.95,1.95 0 0 0 -0.214844,-0.0117 1.95,1.95 0 0 0 -1.949219,1.94922 1.95,1.95 0 0 0 0.02539,0.3125 1.95,1.95 0 0 0 -0.457031,0.64844 1.95,1.95 0 0 0 -0.310547,-0.3125 1.95,1.95 0 0 0 0.332031,-1.0879 1.95,1.95 0 0 0 -1.949219,-1.95117 1.95,1.95 0 0 0 -1.951172,1.95117 1.95,1.95 0 0 0 0.732422,1.51954 A 1.95,1.95 0 0 0 88.5,251.25 a 1.95,1.95 0 0 0 0.703125,1.49805 1.95,1.95 0 0 0 -0.123047,0.67187 1.95,1.95 0 0 0 1.283203,1.83008 1.95,1.95 0 0 0 0.189453,0.75 1.95,1.95 0 0 0 -0.002,0.0195 1.95,1.95 0 0 0 1.949219,1.95117 1.95,1.95 0 0 0 0.541016,-0.0781 1.95,1.95 0 0 0 1.318359,0.51758 1.95,1.95 0 0 0 0.927734,-0.23633 1.95,1.95 0 0 0 0.205079,0.0937 1.95,1.95 0 0 0 0.320312,0.43359 1.95,1.95 0 0 0 -0.0332,0.0742 1.95,1.95 0 0 0 -0.830078,1.59375 1.95,1.95 0 0 0 0.01758,0.24219 1.95,1.95 0 0 0 -1.677735,1.92773 1.95,1.95 0 0 0 0.337891,1.09375 1.95,1.95 0 0 0 -0.166015,0.15235 1.95,1.95 0 0 1 -0.002,-0.002 1.95,1.95 0 0 0 -0.484375,-0.13086 1.95,1.95 0 0 0 -1.84375,-1.32226 1.95,1.95 0 0 0 -0.410156,0.0449 1.95,1.95 0 0 0 -0.6875,-1.33008 1.95,1.95 0 0 0 0.01758,-0.24414 1.95,1.95 0 0 0 -1.951172,-1.95117 1.95,1.95 0 0 0 -1.949218,1.95117 1.95,1.95 0 0 0 0.11914,0.66797 1.95,1.95 0 0 0 -0.654297,1.05273 1.95,1.95 0 0 0 -1.435546,-0.63086 1.95,1.95 0 0 0 -1.949219,1.94922 1.95,1.95 0 0 0 1.949219,1.94922 1.95,1.95 0 0 0 1.048828,-0.30468 1.95,1.95 0 0 0 -0.257813,0.96484 1.95,1.95 0 0 0 0.666016,1.4668 1.95,1.95 0 0 0 -0.214844,0.3789 1.95,1.95 0 0 0 -1.921875,-1.625 1.95,1.95 0 0 0 -1.226562,0.4336 1.95,1.95 0 0 0 -1.222657,-0.4336 1.95,1.95 0 0 0 -1.423828,0.61914 1.95,1.95 0 0 0 -1.117187,1.76172 1.95,1.95 0 0 0 1.951172,1.94922 1.95,1.95 0 0 0 0.396484,-0.043 1.95,1.95 0 0 0 0.371094,0.66797 1.95,1.95 0 0 0 -0.863282,0.76367 1.95,1.95 0 0 0 -1.666015,-0.93945 1.95,1.95 0 0 0 -0.304688,0.0254 1.95,1.95 0 0 0 -0.21289,-0.44141 1.95,1.95 0 0 0 0.01758,-0.24414 1.95,1.95 0 0 0 -1.949219,-1.94922 1.95,1.95 0 0 0 -1.949219,1.94922 1.95,1.95 0 0 0 0.316407,1.06641 1.95,1.95 0 0 0 -0.01758,0.24414 1.95,1.95 0 0 0 1.117188,1.75977 1.95,1.95 0 0 0 -0.552735,0.44726 1.95,1.95 0 0 0 -0.964843,-0.25586 1.95,1.95 0 0 0 -0.541016,0.0762 1.95,1.95 0 0 0 0.142578,-0.72656 1.95,1.95 0 0 0 -1.951172,-1.95117 1.95,1.95 0 0 0 -1.230468,0.4414 1.95,1.95 0 0 0 0.341797,-1.10156 1.95,1.95 0 0 0 -1.951172,-1.94922 1.95,1.95 0 0 0 -1.949219,1.94922 1.95,1.95 0 0 0 1.376953,1.86524 1.95,1.95 0 0 0 -0.318359,0.63086 1.95,1.95 0 0 0 -0.269532,0.98437 1.95,1.95 0 0 0 1.154297,1.7793 1.95,1.95 0 0 0 -0.183594,0.82031 1.95,1.95 0 0 0 1.949219,1.95117 1.95,1.95 0 0 0 0.496094,-0.0664 1.95,1.95 0 0 0 1.384766,0.91211 1.95,1.95 0 0 0 1.939453,1.76367 1.95,1.95 0 0 0 0.492187,-0.0645 1.95,1.95 0 0 0 1.857422,1.36524 1.95,1.95 0 0 0 1.068359,-0.32031 1.95,1.95 0 0 0 -0.07812,0.53906 1.95,1.95 0 0 0 1.951171,1.95117 1.95,1.95 0 0 0 1.300782,-0.50195 1.95,1.95 0 0 0 0.361328,-0.13867 1.95,1.95 0 0 0 0.876953,0.21093 1.95,1.95 0 0 0 0.621094,-0.10547 1.95,1.95 0 0 0 0.9375,0.49219 1.95,1.95 0 0 0 0.449218,0.29297 1.95,1.95 0 0 0 1.421875,0.61914 1.95,1.95 0 0 0 1.291016,-0.49023 1.95,1.95 0 0 0 0.310547,0.0527 1.95,1.95 0 0 0 1.228516,0.4375 1.95,1.95 0 0 0 0.392578,-0.041 1.95,1.95 0 0 0 0.398437,0.041 1.95,1.95 0 0 0 0.380859,-0.0391 1.95,1.95 0 0 0 1.279297,0.48047 1.95,1.95 0 0 0 0.382813,-0.041 1.95,1.95 0 0 0 0.396484,0.041 1.95,1.95 0 0 0 0.189453,-0.0117 1.95,1.95 0 0 0 0.210938,0.0117 1.95,1.95 0 0 0 0.101562,-0.004 1.95,1.95 0 0 0 0.08789,0.004 1.95,1.95 0 0 0 0.490234,-0.0645 1.95,1.95 0 0 0 0.490235,0.0645 1.95,1.95 0 0 0 0.05273,-0.002 1.95,1.95 0 0 0 0.04687,0.002 1.95,1.95 0 0 0 0.183594,-0.0117 1.95,1.95 0 0 0 0.207031,0.0117 1.95,1.95 0 0 0 0.490235,-0.0645 1.95,1.95 0 0 0 0.488281,0.0645 1.95,1.95 0 0 0 0.185547,-0.0117 1.95,1.95 0 0 0 0.205078,0.0117 1.95,1.95 0 0 0 0.05469,-0.002 1.95,1.95 0 0 0 0.04492,0.002 1.95,1.95 0 0 0 0.04883,-0.002 1.95,1.95 0 0 0 0.04102,0.002 1.95,1.95 0 0 0 0.05859,-0.002 1.95,1.95 0 0 0 0.04297,0.002 1.95,1.95 0 0 0 0.04883,-0.002 1.95,1.95 0 0 0 0.05078,0.002 1.95,1.95 0 0 0 0.238281,-0.0176 1.95,1.95 0 0 0 0.251953,0.0176 1.95,1.95 0 0 0 0.05273,-0.002 1.95,1.95 0 0 0 0.04687,0.002 1.95,1.95 0 0 0 0.101563,-0.004 1.95,1.95 0 0 0 0.08789,0.004 1.95,1.95 0 0 0 0.05664,-0.002 1.95,1.95 0 0 0 0.04297,0.002 1.95,1.95 0 0 0 0.05469,-0.002 1.95,1.95 0 0 0 0.04688,0.002 1.95,1.95 0 0 0 0.101562,-0.004 1.95,1.95 0 0 0 0.08789,0.004 1.95,1.95 0 0 0 0.107421,-0.004 1.95,1.95 0 0 0 0.0918,0.004 1.95,1.95 0 0 0 0.05469,-0.002 1.95,1.95 0 0 0 0.04492,0.002 1.95,1.95 0 0 0 0.148437,-0.008 1.95,1.95 0 0 0 0.142578,0.008 1.95,1.95 0 0 0 0.05469,-0.002 1.95,1.95 0 0 0 0.04492,0.002 1.95,1.95 0 0 0 0.05469,-0.002 1.95,1.95 0 0 0 0.04492,0.002 1.95,1.95 0 0 0 0.148438,-0.008 1.95,1.95 0 0 0 0.142578,0.008 1.95,1.95 0 0 0 0.05859,-0.002 1.95,1.95 0 0 0 0.04102,0.002 1.95,1.95 0 0 0 0.05078,-0.002 1.95,1.95 0 0 0 0.04883,0.002 1.95,1.95 0 0 0 0.05664,-0.002 1.95,1.95 0 0 0 0.04297,0.002 1.95,1.95 0 0 0 0.04687,-0.002 1.95,1.95 0 0 0 0.04297,0.002 1.95,1.95 0 0 0 0.05859,-0.002 1.95,1.95 0 0 0 0.04297,0.002 1.95,1.95 0 0 0 0.04883,-0.002 1.95,1.95 0 0 0 0.05078,0.002 1.95,1.95 0 0 0 0.05664,-0.002 1.95,1.95 0 0 0 0.04297,0.002 1.95,1.95 0 0 0 0.04687,-0.002 1.95,1.95 0 0 0 0.04297,0.002 1.95,1.95 0 0 0 0.05859,-0.002 1.95,1.95 0 0 0 0.04102,0.002 1.95,1.95 0 0 0 0.05078,-0.002 1.95,1.95 0 0 0 0.05078,0.002 1.95,1.95 0 0 0 0.05273,-0.002 1.95,1.95 0 0 0 0.04687,0.002 1.95,1.95 0 0 0 0.05273,-0.002 1.95,1.95 0 0 0 0.04687,0.002 1.95,1.95 0 0 0 0.05078,-0.002 1.95,1.95 0 0 0 0.03906,0.002 1.95,1.95 0 0 0 0.05078,-0.002 1.95,1.95 0 0 0 0.04883,0.002 1.95,1.95 0 0 0 0.05664,-0.002 1.95,1.95 0 0 0 0.04297,0.002 1.95,1.95 0 0 0 0.05859,-0.002 1.95,1.95 0 0 0 0.04297,0.002 1.95,1.95 0 0 0 0.04883,-0.002 1.95,1.95 0 0 0 0.05078,0.002 1.95,1.95 0 0 0 0.05078,-0.002 1.95,1.95 0 0 0 0.03906,0.002 1.95,1.95 0 0 0 0.05859,-0.002 1.95,1.95 0 0 0 0.04102,0.002 1.95,1.95 0 0 0 0.05078,-0.002 1.95,1.95 0 0 0 0.04883,0.002 1.95,1.95 0 0 0 0.05469,-0.002 1.95,1.95 0 0 0 0.04492,0.002 1.95,1.95 0 0 0 0.0527,-0.002 1.95,1.95 0 0 0 0.0391,0.002 1.95,1.95 0 0 0 0.0508,-0.002 1.95,1.95 0 0 0 0.0488,0.002 1.95,1.95 0 0 0 0.0586,-0.002 1.95,1.95 0 0 0 0.041,0.002 1.95,1.95 0 0 0 0.0508,-0.002 1.95,1.95 0 0 0 0.0488,0.002 1.95,1.95 0 0 0 0.0547,-0.002 1.95,1.95 0 0 0 0.0449,0.002 1.95,1.95 0 0 0 0.0488,-0.002 1.95,1.95 0 0 0 0.041,0.002 1.95,1.95 0 0 0 0.0605,-0.002 1.95,1.95 0 0 0 0.041,0.002 1.95,1.95 0 0 0 0.0508,-0.002 1.95,1.95 0 0 0 0.0488,0.002 1.95,1.95 0 0 0 0.0586,-0.002 1.95,1.95 0 0 0 0.041,0.002 1.95,1.95 0 0 0 0.0508,-0.002 1.95,1.95 0 0 0 0.0488,0.002 1.95,1.95 0 0 0 0.0508,-0.002 1.95,1.95 0 0 0 0.0391,0.002 1.95,1.95 0 0 0 0.0527,-0.002 1.95,1.95 0 0 0 0.0488,0.002 1.95,1.95 0 0 0 0.0586,-0.002 1.95,1.95 0 0 0 0.041,0.002 1.95,1.95 0 0 0 0.0488,-0.002 1.95,1.95 0 0 0 0.0508,0.002 1.95,1.95 0 0 0 0.0508,-0.002 1.95,1.95 0 0 0 0.0391,0.002 1.95,1.95 0 0 0 0.0508,-0.002 1.95,1.95 0 0 0 0.0488,0.002 1.95,1.95 0 0 0 0.0586,-0.002 1.95,1.95 0 0 0 0.041,0.002 1.95,1.95 0 0 0 0.0508,-0.002 1.95,1.95 0 0 0 0.0508,0.002 1.95,1.95 0 0 0 0.0547,-0.002 1.95,1.95 0 0 0 0.0449,0.002 1.95,1.95 0 0 0 0.0488,-0.002 1.95,1.95 0 0 0 0.041,0.002 1.95,1.95 0 0 0 0.0586,-0.002 1.95,1.95 0 0 0 0.041,0.002 1.95,1.95 0 0 0 0.0508,-0.002 1.95,1.95 0 0 0 0.0488,0.002 1.95,1.95 0 0 0 0.0547,-0.002 1.95,1.95 0 0 0 0.0449,0.002 1.95,1.95 0 0 0 0.0547,-0.002 1.95,1.95 0 0 0 0.0469,0.002 1.95,1.95 0 0 0 0.0508,-0.002 1.95,1.95 0 0 0 0.0391,0.002 1.95,1.95 0 0 0 0.0508,-0.002 1.95,1.95 0 0 0 0.0488,0.002 1.95,1.95 0 0 0 0.0586,-0.002 1.95,1.95 0 0 0 0.041,0.002 1.95,1.95 0 0 0 0.0508,-0.002 1.95,1.95 0 0 0 0.0488,0.002 1.95,1.95 0 0 0 0.0586,-0.002 1.95,1.95 0 0 0 0.043,0.002 1.95,1.95 0 0 0 0.0449,-0.002 1.95,1.95 0 0 0 0.0449,0.002 1.95,1.95 0 0 0 0.0527,-0.002 1.95,1.95 0 0 0 0.0469,0.002 1.95,1.95 0 0 0 0.0527,-0.002 1.95,1.95 0 0 0 0.0469,0.002 1.95,1.95 0 0 0 0.0547,-0.002 1.95,1.95 0 0 0 0.0449,0.002 1.95,1.95 0 0 0 0.0488,-0.002 1.95,1.95 0 0 0 0.041,0.002 1.95,1.95 0 0 0 0.0547,-0.002 1.95,1.95 0 0 0 0.0469,0.002 1.95,1.95 0 0 0 0.0586,-0.002 1.95,1.95 0 0 0 0.041,0.002 1.95,1.95 0 0 0 0.0488,-0.002 1.95,1.95 0 0 0 0.0508,0.002 1.95,1.95 0 0 0 0.0566,-0.002 1.95,1.95 0 0 0 0.043,0.002 1.95,1.95 0 0 0 0.0469,-0.002 1.95,1.95 0 0 0 0.043,0.002 1.95,1.95 0 0 0 0.0586,-0.002 1.95,1.95 0 0 0 0.041,0.002 1.95,1.95 0 0 0 0.0508,-0.002 1.95,1.95 0 0 0 0.0508,0.002 1.95,1.95 0 0 0 0.0547,-0.002 1.95,1.95 0 0 0 0.0449,0.002 1.95,1.95 0 0 0 0.0527,-0.002 1.95,1.95 0 0 0 0.0469,0.002 1.95,1.95 0 0 0 0.0488,-0.002 1.95,1.95 0 0 0 0.041,0.002 1.95,1.95 0 0 0 0.0586,-0.002 1.95,1.95 0 0 0 0.041,0.002 1.95,1.95 0 0 0 0.0508,-0.002 1.95,1.95 0 0 0 0.0488,0.002 1.95,1.95 0 0 0 0.0547,-0.002 1.95,1.95 0 0 0 0.0469,0.002 1.95,1.95 0 0 0 0.0488,-0.002 1.95,1.95 0 0 0 0.041,0.002 1.95,1.95 0 0 0 0.0586,-0.002 1.95,1.95 0 0 0 0.041,0.002 1.95,1.95 0 0 0 0.0508,-0.002 1.95,1.95 0 0 0 0.0488,0.002 1.95,1.95 0 0 0 0.0547,-0.002 1.95,1.95 0 0 0 0.0449,0.002 1.95,1.95 0 0 0 0.0586,-0.002 1.95,1.95 0 0 0 0.043,0.002 1.95,1.95 0 0 0 0.0469,-0.002 1.95,1.95 0 0 0 0.043,0.002 1.95,1.95 0 0 0 0.0527,-0.002 1.95,1.95 0 0 0 0.0469,0.002 1.95,1.95 0 0 0 0.0527,-0.002 1.95,1.95 0 0 0 0.0469,0.002 1.95,1.95 0 0 0 0.0586,-0.002 1.95,1.95 0 0 0 0.041,0.002 1.95,1.95 0 0 0 0.0508,-0.002 1.95,1.95 0 0 0 0.0488,0.002 1.95,1.95 0 0 0 0.0488,-0.002 1.95,1.95 0 0 0 0.043,0.002 1.95,1.95 0 0 0 0.0527,-0.002 1.95,1.95 0 0 0 0.0469,0.002 1.95,1.95 0 0 0 0.0527,-0.002 1.95,1.95 0 0 0 0.0469,0.002 1.95,1.95 0 0 0 0.0586,-0.002 1.95,1.95 0 0 0 0.041,0.002 1.95,1.95 0 0 0 0.0469,-0.002 1.95,1.95 0 0 0 0.043,0.002 1.95,1.95 0 0 0 0.0586,-0.002 1.95,1.95 0 0 0 0.041,0.002 1.95,1.95 0 0 0 0.0508,-0.002 1.95,1.95 0 0 0 0.0508,0.002 1.95,1.95 0 0 0 0.0586,-0.002 1.95,1.95 0 0 0 0.041,0.002 1.95,1.95 0 0 0 0.0488,-0.002 1.95,1.95 0 0 0 0.0508,0.002 1.95,1.95 0 0 0 0.0508,-0.002 1.95,1.95 0 0 0 0.0391,0.002 1.95,1.95 0 0 0 0.0586,-0.002 1.95,1.95 0 0 0 0.041,0.002 1.95,1.95 0 0 0 0.0508,-0.002 1.95,1.95 0 0 0 0.0488,0.002 1.95,1.95 0 0 0 0.0547,-0.002 1.95,1.95 0 0 0 0.0469,0.002 1.95,1.95 0 0 0 0.0567,-0.002 1.95,1.95 0 0 0 0.043,0.002 1.95,1.95 0 0 0 0.0469,-0.002 1.95,1.95 0 0 0 0.043,0.002 1.95,1.95 0 0 0 0.0547,-0.002 1.95,1.95 0 0 0 0.0449,0.002 1.95,1.95 0 0 0 0.0586,-0.002 1.95,1.95 0 0 0 0.041,0.002 1.95,1.95 0 0 0 0.0508,-0.002 1.95,1.95 0 0 0 0.0508,0.002 1.95,1.95 0 0 0 0.0508,-0.002 1.95,1.95 0 0 0 0.0391,0.002 1.95,1.95 0 0 0 0.0508,-0.002 1.95,1.95 0 0 0 0.0488,0.002 1.95,1.95 0 0 0 0.0586,-0.002 1.95,1.95 0 0 0 0.041,0.002 1.95,1.95 0 0 0 0.0508,-0.002 1.95,1.95 0 0 0 0.0488,0.002 1.95,1.95 0 0 0 0.0547,-0.002 1.95,1.95 0 0 0 0.0449,0.002 1.95,1.95 0 0 0 0.0527,-0.002 1.95,1.95 0 0 0 0.0391,0.002 1.95,1.95 0 0 0 0.0527,-0.002 1.95,1.95 0 0 0 0.0469,0.002 1.95,1.95 0 0 0 0.0586,-0.002 1.95,1.95 0 0 0 0.041,0.002 1.95,1.95 0 0 0 0.0508,-0.002 1.95,1.95 0 0 0 0.0488,0.002 1.95,1.95 0 0 0 0.0547,-0.002 1.95,1.95 0 0 0 0.0449,0.002 1.95,1.95 0 0 0 0.0508,-0.002 1.95,1.95 0 0 0 0.0391,0.002 1.95,1.95 0 0 0 0.0527,-0.002 1.95,1.95 0 0 0 0.0488,0.002 1.95,1.95 0 0 0 0.10742,-0.004 1.95,1.95 0 0 0 0.0918,0.004 1.95,1.95 0 0 0 0.0547,-0.002 1.95,1.95 0 0 0 0.0449,0.002 1.95,1.95 0 0 0 0.0488,-0.002 1.95,1.95 0 0 0 0.041,0.002 1.95,1.95 0 0 0 0.0547,-0.002 1.95,1.95 0 0 0 0.0449,0.002 1.95,1.95 0 0 0 0.0605,-0.002 1.95,1.95 0 0 0 0.041,0.002 1.95,1.95 0 0 0 0.0508,-0.002 1.95,1.95 0 0 0 0.0488,0.002 1.95,1.95 0 0 0 0.10352,-0.004 1.95,1.95 0 0 0 0.0859,0.004 1.95,1.95 0 0 0 0.10937,-0.004 1.95,1.95 0 0 0 0.0918,0.004 1.95,1.95 0 0 0 0.0547,-0.002 1.95,1.95 0 0 0 0.0449,0.002 1.95,1.95 0 0 0 0.10156,-0.004 1.95,1.95 0 0 0 0.0879,0.004 1.95,1.95 0 0 0 0.10938,-0.004 1.95,1.95 0 0 0 0.0898,0.004 1.95,1.95 0 0 0 0.0566,-0.002 1.95,1.95 0 0 0 0.0449,0.002 1.95,1.95 0 0 0 0.0488,-0.002 1.95,1.95 0 0 0 0.041,0.002 1.95,1.95 0 0 0 0.0527,-0.002 1.95,1.95 0 0 0 0.0469,0.002 1.95,1.95 0 0 0 0.0586,-0.002 1.95,1.95 0 0 0 0.041,0.002 1.95,1.95 0 0 0 0.0508,-0.002 1.95,1.95 0 0 0 0.0488,0.002 1.95,1.95 0 0 0 0.0488,-0.002 1.95,1.95 0 0 0 0.041,0.002 1.95,1.95 0 0 0 0.15234,-0.008 1.95,1.95 0 0 0 0.14844,0.008 1.95,1.95 0 0 0 0.0547,-0.002 1.95,1.95 0 0 0 0.0449,0.002 1.95,1.95 0 0 0 0.3418,-0.0312 1.95,1.95 0 0 0 0.33789,0.0312 1.95,1.95 0 0 0 0.0547,-0.002 1.95,1.95 0 0 0 0.0469,0.002 1.95,1.95 0 0 0 0.10156,-0.004 1.95,1.95 0 0 0 0.0879,0.004 1.95,1.95 0 0 0 0.78321,-0.16797 1.95,1.95 0 0 0 0.7871,0.16797 1.95,1.95 0 0 0 0.0586,-0.002 1.95,1.95 0 0 0 0.041,0.002 1.95,1.95 0 0 0 0.0508,-0.002 1.95,1.95 0 0 0 0.0488,0.002 1.95,1.95 0 0 0 1.125,-0.35938 1.95,1.95 0 0 0 1.125,0.35938 1.95,1.95 0 0 0 0.38477,-0.041 1.95,1.95 0 0 0 0.39453,0.041 1.95,1.95 0 0 0 0.14844,-0.008 1.95,1.95 0 0 0 0.14258,0.008 1.95,1.95 0 0 0 1.23632,-0.44336 1.95,1.95 0 0 0 0.043,0.002 1.95,1.95 0 0 0 0.19141,-0.01 1.95,1.95 0 0 0 0.19922,0.01 1.95,1.95 0 0 0 0.38867,-0.041 1.95,1.95 0 0 0 0.39063,0.041 1.95,1.95 0 0 0 0.6875,-0.12695 1.95,1.95 0 0 0 0.68359,0.12695 1.95,1.95 0 0 0 0.1582,-0.006 1.95,1.95 0 0 0 0.13086,0.006 1.95,1.95 0 0 0 0.16406,-0.008 1.95,1.95 0 0 0 0.13672,0.008 1.95,1.95 0 0 0 0.19141,-0.01 1.95,1.95 0 0 0 0.19922,0.01 1.95,1.95 0 0 0 0.1914,-0.01 1.95,1.95 0 0 0 0.19727,0.01 1.95,1.95 0 0 0 1.24414,-0.44922 1.95,1.95 0 0 0 1.11133,-0.54687 1.95,1.95 0 0 0 0.68554,0.12695 1.95,1.95 0 0 0 0.81055,-0.17969 1.95,1.95 0 0 0 1.72852,1.04883 1.95,1.95 0 0 0 1.83984,-1.31055 1.95,1.95 0 0 0 0.21094,0.0117 1.95,1.95 0 0 0 1.9375,-1.74609 1.95,1.95 0 0 0 0.11133,-0.64453 1.95,1.95 0 0 0 -0.0254,-0.31055 1.95,1.95 0 0 0 0.61523,-1.41992 1.95,1.95 0 0 0 -1.94922,-1.94922 1.95,1.95 0 0 0 -0.17187,0.008 1.95,1.95 0 0 0 0.75195,-1.53906 1.95,1.95 0 0 0 -0.13281,-0.70312 1.95,1.95 0 0 0 0.57617,-0.23829 1.95,1.95 0 0 0 1.91602,1.5918 1.95,1.95 0 0 0 0.4707,-0.0586 1.95,1.95 0 0 0 0.73633,0.4082 1.95,1.95 0 0 0 -0.0273,0.31055 1.95,1.95 0 0 0 1.95117,1.95117 1.95,1.95 0 0 0 1.1836,-0.4043 1.95,1.95 0 0 0 -0.10352,0.62305 1.95,1.95 0 0 0 1.94922,1.95117 1.95,1.95 0 0 0 1.95117,-1.95117 1.95,1.95 0 0 0 -0.0703,-0.51563 1.95,1.95 0 0 0 0.16992,-0.79492 1.95,1.95 0 0 0 -1.95117,-1.94922 1.95,1.95 0 0 0 -1.2793,0.48243 1.95,1.95 0 0 0 -1.29687,-1.26172 1.95,1.95 0 0 0 0.0254,-0.25977 1.95,1.95 0 0 0 0.79102,0.16992 1.95,1.95 0 0 0 1.95117,-1.95117 1.95,1.95 0 0 0 -1.95117,-1.94922 1.95,1.95 0 0 0 -1.94727,1.89844 1.95,1.95 0 0 0 -0.79297,-0.16797 1.95,1.95 0 0 0 -0.46875,0.0586 1.95,1.95 0 0 0 -1.29101,-0.49024 1.95,1.95 0 0 0 -1.02344,0.29297 1.95,1.95 0 0 0 -0.5586,-1.03906 1.95,1.95 0 0 0 -0.92187,-1.56836 1.95,1.95 0 0 0 0.23633,-0.80274 1.95,1.95 0 0 0 0.49804,0.0684 1.95,1.95 0 0 0 0.42188,-0.0488 1.95,1.95 0 0 0 -0.0215,0.26758 1.95,1.95 0 0 0 1.94922,1.95117 1.95,1.95 0 0 0 1.91993,-1.61328 1.95,1.95 0 0 0 0.41992,-1.20703 1.95,1.95 0 0 0 -0.68946,-1.48828 1.95,1.95 0 0 0 -0.29101,-0.84961 1.95,1.95 0 0 0 -0.26563,-0.52539 1.95,1.95 0 0 0 0.65235,-0.26758 1.95,1.95 0 0 0 1.78515,1.17188 1.95,1.95 0 0 0 1.94922,-1.95117 1.95,1.95 0 0 0 -1.94922,-1.94922 1.95,1.95 0 0 0 -1.05664,0.31054 1.95,1.95 0 0 0 -0.53711,-0.7207 1.95,1.95 0 0 0 -1.36914,-0.86914 1.95,1.95 0 0 0 -0.28711,-0.3457 1.95,1.95 0 0 0 0.16602,-0.11914 1.95,1.95 0 0 0 1.22266,0.43359 1.95,1.95 0 0 0 1.95117,-1.94922 1.95,1.95 0 0 0 -1.95117,-1.95117 1.95,1.95 0 0 0 -1.22461,0.43555 1.95,1.95 0 0 0 -0.41407,-0.25782 1.95,1.95 0 0 0 -1.89062,-1.47656 1.95,1.95 0 0 0 -0.72461,0.13867 1.95,1.95 0 0 0 0.0352,-0.35937 1.95,1.95 0 0 0 -0.34179,-1.09766 1.95,1.95 0 0 0 0.15039,0.008 1.95,1.95 0 0 0 1.95117,-1.95117 1.95,1.95 0 0 0 -1.95117,-1.94922 1.95,1.95 0 0 0 -1.94922,1.94922 1.95,1.95 0 0 0 0.33984,1.09961 1.95,1.95 0 0 0 -0.15039,-0.008 1.95,1.95 0 0 0 -1.94922,1.94922 1.95,1.95 0 0 0 0,0.008 1.95,1.95 0 0 0 -0.89062,-0.21875 1.95,1.95 0 0 0 -1.94922,1.95117 1.95,1.95 0 0 0 1.94922,1.94922 1.95,1.95 0 0 0 1.74805,-1.0918 1.95,1.95 0 0 0 0.90234,0.22266 1.95,1.95 0 0 0 0.92578,-0.23633 1.95,1.95 0 0 0 1.09375,1.35742 1.95,1.95 0 0 0 0.54102,0.93164 1.95,1.95 0 0 0 -0.89063,1.63672 1.95,1.95 0 0 0 0.58203,1.38868 1.95,1.95 0 0 0 0.72852,1.4414 1.95,1.95 0 0 0 -0.0918,0.0801 1.95,1.95 0 0 0 -0.54883,-0.0801 1.95,1.95 0 0 0 -1.85546,1.35156 1.95,1.95 0 0 0 -1.85352,-1.35156 1.95,1.95 0 0 0 -0.39844,0.043 1.95,1.95 0 0 0 -0.0137,-0.0117 1.95,1.95 0 0 0 -1.93945,-1.77148 1.95,1.95 0 0 0 -1.60352,0.83984 1.95,1.95 0 0 0 -0.38086,-0.62305 1.95,1.95 0 0 0 0.48438,-1.0332 1.95,1.95 0 0 0 0.80078,-1.57422 1.95,1.95 0 0 0 -1.48828,-1.89062 1.95,1.95 0 0 0 0.80859,-1.57813 1.95,1.95 0 0 0 -0.0273,-0.31836 1.95,1.95 0 0 0 0.61718,-1.42187 1.95,1.95 0 0 0 -1.95117,-1.94922 1.95,1.95 0 0 0 -1.94922,1.94922 1.95,1.95 0 0 0 0.0273,0.31836 1.95,1.95 0 0 0 -0.61719,1.42187 1.95,1.95 0 0 0 1.48828,1.89258 1.95,1.95 0 0 0 -0.78711,1.30469 1.95,1.95 0 0 0 -0.70508,0.96875 1.95,1.95 0 0 0 -0.62695,-0.36133 1.95,1.95 0 0 0 0.0312,-0.33594 1.95,1.95 0 0 0 -0.01,-0.17383 1.95,1.95 0 0 0 0.78907,-1.56445 1.95,1.95 0 0 0 -0.72266,-1.51367 1.95,1.95 0 0 0 0.33203,-1.08789 1.95,1.95 0 0 0 -0.61914,-1.41992 1.95,1.95 0 0 0 0.0176,-0.11524 1.95,1.95 0 0 0 0.12305,0.006 1.95,1.95 0 0 0 1.94922,-1.94922 1.95,1.95 0 0 0 -0.71875,-1.50976 1.95,1.95 0 0 0 -1.6211,-0.8711 1.95,1.95 0 0 0 -0.54101,0.0762 1.95,1.95 0 0 0 -0.38868,-0.2793 1.95,1.95 0 0 0 1.10938,-1.75586 1.95,1.95 0 0 0 -0.55273,-1.36133 1.95,1.95 0 0 0 -0.35547,-0.71484 1.95,1.95 0 0 0 1.22265,-1.29883 1.95,1.95 0 0 0 1.94532,1.84375 1.95,1.95 0 0 0 1.95117,-1.94922 1.95,1.95 0 0 0 -0.20313,-0.86523 1.95,1.95 0 0 0 0.50196,-1.30469 1.95,1.95 0 0 0 -1.94922,-1.95117 1.95,1.95 0 0 0 -1.94922,1.95117 1.95,1.95 0 0 0 0.20312,0.86719 1.95,1.95 0 0 0 -0.42773,0.77343 1.95,1.95 0 0 0 -1.94727,-1.85156 1.95,1.95 0 0 0 -0.74609,0.15235 1.95,1.95 0 0 0 0.44726,-1.24219 1.95,1.95 0 0 0 -0.12109,-0.66992 1.95,1.95 0 0 0 0.32031,-1.07032 1.95,1.95 0 0 0 -1.94922,-1.94922 1.95,1.95 0 0 0 -1.64453,0.90821 1.95,1.95 0 0 0 -1.57617,1.91211 1.95,1.95 0 0 0 1.33594,1.84961 1.95,1.95 0 0 0 0.25,0.33789 1.95,1.95 0 0 0 -0.91602,-0.22852 1.95,1.95 0 0 0 -0.61914,0.10547 1.95,1.95 0 0 0 0.0293,-0.32422 1.95,1.95 0 0 0 -1.94922,-1.95117 1.95,1.95 0 0 0 -0.4375,0.0527 1.95,1.95 0 0 0 0.13672,-0.71289 1.95,1.95 0 0 0 -0.83203,-1.59765 1.95,1.95 0 0 0 -1.80664,-1.22266 z m 20.55859,0 a 1.95,1.95 0 0 0 -1.94922,1.95117 1.95,1.95 0 0 0 1.94922,1.94922 1.95,1.95 0 0 0 1.95117,-1.94922 1.95,1.95 0 0 0 -1.95117,-1.95117 z m 18.20117,1.31055 a 1.95,1.95 0 0 0 -1.95117,1.95117 1.95,1.95 0 0 0 1.95117,1.94922 1.95,1.95 0 0 0 1.94922,-1.94922 1.95,1.95 0 0 0 -1.94922,-1.95117 z m -20.36132,2.16992 a 1.95,1.95 0 0 0 -1.94922,1.95117 1.95,1.95 0 0 0 1.94922,1.94922 1.95,1.95 0 0 0 1.95117,-1.94922 1.95,1.95 0 0 0 -1.95117,-1.95117 z m -18.65821,1.04297 a 1.95,1.95 0 0 0 0.94922,0.24804 1.95,1.95 0 0 0 0.43555,-0.0527 1.95,1.95 0 0 0 -0.13672,0.71289 1.95,1.95 0 0 0 0.0273,0.32227 1.95,1.95 0 0 0 -0.61718,-0.10352 1.95,1.95 0 0 0 -0.78711,0.16992 1.95,1.95 0 0 0 0.1875,-0.83007 1.95,1.95 0 0 0 -0.0586,-0.4668 z m 43.90821,1.55664 a 1.95,1.95 0 0 0 -1.94922,1.95117 1.95,1.95 0 0 0 1.94922,1.94922 1.95,1.95 0 0 0 1.95117,-1.94922 1.95,1.95 0 0 0 -1.95117,-1.95117 z m -36.74024,0.19922 a 1.95,1.95 0 0 0 0.91992,0.23242 1.95,1.95 0 0 0 0.7461,-0.15039 1.95,1.95 0 0 0 -0.44532,1.24023 1.95,1.95 0 0 0 0.0215,0.26368 1.95,1.95 0 0 0 -0.14649,-0.0254 1.95,1.95 0 0 0 -0.43164,-0.26953 1.95,1.95 0 0 0 -0.24414,-0.58007 1.95,1.95 0 0 0 -0.41992,-0.71094 z m -4.58594,0.99804 a 1.95,1.95 0 0 0 0.22852,0.0645 1.95,1.95 0 0 0 -0.15234,0.12695 1.95,1.95 0 0 0 -0.041,0.0137 1.95,1.95 0 0 0 -0.0137,-0.004 1.95,1.95 0 0 0 -0.0215,-0.20118 z m -58.792966,0.11329 a 1.95,1.95 0 0 0 -1.951172,1.95117 1.95,1.95 0 0 0 1.951172,1.94922 1.95,1.95 0 0 0 1.949219,-1.94922 1.95,1.95 0 0 0 -1.949219,-1.95117 z m 4.798828,0 a 1.95,1.95 0 0 0 -1.623046,0.87304 1.95,1.95 0 0 0 -0.716797,1.50781 1.95,1.95 0 0 0 1.951172,1.94922 1.95,1.95 0 0 0 1.621093,-0.86914 1.95,1.95 0 0 0 0.71875,-1.50976 1.95,1.95 0 0 0 -1.951172,-1.95117 z m 73.300778,0 a 1.95,1.95 0 0 0 -1.8125,1.23632 1.95,1.95 0 0 0 -0.8164,1.58399 1.95,1.95 0 0 0 1.94922,1.94922 1.95,1.95 0 0 0 1.8125,-1.23438 1.95,1.95 0 0 0 0.8164,-1.58398 1.95,1.95 0 0 0 -1.94922,-1.95117 z m 16.64063,2.59961 a 1.95,1.95 0 0 0 -1.95117,1.95117 1.95,1.95 0 0 0 1.95117,1.94922 1.95,1.95 0 0 0 1.94922,-1.94922 1.95,1.95 0 0 0 -1.94922,-1.95117 z m -30.54883,2.11328 a 1.95,1.95 0 0 0 0.1543,0.12109 1.95,1.95 0 0 0 0.88086,1 1.95,1.95 0 0 0 -1.05274,1.31055 1.95,1.95 0 0 0 -0.24414,-0.0996 1.95,1.95 0 0 0 -0.0508,-0.0859 1.95,1.95 0 0 0 0.12109,-0.66797 1.95,1.95 0 0 0 -0.12109,-0.67187 1.95,1.95 0 0 0 0.3125,-0.90625 z m -61.351562,0.49804 a 1.95,1.95 0 0 0 -1.949219,1.94922 1.95,1.95 0 0 0 1.949219,1.94922 1.95,1.95 0 0 0 1.949219,-1.94922 1.95,1.95 0 0 0 -1.949219,-1.94922 z m 28.580078,0.42969 a 1.95,1.95 0 0 0 -1.949218,1.94922 1.95,1.95 0 0 0 0.501953,1.30469 1.95,1.95 0 0 0 -0.501953,1.30664 1.95,1.95 0 0 0 1.949218,1.94922 1.95,1.95 0 0 0 1.949219,-1.94922 1.95,1.95 0 0 0 -0.503906,-1.30469 1.95,1.95 0 0 0 0.503906,-1.30664 1.95,1.95 0 0 0 -1.949219,-1.94922 z m 9.808594,0.55078 a 1.95,1.95 0 0 0 1.050781,0.3086 1.95,1.95 0 0 0 0.960938,-0.25391 1.95,1.95 0 0 0 0.279297,0.27148 1.95,1.95 0 0 0 -0.160157,-0.008 1.95,1.95 0 0 0 -1.519531,0.73242 1.95,1.95 0 0 0 -0.353516,-0.17187 1.95,1.95 0 0 0 -0.257812,-0.87891 z m -19.988281,0.31836 a 1.95,1.95 0 0 0 -1.951172,1.95117 1.95,1.95 0 0 0 1.951172,1.94922 1.95,1.95 0 0 0 1.949219,-1.94922 1.95,1.95 0 0 0 -1.949219,-1.95117 z m 74.089841,0.87109 a 1.95,1.95 0 0 0 -1.95117,1.94922 1.95,1.95 0 0 0 1.95117,1.94922 1.95,1.95 0 0 0 1.94922,-1.94922 1.95,1.95 0 0 0 -1.94922,-1.94922 z m -59.701169,0.86915 a 1.95,1.95 0 0 0 -1.949219,1.95117 1.95,1.95 0 0 0 1.949219,1.94922 1.95,1.95 0 0 0 0.386718,-0.041 1.95,1.95 0 0 0 0.394532,0.041 1.95,1.95 0 0 0 1.949218,-1.94922 1.95,1.95 0 0 0 -1.949218,-1.95117 1.95,1.95 0 0 0 -0.384766,0.041 1.95,1.95 0 0 0 -0.396484,-0.041 z m -50.308594,1.30078 a 1.95,1.95 0 0 0 -1.951172,1.94922 1.95,1.95 0 0 0 1.951172,1.95117 1.95,1.95 0 0 0 1.949219,-1.95117 1.95,1.95 0 0 0 -1.949219,-1.94922 z m 129.388673,0.86914 a 1.95,1.95 0 0 0 -1.94922,1.95117 1.95,1.95 0 0 0 1.94922,1.94922 1.95,1.95 0 0 0 1.95117,-1.94922 1.95,1.95 0 0 0 -1.95117,-1.95117 z m -88.378908,3.48047 a 1.95,1.95 0 0 0 -1.951171,1.94922 1.95,1.95 0 0 0 0.724609,1.51367 1.95,1.95 0 0 0 -0.333984,1.08789 1.95,1.95 0 0 0 1.951172,1.94922 1.95,1.95 0 0 0 1.949218,-1.94922 1.95,1.95 0 0 0 -0.722656,-1.51367 1.95,1.95 0 0 0 0.332031,-1.08789 1.95,1.95 0 0 0 -1.949219,-1.94922 z m -9.490234,0.42968 a 1.95,1.95 0 0 0 -1.949219,1.94922 1.95,1.95 0 0 0 1.949219,1.95117 1.95,1.95 0 0 0 1.949219,-1.95117 1.95,1.95 0 0 0 -1.949219,-1.94922 z m 78.880862,0 a 1.95,1.95 0 0 0 -1.95117,1.94922 1.95,1.95 0 0 0 1.50585,1.89844 1.95,1.95 0 0 0 -0.10351,0.36133 1.95,1.95 0 0 0 -0.60742,0.60937 1.95,1.95 0 0 0 -0.97852,0.51172 1.95,1.95 0 0 0 -1.87695,-1.41992 1.95,1.95 0 0 0 -1.94922,1.94922 1.95,1.95 0 0 0 1.94922,1.95117 1.95,1.95 0 0 0 1.35547,-0.54687 1.95,1.95 0 0 0 1.875,1.41601 1.95,1.95 0 0 0 0.12109,-0.004 1.95,1.95 0 0 0 0.0684,0.004 1.95,1.95 0 0 0 1.58789,-0.82031 1.95,1.95 0 0 0 1.15235,0.38086 1.95,1.95 0 0 0 1.95117,-1.94922 1.95,1.95 0 0 0 -0.5,-1.29883 1.95,1.95 0 0 0 0.20898,-0.87109 1.95,1.95 0 0 0 -1.87305,-1.94727 1.95,1.95 0 0 0 0.0137,-0.22461 1.95,1.95 0 0 0 -1.94922,-1.94922 z m -101.300784,0.8711 a 1.95,1.95 0 0 0 -1.949218,1.94922 1.95,1.95 0 0 0 1.949218,1.94922 1.95,1.95 0 0 0 0.740235,-0.14649 1.95,1.95 0 0 0 1.708984,1.01758 1.95,1.95 0 0 0 1.951172,-1.95117 1.95,1.95 0 0 0 -1.951172,-1.94922 1.95,1.95 0 0 0 -0.738281,0.14844 1.95,1.95 0 0 0 -1.710938,-1.01758 z m 111.769534,1.73828 a 1.95,1.95 0 0 0 -1.94922,1.95117 1.95,1.95 0 0 0 1.94922,1.94922 1.95,1.95 0 0 0 1.95117,-1.94922 1.95,1.95 0 0 0 -1.95117,-1.95117 z m -71.603518,1.08789 a 1.95,1.95 0 0 0 0.320312,0.2832 1.95,1.95 0 0 0 -0.52539,0.23633 1.95,1.95 0 0 0 0.205078,-0.51953 z m 3.113281,0.15625 a 1.95,1.95 0 0 0 0.443359,1.08398 1.95,1.95 0 0 0 -0.0625,0.48243 1.95,1.95 0 0 0 0.126954,0.68945 1.95,1.95 0 0 0 -0.328125,-0.0293 1.95,1.95 0 0 0 -0.523438,0.0703 1.95,1.95 0 0 0 0.02344,-0.29101 1.95,1.95 0 0 0 -0.835938,-1.59961 1.95,1.95 0 0 0 0.701172,-0.36133 1.95,1.95 0 0 0 0.04492,0.002 1.95,1.95 0 0 0 0.410156,-0.0469 z m -23.308594,0.92578 a 1.95,1.95 0 0 0 -1.951171,1.95117 1.95,1.95 0 0 0 1.951171,1.94922 1.95,1.95 0 0 0 1.949219,-1.94922 1.95,1.95 0 0 0 -1.949219,-1.95117 z m -4.601562,2.16992 a 1.95,1.95 0 0 0 -1.949219,1.95117 1.95,1.95 0 0 0 1.949219,1.94922 1.95,1.95 0 0 0 1.951172,-1.94922 1.95,1.95 0 0 0 -1.951172,-1.95117 z m 80.060543,0.8711 a 1.95,1.95 0 0 0 -1.94922,1.94922 1.95,1.95 0 0 0 1.94922,1.95117 1.95,1.95 0 0 0 1.94922,-1.95117 1.95,1.95 0 0 0 -1.94922,-1.94922 z M 85.298828,269.375 a 1.95,1.95 0 0 0 0.0918,0.3457 1.95,1.95 0 0 0 -0.320313,1.06836 1.95,1.95 0 0 0 0.136719,0.71485 1.95,1.95 0 0 0 -1.179687,0.81836 1.95,1.95 0 0 0 -0.347656,0.041 1.95,1.95 0 0 0 -0.167969,-0.22851 1.95,1.95 0 0 0 1.148437,-1.77539 1.95,1.95 0 0 0 -0.0098,-0.16602 1.95,1.95 0 0 0 0.648437,-0.81836 z m 7.056641,0.33594 a 1.95,1.95 0 0 0 0.07031,0.0957 1.95,1.95 0 0 0 -0.117187,-0.0332 1.95,1.95 0 0 0 0.04687,-0.0625 z m 35.128911,1.0039 a 1.95,1.95 0 0 0 0.002,0.008 1.95,1.95 0 0 0 -0.006,-0.002 1.95,1.95 0 0 0 0.004,-0.006 z m -83.134771,1.16602 a 1.95,1.95 0 0 0 -1.949218,1.94922 1.95,1.95 0 0 0 1.949218,1.94922 1.95,1.95 0 0 0 1.951172,-1.94922 1.95,1.95 0 0 0 -1.951172,-1.94922 z m 100.800781,0.43945 a 1.95,1.95 0 0 0 -1.95117,1.94922 1.95,1.95 0 0 0 1.08984,1.74805 1.95,1.95 0 0 0 -0.19922,0.85156 1.95,1.95 0 0 0 0.31446,1.0625 1.95,1.95 0 0 0 -0.125,0.67774 1.95,1.95 0 0 0 0.49023,1.28906 1.95,1.95 0 0 0 0,0.0117 1.95,1.95 0 0 0 0.16602,0.77929 1.95,1.95 0 0 0 -0.66602,-0.11914 1.95,1.95 0 0 0 -1.94922,1.94922 1.95,1.95 0 0 0 1.94922,1.95117 1.95,1.95 0 0 0 1.95117,-1.95117 1.95,1.95 0 0 0 -0.16406,-0.77734 1.95,1.95 0 0 0 0.66406,0.11719 1.95,1.95 0 0 0 1.94922,-1.94922 1.95,1.95 0 0 0 -0.49023,-1.29102 1.95,1.95 0 0 0 0,-0.01 1.95,1.95 0 0 0 -0.31446,-1.06055 1.95,1.95 0 0 0 0.125,-0.67969 1.95,1.95 0 0 0 -0.20507,-0.86523 1.95,1.95 0 0 0 0.20507,-0.86329 1.95,1.95 0 0 0 -1.09961,-1.75195 1.95,1.95 0 0 0 -1.74023,-1.06836 z m 22.70899,0.42969 a 1.95,1.95 0 0 0 -1.94922,1.94922 1.95,1.95 0 0 0 1.94922,1.95117 1.95,1.95 0 0 0 1.95117,-1.95117 1.95,1.95 0 0 0 -1.95117,-1.94922 z m -105.888677,2.16992 a 1.95,1.95 0 0 0 -1.951172,1.94922 1.95,1.95 0 0 0 1.951172,1.95117 1.95,1.95 0 0 0 1.949219,-1.95117 1.95,1.95 0 0 0 -1.949219,-1.94922 z m -21.240234,0.43946 a 1.95,1.95 0 0 0 -1.951172,1.95117 1.95,1.95 0 0 0 1.951172,1.94922 1.95,1.95 0 0 0 1.949219,-1.94922 1.95,1.95 0 0 0 -1.949219,-1.95117 z m 37.863281,0.33203 a 1.95,1.95 0 0 0 0.05664,0.0937 1.95,1.95 0 0 0 -0.08398,0.13867 1.95,1.95 0 0 0 0.02734,-0.23242 z m 86.42578,0.0976 a 1.95,1.95 0 0 0 -1.94922,1.95117 1.95,1.95 0 0 0 1.94922,1.94922 1.95,1.95 0 0 0 1.95117,-1.94922 1.95,1.95 0 0 0 -1.95117,-1.95117 z m -115.580077,1.30078 a 1.95,1.95 0 0 0 -1.345703,0.54102 1.95,1.95 0 0 0 -0.613281,-0.10156 1.95,1.95 0 0 0 -1.951172,1.95117 1.95,1.95 0 0 0 1.951172,1.94922 1.95,1.95 0 0 0 1.345703,-0.54102 1.95,1.95 0 0 0 0.613281,0.10156 1.95,1.95 0 0 0 1.951172,-1.95117 1.95,1.95 0 0 0 -1.951172,-1.94922 z m 26.246094,0.17383 a 1.95,1.95 0 0 0 0.964844,0.25586 1.95,1.95 0 0 0 0.328125,-0.0273 1.95,1.95 0 0 0 -0.128907,0.6875 1.95,1.95 0 0 0 0.115235,0.65234 1.95,1.95 0 0 0 -0.02539,-0.002 1.95,1.95 0 0 0 -0.492187,0.0644 1.95,1.95 0 0 0 -1.203125,-1.24805 1.95,1.95 0 0 0 0.441406,-0.38281 z m 80.234373,1.13672 a 1.95,1.95 0 0 0 -1.94922,1.94922 1.95,1.95 0 0 0 1.94922,1.95117 1.95,1.95 0 0 0 1.94922,-1.95117 1.95,1.95 0 0 0 -1.94922,-1.94922 z m -101.779295,0.86914 a 1.95,1.95 0 0 0 -1.951172,1.95117 1.95,1.95 0 0 0 1.951172,1.94922 1.95,1.95 0 0 0 0.05664,-0.002 1.95,1.95 0 0 0 0.0332,0.002 1.95,1.95 0 0 0 0.230469,-0.0156 1.95,1.95 0 0 0 1.238281,0.44531 1.95,1.95 0 0 0 0.248047,-0.0176 1.95,1.95 0 0 0 0.242187,0.0176 1.95,1.95 0 0 0 0.06445,-0.002 1.95,1.95 0 0 0 0.03516,0.002 1.95,1.95 0 0 0 1.951172,-1.94922 1.95,1.95 0 0 0 -1.951172,-1.95117 1.95,1.95 0 0 0 -0.05273,0.002 1.95,1.95 0 0 0 -0.04687,-0.002 1.95,1.95 0 0 0 -0.238281,0.0176 1.95,1.95 0 0 0 -0.251953,-0.0176 1.95,1.95 0 0 0 -0.228516,0.0176 1.95,1.95 0 0 0 -1.240234,-0.44727 1.95,1.95 0 0 0 -0.04883,0.002 1.95,1.95 0 0 0 -0.04102,-0.002 z m 96.298825,0.42969 a 1.95,1.95 0 0 0 -1.94922,1.95117 1.95,1.95 0 0 0 1.94922,1.94922 1.95,1.95 0 0 0 1.95117,-1.94922 1.95,1.95 0 0 0 -1.95117,-1.95117 z m -70.947262,0.30273 a 1.95,1.95 0 0 0 0.220703,0.81446 1.95,1.95 0 0 0 -0.355469,0.2539 1.95,1.95 0 0 0 -0.544922,0.24805 1.95,1.95 0 0 0 0.07813,-0.53906 1.95,1.95 0 0 0 -0.115234,-0.65039 1.95,1.95 0 0 0 0.02539,0.002 1.95,1.95 0 0 0 0.691407,-0.12891 z M 62.75,280.13086 A 1.95,1.95 0 0 0 60.800781,282.08008 1.95,1.95 0 0 0 62.75,284.0293 1.95,1.95 0 0 0 64.699219,282.08008 1.95,1.95 0 0 0 62.75,280.13086 Z"
     id="circle243"
     transform="translate(0,-22)" />
  <rect
     x="28"
     y="101.84"
     width="146.52"
     height="191.11"
     style="stroke:#333333;stroke-width:1.07"
     clip-path="url(#cpMjguMDB8MTc0LjUyfDI5Mi45NHwxMDEuODQ=)"
     id="rect9183"
     transform="translate(0,-22)" />
  <defs
     id="defs9188">
    <clipPath
       id="cpMC4wMHwxODAuMDB8MzI0LjAwfDAuMDA=">
      <rect
         x="0"
         y="0"
         width="180"
         height="324"
         id="rect9185" />
    </clipPath>
  </defs>
  <text
     id="text9190"
     style="font-size:9.33333333px;font-family:Helvetica;fill:#4d4d4d;-inkscape-font-specification:'Helvetica, Normal';font-weight:normal;font-style:normal;font-stretch:normal;font-variant:normal;font-variant-ligatures:normal;font-variant-caps:normal;font-variant-numeric:normal;font-variant-east-asian:normal;"
     y="265.35001"
     x="18.059999">0</text>
  <text
     id="text9194"
     style="font-size:9.33333333px;font-family:Helvetica;fill:#4d4d4d;-inkscape-font-specification:'Helvetica, Normal';font-weight:normal;font-style:normal;font-stretch:normal;font-variant:normal;font-variant-ligatures:normal;font-variant-caps:normal;font-variant-numeric:normal;font-variant-east-asian:normal;"
     y="221.92"
     x="18.059999">1</text>
  <text
     id="text9198"
     style="font-size:9.33333333px;font-family:Helvetica;fill:#4d4d4d;-inkscape-font-specification:'Helvetica, Normal';font-weight:normal;font-style:normal;font-stretch:normal;font-variant:normal;font-variant-ligatures:normal;font-variant-caps:normal;font-variant-numeric:normal;font-variant-east-asian:normal;"
     y="178.48"
     x="18.059999">2</text>
  <text
     id="text9202"
     style="font-size:9.33333333px;font-family:Helvetica;fill:#4d4d4d;-inkscape-font-specification:'Helvetica, Normal';font-weight:normal;font-style:normal;font-stretch:normal;font-variant:normal;font-variant-ligatures:normal;font-variant-caps:normal;font-variant-numeric:normal;font-variant-east-asian:normal;"
     y="135.05"
     x="18.059999">3</text>
  <text
     id="text9206"
     style="font-size:9.33333333px;font-family:Helvetica;fill:#4d4d4d;-inkscape-font-specification:'Helvetica, Normal';font-weight:normal;font-style:normal;font-stretch:normal;font-variant:normal;font-variant-ligatures:normal;font-variant-caps:normal;font-variant-numeric:normal;font-variant-east-asian:normal;"
     y="91.620003"
     x="18.059999">4</text>
  <polyline
     points="25.26,284.26 28.00,284.26 "
     style="stroke:#333333;stroke-width:1.07;stroke-linecap:butt"
     clip-path="url(#cpMC4wMHwxODAuMDB8MzI0LjAwfDAuMDA=)"
     id="polyline9210"
     transform="translate(0,-22)" />
  <polyline
     points="25.26,240.82 28.00,240.82 "
     style="stroke:#333333;stroke-width:1.07;stroke-linecap:butt"
     clip-path="url(#cpMC4wMHwxODAuMDB8MzI0LjAwfDAuMDA=)"
     id="polyline9212"
     transform="translate(0,-22)" />
  <polyline
     points="25.26,197.39 28.00,197.39 "
     style="stroke:#333333;stroke-width:1.07;stroke-linecap:butt"
     clip-path="url(#cpMC4wMHwxODAuMDB8MzI0LjAwfDAuMDA=)"
     id="polyline9214"
     transform="translate(0,-22)" />
  <polyline
     points="25.26,153.96 28.00,153.96 "
     style="stroke:#333333;stroke-width:1.07;stroke-linecap:butt"
     clip-path="url(#cpMC4wMHwxODAuMDB8MzI0LjAwfDAuMDA=)"
     id="polyline9216"
     transform="translate(0,-22)" />
  <polyline
     points="25.26,110.52 28.00,110.52 "
     style="stroke:#333333;stroke-width:1.07;stroke-linecap:butt"
     clip-path="url(#cpMC4wMHwxODAuMDB8MzI0LjAwfDAuMDA=)"
     id="polyline9218"
     transform="translate(0,-22)" />
  <polyline
     points="64.12,295.68 64.12,292.94 "
     style="stroke:#333333;stroke-width:1.07;stroke-linecap:butt"
     clip-path="url(#cpMC4wMHwxODAuMDB8MzI0LjAwfDAuMDA=)"
     id="polyline9220"
     transform="translate(0,-22)" />
  <polyline
     points="103.27,295.68 103.27,292.94 "
     style="stroke:#333333;stroke-width:1.07;stroke-linecap:butt"
     clip-path="url(#cpMC4wMHwxODAuMDB8MzI0LjAwfDAuMDA=)"
     id="polyline9222"
     transform="translate(0,-22)" />
  <polyline
     points="142.41,295.68 142.41,292.94 "
     style="stroke:#333333;stroke-width:1.07;stroke-linecap:butt"
     clip-path="url(#cpMC4wMHwxODAuMDB8MzI0LjAwfDAuMDA=)"
     id="polyline9224"
     transform="translate(0,-22)" />
  <text
     id="text9226"
     style="font-size:9.33333333px;font-family:Helvetica;fill:#4d4d4d;-inkscape-font-specification:'Helvetica, Normal';font-weight:normal;font-style:normal;font-stretch:normal;font-variant:normal;font-variant-ligatures:normal;font-variant-caps:normal;font-variant-numeric:normal;font-variant-east-asian:normal;"
     y="282.06"
     x="60.119999">-4</text>
  <text
     id="text9230"
     style="font-size:9.33333333px;font-family:Helvetica;fill:#4d4d4d;-inkscape-font-specification:'Helvetica, Normal';font-weight:normal;font-style:normal;font-stretch:normal;font-variant:normal;font-variant-ligatures:normal;font-variant-caps:normal;font-variant-numeric:normal;font-variant-east-asian:normal;"
     y="282.06"
     x="100.76">0</text>
  <text
     id="text9234"
     style="font-size:9.33333333px;font-family:Helvetica;fill:#4d4d4d;-inkscape-font-specification:'Helvetica, Normal';font-weight:normal;font-style:normal;font-stretch:normal;font-variant:normal;font-variant-ligatures:normal;font-variant-caps:normal;font-variant-numeric:normal;font-variant-east-asian:normal;"
     y="282.06"
     x="139.91">4</text>
  <text
     id="text9238"
     style="font-size:10.66666667px;font-family:Helvetica;-inkscape-font-specification:'Helvetica, Normal';font-weight:normal;font-style:normal;font-stretch:normal;font-variant:normal;font-variant-ligatures:normal;font-variant-caps:normal;font-variant-numeric:normal;font-variant-east-asian:normal;"
     y="294.23999"
     x="59.060001">Log2 fold change</text>
  <text
     id="text9242"
     style="font-size:10.66666667px;font-family:Helvetica;-inkscape-font-specification:'Helvetica, Normal';font-weight:normal;font-style:normal;font-stretch:normal;font-variant:normal;font-variant-ligatures:normal;font-variant-caps:normal;font-variant-numeric:normal;font-variant-east-asian:normal;"
     transform="rotate(-90)"
     x="-234.39999"
     y="13.04">-Log10 adjusted p-value</text>
  <rect
     x="33.48"
     y="33.560001"
     width="17.280001"
     height="17.280001"
     style="fill:#ffffff;stroke:none;stroke-width:1.07"
     clip-path="url(#cpMC4wMHwxODAuMDB8MzI0LjAwfDAuMDA=)"
     id="rect9248"
     transform="translate(0,-12)" />
  <circle
     cx="42.119999"
     cy="42.200001"
     r="1.95"
     style="fill:#74add1;fill-opacity:0.75;stroke:#74add1;stroke-width:0.71;stroke-opacity:0.75"
     clip-path="url(#cpMC4wMHwxODAuMDB8MzI0LjAwfDAuMDA=)"
     id="circle9250"
     transform="translate(0,-12)" />
  <rect
     x="33.48"
     y="50.84"
     width="17.280001"
     height="17.280001"
     style="fill:#ffffff;stroke:none;stroke-width:1.07"
     clip-path="url(#cpMC4wMHwxODAuMDB8MzI0LjAwfDAuMDA=)"
     id="rect9252"
     transform="translate(0,-12)" />
  <circle
     cx="42.119999"
     cy="59.48"
     r="1.95"
     style="fill:#f46d43;fill-opacity:0.75;stroke:#f46d43;stroke-width:0.71;stroke-opacity:0.75"
     clip-path="url(#cpMC4wMHwxODAuMDB8MzI0LjAwfDAuMDA=)"
     id="circle9254"
     transform="translate(0,-12)" />
  <rect
     x="33.48"
     y="68.120003"
     width="17.280001"
     height="17.280001"
     style="fill:#ffffff;stroke:none;stroke-width:1.07"
     clip-path="url(#cpMC4wMHwxODAuMDB8MzI0LjAwfDAuMDA=)"
     id="rect9256"
     transform="translate(0,-12)" />
  <circle
     cx="42.119999"
     cy="76.760002"
     r="1.95"
     style="fill:#999999;fill-opacity:0.75;stroke:#999999;stroke-width:0.71;stroke-opacity:0.75"
     clip-path="url(#cpMC4wMHwxODAuMDB8MzI0LjAwfDAuMDA=)"
     id="circle9258"
     transform="translate(0,-12)" />
  <text
     id="text9260"
     style="font-size:10.66666667px;font-family:Helvetica;-inkscape-font-specification:'Helvetica, Normal';font-weight:normal;font-style:normal;font-stretch:normal;font-variant:normal;font-variant-ligatures:normal;font-variant-caps:normal;font-variant-numeric:normal;font-variant-east-asian:normal;"
     y="33.290001"
     x="56.240002">DEG (down): 37</text>
  <text
     id="text9264"
     style="font-size:10.66666667px;font-family:Helvetica;-inkscape-font-specification:'Helvetica, Normal';font-weight:normal;font-style:normal;font-stretch:normal;font-variant:normal;font-variant-ligatures:normal;font-variant-caps:normal;font-variant-numeric:normal;font-variant-east-asian:normal;"
     y="50.57"
     x="56.240002">DEG (up): 60</text>
  <text
     id="text9268"
     style="font-size:10.66666667px;font-family:Helvetica;-inkscape-font-specification:'Helvetica, Normal';font-weight:normal;font-style:normal;font-stretch:normal;font-variant:normal;font-variant-ligatures:normal;font-variant-caps:normal;font-variant-numeric:normal;font-variant-east-asian:normal;"
     y="67.849998"
     x="56.240002">Non-DEG: 44344</text>
  <text
     id="text9272"
     style="font-size:14.66670000000000051px;font-family:Helvetica;-inkscape-font-specification:'Helvetica, Normal';font-weight:normal;font-style:normal;font-stretch:normal;font-variant:normal;font-variant-ligatures:normal;font-variant-caps:normal;font-variant-numeric:normal;font-variant-east-asian:normal;"
     y="16.419998"
     x="28">L3:L1</text>
  <g
     inkscape:groupmode="layer"
     id="layer7"
     inkscape:label="main" />
</svg>
