<?xml version="1.0" encoding="UTF-8" standalone="no"?>
<svg
   xmlns:dc="http://purl.org/dc/elements/1.1/"
   xmlns:cc="http://creativecommons.org/ns#"
   xmlns:rdf="http://www.w3.org/1999/02/22-rdf-syntax-ns#"
   xmlns:svg="http://www.w3.org/2000/svg"
   xmlns="http://www.w3.org/2000/svg"
   xmlns:sodipodi="http://sodipodi.sourceforge.net/DTD/sodipodi-0.dtd"
   xmlns:inkscape="http://www.inkscape.org/namespaces/inkscape"
   aria-hidden="true"
   focusable="false"
   data-prefix="fas"
   data-icon="link"
   class="svg-inline--fa fa-link fa-w-16"
   role="img"
   viewBox="0 0 16 16"
   version="1.1"
   id="svg835"
   sodipodi:docname="link-solid_16x16.svg"
   width="16"
   height="16"
   inkscape:version="1.0.1 (c497b03c, 2020-09-10)">
  <metadata
     id="metadata841">
    <rdf:RDF>
      <cc:Work
         rdf:about="">
        <dc:format>image/svg+xml</dc:format>
        <dc:type
           rdf:resource="http://purl.org/dc/dcmitype/StillImage" />
        <dc:title></dc:title>
      </cc:Work>
    </rdf:RDF>
  </metadata>
  <defs
     id="defs839" />
  <sodipodi:namedview
     pagecolor="#ffffff"
     bordercolor="#666666"
     borderopacity="1"
     objecttolerance="10"
     gridtolerance="10"
     guidetolerance="10"
     inkscape:pageopacity="0"
     inkscape:pageshadow="2"
     inkscape:window-width="1919"
     inkscape:window-height="913"
     id="namedview837"
     showgrid="false"
     inkscape:zoom="1.2070312"
     inkscape:cx="256"
     inkscape:cy="256"
     inkscape:window-x="0"
     inkscape:window-y="25"
     inkscape:window-maximized="0"
     inkscape:current-layer="svg835" />
  <path
     fill="currentColor"
     d="m 10.206143,5.7929857 c 1.867094,1.8690317 1.841469,4.8655633 0.01125,6.7059393 -0.0034,0.0038 -0.0075,0.0078 -0.01125,0.01156 l -2.1000004,2.100001 c -1.8521879,1.852188 -4.8655949,1.851938 -6.7175016,0 -1.85218799,-1.851876 -1.85218799,-4.8656263 0,-6.7175017 L 2.5482037,6.7334235 C 2.8557038,6.4259234 3.3852665,6.6302984 3.4011415,7.0648611 3.4213915,7.6186737 3.520704,8.1750801 3.703954,8.7123927 3.7660165,8.8943302 3.7216728,9.0955803 3.5857353,9.2315178 L 3.1767664,9.6404867 c -0.8758127,0.8758123 -0.9032815,2.3018753 -0.036094,3.1862503 0.8757503,0.893094 2.3151881,0.898407 3.1976571,0.01594 L 8.43833,10.742989 C 9.319299,9.86202 9.3156114,8.4380821 8.43833,7.5608007 8.3226739,7.4453611 8.2061739,7.3556736 8.1151739,7.2930174 A 0.50115637,0.50115637 0 0 1 7.8980801,6.8990798 C 7.8857051,6.5688609 8.0027051,6.2285796 8.2636426,5.967642 L 8.9215803,5.3096731 C 9.0941116,5.1371418 9.3647679,5.1159543 9.5648305,5.2555794 a 4.7650637,4.7650637 0 0 1 0.6413125,0.5374063 z m 4.40422,-4.4044385 c -1.851907,-1.85193799 -4.8653137,-1.85218799 -6.7175017,0 L 5.7928608,3.4885477 c -0.00375,0.00375 -0.00781,0.00781 -0.01125,0.011563 -1.830188,1.8403754 -1.8558442,4.8369074 0.01125,6.7059393 a 4.7641887,4.7641887 0 0 0 0.6412814,0.537375 c 0.2000625,0.139625 0.4707501,0.118407 0.6432502,-0.05409 L 7.73533,10.031362 C 7.9962676,9.7704242 8.1132676,9.4301429 8.1008926,9.099924 A 0.50115637,0.50115637 0 0 0 7.8837988,8.7059865 c -0.091,-0.062656 -0.2075001,-0.1523438 -0.3231563,-0.2677814 -0.8772815,-0.8772814 -0.880969,-2.3012193 0,-3.1821882 L 9.660643,3.1563288 c 0.882469,-0.8824689 2.321876,-0.8771564 3.197657,0.015938 0.867188,0.8843752 0.83975,2.310438 -0.03609,3.1862507 L 12.413237,6.767486 c -0.135937,0.1359375 -0.180281,0.3371876 -0.118218,0.5191251 0.18325,0.5373126 0.282562,1.093719 0.302812,1.6475317 0.01591,0.4345626 0.545438,0.6389376 0.852938,0.3314375 l 1.159563,-1.1595627 c 1.852219,-1.8518442 1.852219,-4.865595 3.1e-5,-6.7174704 z"
     id="path833"
     style="stroke-width:0.03125" />
</svg>
